<?xml version="1.0" encoding="utf-8" standalone="no"?>
<!DOCTYPE svg PUBLIC "-//W3C//DTD SVG 1.1//EN"
  "http://www.w3.org/Graphics/SVG/1.1/DTD/svg11.dtd">
<!-- Created with matplotlib (https://matplotlib.org/) -->
<svg height="142.029375pt" version="1.1" viewBox="0 0 127.978267 142.029375" width="127.978267pt" xmlns="http://www.w3.org/2000/svg" xmlns:xlink="http://www.w3.org/1999/xlink">
 <defs>
  <style type="text/css">
*{stroke-linecap:butt;stroke-linejoin:round;}
  </style>
 </defs>
 <g id="figure_1">
  <g id="patch_1">
   <path d="M 0 142.029375 
L 127.978267 142.029375 
L 127.978267 0 
L 0 0 
z
" style="fill:#ffffff;"/>
  </g>
  <g id="axes_1">
   <g id="patch_2">
    <path d="M 30.6 115.92 
L 114.3 115.92 
L 114.3 7.2 
L 30.6 7.2 
z
" style="fill:none;"/>
   </g>
   <g id="line2d_1">
    <path clip-path="url(#pbfbd07d756)" d="M 34.404545 29.599156 
L 53.427273 42.916678 
L 72.45 47.796385 
L 91.472727 49.608007 
L 110.495455 80.143089 
" style="fill:none;stroke:#fe2c2c;stroke-linecap:round;stroke-opacity:0.9;stroke-width:4;"/>
    <defs>
     <path d="M 0 2 
C 0.530406 2 1.03916 1.789267 1.414214 1.414214 
C 1.789267 1.03916 2 0.530406 2 0 
C 2 -0.530406 1.789267 -1.03916 1.414214 -1.414214 
C 1.03916 -1.789267 0.530406 -2 0 -2 
C -0.530406 -2 -1.03916 -1.789267 -1.414214 -1.414214 
C -1.789267 -1.03916 -2 -0.530406 -2 0 
C -2 0.530406 -1.789267 1.03916 -1.414214 1.414214 
C -1.03916 1.789267 -0.530406 2 0 2 
z
" id="m20c89deb5d" style="stroke:#fe2c2c;stroke-opacity:0.9;"/>
    </defs>
    <g clip-path="url(#pbfbd07d756)">
     <use style="fill:#fe2c2c;fill-opacity:0.9;stroke:#fe2c2c;stroke-opacity:0.9;" x="34.404545" xlink:href="#m20c89deb5d" y="29.599156"/>
     <use style="fill:#fe2c2c;fill-opacity:0.9;stroke:#fe2c2c;stroke-opacity:0.9;" x="53.427273" xlink:href="#m20c89deb5d" y="42.916678"/>
     <use style="fill:#fe2c2c;fill-opacity:0.9;stroke:#fe2c2c;stroke-opacity:0.9;" x="72.45" xlink:href="#m20c89deb5d" y="47.796385"/>
     <use style="fill:#fe2c2c;fill-opacity:0.9;stroke:#fe2c2c;stroke-opacity:0.9;" x="91.472727" xlink:href="#m20c89deb5d" y="49.608007"/>
     <use style="fill:#fe2c2c;fill-opacity:0.9;stroke:#fe2c2c;stroke-opacity:0.9;" x="110.495455" xlink:href="#m20c89deb5d" y="80.143089"/>
    </g>
   </g>
   <g id="line2d_2">
    <path clip-path="url(#pbfbd07d756)" d="M 34.404545 11.383308 
L 53.427273 18.112443 
L 72.45 37.421594 
L 91.472727 68.319754 
L 110.495455 92.410793 
" style="fill:none;stroke:#852cfe;stroke-linecap:round;stroke-opacity:0.9;stroke-width:4;"/>
    <defs>
     <path d="M 0 2 
C 0.530406 2 1.03916 1.789267 1.414214 1.414214 
C 1.789267 1.03916 2 0.530406 2 0 
C 2 -0.530406 1.789267 -1.03916 1.414214 -1.414214 
C 1.03916 -1.789267 0.530406 -2 0 -2 
C -0.530406 -2 -1.03916 -1.789267 -1.414214 -1.414214 
C -1.789267 -1.03916 -2 -0.530406 -2 0 
C -2 0.530406 -1.789267 1.03916 -1.414214 1.414214 
C -1.03916 1.789267 -0.530406 2 0 2 
z
" id="m490f7dbfd7" style="stroke:#852cfe;stroke-opacity:0.9;"/>
    </defs>
    <g clip-path="url(#pbfbd07d756)">
     <use style="fill:#852cfe;fill-opacity:0.9;stroke:#852cfe;stroke-opacity:0.9;" x="34.404545" xlink:href="#m490f7dbfd7" y="11.383308"/>
     <use style="fill:#852cfe;fill-opacity:0.9;stroke:#852cfe;stroke-opacity:0.9;" x="53.427273" xlink:href="#m490f7dbfd7" y="18.112443"/>
     <use style="fill:#852cfe;fill-opacity:0.9;stroke:#852cfe;stroke-opacity:0.9;" x="72.45" xlink:href="#m490f7dbfd7" y="37.421594"/>
     <use style="fill:#852cfe;fill-opacity:0.9;stroke:#852cfe;stroke-opacity:0.9;" x="91.472727" xlink:href="#m490f7dbfd7" y="68.319754"/>
     <use style="fill:#852cfe;fill-opacity:0.9;stroke:#852cfe;stroke-opacity:0.9;" x="110.495455" xlink:href="#m490f7dbfd7" y="92.410793"/>
    </g>
   </g>
   <g id="line2d_3">
    <path clip-path="url(#pbfbd07d756)" d="M 34.404545 69.603036 
L 53.427273 95.04947 
L 72.45 82.517725 
L 91.472727 89.459186 
L 110.495455 91.890905 
" style="fill:none;stroke:#2cbdfe;stroke-linecap:round;stroke-opacity:0.9;stroke-width:4;"/>
    <defs>
     <path d="M 0 2 
C 0.530406 2 1.03916 1.789267 1.414214 1.414214 
C 1.789267 1.03916 2 0.530406 2 0 
C 2 -0.530406 1.789267 -1.03916 1.414214 -1.414214 
C 1.03916 -1.789267 0.530406 -2 0 -2 
C -0.530406 -2 -1.03916 -1.789267 -1.414214 -1.414214 
C -1.789267 -1.03916 -2 -0.530406 -2 0 
C -2 0.530406 -1.789267 1.03916 -1.414214 1.414214 
C -1.03916 1.789267 -0.530406 2 0 2 
z
" id="mfc33488c94" style="stroke:#2cbdfe;stroke-opacity:0.9;"/>
    </defs>
    <g clip-path="url(#pbfbd07d756)">
     <use style="fill:#2cbdfe;fill-opacity:0.9;stroke:#2cbdfe;stroke-opacity:0.9;" x="34.404545" xlink:href="#mfc33488c94" y="69.603036"/>
     <use style="fill:#2cbdfe;fill-opacity:0.9;stroke:#2cbdfe;stroke-opacity:0.9;" x="53.427273" xlink:href="#mfc33488c94" y="95.04947"/>
     <use style="fill:#2cbdfe;fill-opacity:0.9;stroke:#2cbdfe;stroke-opacity:0.9;" x="72.45" xlink:href="#mfc33488c94" y="82.517725"/>
     <use style="fill:#2cbdfe;fill-opacity:0.9;stroke:#2cbdfe;stroke-opacity:0.9;" x="91.472727" xlink:href="#mfc33488c94" y="89.459186"/>
     <use style="fill:#2cbdfe;fill-opacity:0.9;stroke:#2cbdfe;stroke-opacity:0.9;" x="110.495455" xlink:href="#mfc33488c94" y="91.890905"/>
    </g>
   </g>
   <g id="matplotlib.axis_1">
    <g id="xtick_1">
     <g id="line2d_4">
      <defs>
       <path d="M 0 0 
L 0 6 
" id="md35627ef06" style="stroke:#1d1c1c;stroke-width:1.25;"/>
      </defs>
      <g>
       <use style="fill:#1d1c1c;stroke:#1d1c1c;stroke-width:1.25;" x="34.404545" xlink:href="#md35627ef06" y="115.92"/>
      </g>
     </g>
     <g id="text_1">
      <!-- Low -->
      <defs>
       <path d="M 7.625 71.734375 
L 17.328125 71.734375 
L 17.328125 8.546875 
L 53.65625 8.546875 
L 53.65625 0 
L 7.625 0 
z
" id="Helvetica-76"/>
       <path d="M 27.203125 5.671875 
Q 35.9375 5.671875 39.1875 12.28125 
Q 42.4375 18.890625 42.4375 27 
Q 42.4375 34.328125 40.09375 38.921875 
Q 36.375 46.140625 27.296875 46.140625 
Q 19.234375 46.140625 15.578125 39.984375 
Q 11.921875 33.84375 11.921875 25.140625 
Q 11.921875 16.796875 15.578125 11.234375 
Q 19.234375 5.671875 27.203125 5.671875 
z
M 27.546875 53.8125 
Q 37.640625 53.8125 44.625 47.0625 
Q 51.609375 40.328125 51.609375 27.25 
Q 51.609375 14.59375 45.453125 6.34375 
Q 39.3125 -1.90625 26.375 -1.90625 
Q 15.578125 -1.90625 9.21875 5.390625 
Q 2.875 12.703125 2.875 25 
Q 2.875 38.1875 9.5625 46 
Q 16.265625 53.8125 27.546875 53.8125 
z
M 27.25 53.5625 
z
" id="Helvetica-111"/>
       <path d="M 10.5 52.296875 
L 20.5625 11.078125 
L 30.765625 52.296875 
L 40.625 52.296875 
L 50.875 11.328125 
L 61.578125 52.296875 
L 70.359375 52.296875 
L 55.171875 0 
L 46.046875 0 
L 35.40625 40.484375 
L 25.09375 0 
L 15.96875 0 
L 0.875 52.296875 
z
" id="Helvetica-119"/>
      </defs>
      <g style="fill:#1d1c1c;" transform="translate(25.23267 132.593437)scale(0.1 -0.1)">
       <use xlink:href="#Helvetica-76"/>
       <use x="55.615234" xlink:href="#Helvetica-111"/>
       <use x="111.230469" xlink:href="#Helvetica-119"/>
      </g>
     </g>
    </g>
    <g id="xtick_2">
     <g id="line2d_5">
      <g>
       <use style="fill:#1d1c1c;stroke:#1d1c1c;stroke-width:1.25;" x="72.45" xlink:href="#md35627ef06" y="115.92"/>
      </g>
     </g>
     <g id="text_2">
      <!-- Middle -->
      <defs>
       <path d="M 7.375 71.734375 
L 21.296875 71.734375 
L 41.890625 11.078125 
L 62.359375 71.734375 
L 76.125 71.734375 
L 76.125 0 
L 66.890625 0 
L 66.890625 42.328125 
Q 66.890625 44.53125 66.984375 49.609375 
Q 67.09375 54.6875 67.09375 60.5 
L 46.625 0 
L 37.015625 0 
L 16.40625 60.5 
L 16.40625 58.296875 
Q 16.40625 55.671875 16.53125 50.265625 
Q 16.65625 44.875 16.65625 42.328125 
L 16.65625 0 
L 7.375 0 
z
" id="Helvetica-77"/>
       <path d="M 6.453125 52.046875 
L 15.375 52.046875 
L 15.375 0 
L 6.453125 0 
z
M 6.453125 71.734375 
L 15.375 71.734375 
L 15.375 61.765625 
L 6.453125 61.765625 
z
" id="Helvetica-105"/>
       <path d="M 12.015625 25.53125 
Q 12.015625 17.140625 15.578125 11.46875 
Q 19.140625 5.8125 27 5.8125 
Q 33.109375 5.8125 37.03125 11.0625 
Q 40.96875 16.3125 40.96875 26.125 
Q 40.96875 36.03125 36.90625 40.796875 
Q 32.859375 45.5625 26.90625 45.5625 
Q 20.265625 45.5625 16.140625 40.484375 
Q 12.015625 35.40625 12.015625 25.53125 
z
M 25.25 53.21875 
Q 31.25 53.21875 35.296875 50.6875 
Q 37.640625 49.21875 40.625 45.5625 
L 40.625 71.96875 
L 49.078125 71.96875 
L 49.078125 0 
L 41.15625 0 
L 41.15625 7.28125 
Q 38.09375 2.4375 33.890625 0.28125 
Q 29.6875 -1.859375 24.265625 -1.859375 
Q 15.53125 -1.859375 9.125 5.484375 
Q 2.734375 12.84375 2.734375 25.046875 
Q 2.734375 36.46875 8.5625 44.84375 
Q 14.40625 53.21875 25.25 53.21875 
z
" id="Helvetica-100"/>
       <path d="M 6.6875 71.734375 
L 15.484375 71.734375 
L 15.484375 0 
L 6.6875 0 
z
" id="Helvetica-108"/>
       <path d="M 28.21875 53.46875 
Q 33.796875 53.46875 39.015625 50.859375 
Q 44.234375 48.25 46.96875 44.09375 
Q 49.609375 40.140625 50.484375 34.859375 
Q 51.265625 31.25 51.265625 23.34375 
L 12.9375 23.34375 
Q 13.1875 15.375 16.703125 10.5625 
Q 20.21875 5.765625 27.59375 5.765625 
Q 34.46875 5.765625 38.578125 10.296875 
Q 40.921875 12.9375 41.890625 16.40625 
L 50.53125 16.40625 
Q 50.203125 13.53125 48.265625 9.984375 
Q 46.34375 6.453125 43.953125 4.203125 
Q 39.9375 0.296875 34.03125 -1.078125 
Q 30.859375 -1.859375 26.859375 -1.859375 
Q 17.09375 -1.859375 10.296875 5.25 
Q 3.515625 12.359375 3.515625 25.140625 
Q 3.515625 37.75 10.34375 45.609375 
Q 17.1875 53.46875 28.21875 53.46875 
z
M 42.234375 30.328125 
Q 41.703125 36.03125 39.75 39.453125 
Q 36.140625 45.796875 27.6875 45.796875 
Q 21.625 45.796875 17.515625 41.421875 
Q 13.421875 37.0625 13.1875 30.328125 
z
M 27.390625 53.5625 
z
" id="Helvetica-101"/>
      </defs>
      <g style="fill:#1d1c1c;" transform="translate(57.721875 132.593437)scale(0.1 -0.1)">
       <use xlink:href="#Helvetica-77"/>
       <use x="83.300781" xlink:href="#Helvetica-105"/>
       <use x="105.517578" xlink:href="#Helvetica-100"/>
       <use x="161.132812" xlink:href="#Helvetica-100"/>
       <use x="216.748047" xlink:href="#Helvetica-108"/>
       <use x="238.964844" xlink:href="#Helvetica-101"/>
      </g>
     </g>
    </g>
    <g id="xtick_3">
     <g id="line2d_6">
      <g>
       <use style="fill:#1d1c1c;stroke:#1d1c1c;stroke-width:1.25;" x="110.495455" xlink:href="#md35627ef06" y="115.92"/>
      </g>
     </g>
     <g id="text_3">
      <!-- High -->
      <defs>
       <path d="M 7.859375 71.734375 
L 17.671875 71.734375 
L 17.671875 42.09375 
L 54.984375 42.09375 
L 54.984375 71.734375 
L 64.796875 71.734375 
L 64.796875 0 
L 54.984375 0 
L 54.984375 33.546875 
L 17.671875 33.546875 
L 17.671875 0 
L 7.859375 0 
z
" id="Helvetica-72"/>
       <path d="M 24.90625 53.21875 
Q 31.0625 53.21875 35.640625 50.203125 
Q 38.140625 48.484375 40.71875 45.21875 
L 40.71875 51.8125 
L 48.828125 51.8125 
L 48.828125 4.25 
Q 48.828125 -5.71875 45.90625 -11.46875 
Q 40.4375 -22.125 25.25 -22.125 
Q 16.796875 -22.125 11.03125 -18.328125 
Q 5.28125 -14.546875 4.59375 -6.5 
L 13.53125 -6.5 
Q 14.15625 -10.015625 16.0625 -11.921875 
Q 19.046875 -14.84375 25.4375 -14.84375 
Q 35.546875 -14.84375 38.671875 -7.71875 
Q 40.53125 -3.515625 40.375 7.28125 
Q 37.75 3.265625 34.03125 1.3125 
Q 30.328125 -0.640625 24.21875 -0.640625 
Q 15.71875 -0.640625 9.34375 5.390625 
Q 2.984375 11.421875 2.984375 25.34375 
Q 2.984375 38.484375 9.40625 45.84375 
Q 15.828125 53.21875 24.90625 53.21875 
z
M 40.71875 26.375 
Q 40.71875 36.078125 36.71875 40.765625 
Q 32.71875 45.453125 26.515625 45.453125 
Q 17.234375 45.453125 13.8125 36.765625 
Q 12.015625 32.125 12.015625 24.609375 
Q 12.015625 15.765625 15.59375 11.15625 
Q 19.1875 6.546875 25.25 6.546875 
Q 34.71875 6.546875 38.578125 15.09375 
Q 40.71875 19.921875 40.71875 26.375 
z
M 25.921875 53.5625 
z
" id="Helvetica-103"/>
       <path d="M 6.453125 71.96875 
L 15.234375 71.96875 
L 15.234375 45.21875 
Q 18.359375 49.171875 20.84375 50.78125 
Q 25.09375 53.5625 31.453125 53.5625 
Q 42.828125 53.5625 46.875 45.609375 
Q 49.078125 41.265625 49.078125 33.546875 
L 49.078125 0 
L 40.046875 0 
L 40.046875 32.953125 
Q 40.046875 38.71875 38.578125 41.40625 
Q 36.1875 45.703125 29.59375 45.703125 
Q 24.125 45.703125 19.671875 41.9375 
Q 15.234375 38.1875 15.234375 27.734375 
L 15.234375 0 
L 6.453125 0 
z
" id="Helvetica-104"/>
      </defs>
      <g style="fill:#1d1c1c;" transform="translate(100.212642 132.616875)scale(0.1 -0.1)">
       <use xlink:href="#Helvetica-72"/>
       <use x="72.216797" xlink:href="#Helvetica-105"/>
       <use x="94.433594" xlink:href="#Helvetica-103"/>
       <use x="150.048828" xlink:href="#Helvetica-104"/>
      </g>
     </g>
    </g>
   </g>
   <g id="matplotlib.axis_2">
    <g id="ytick_1">
     <g id="line2d_7">
      <defs>
       <path d="M 0 0 
L -6 0 
" id="m73aba5fce8" style="stroke:#1d1c1c;stroke-width:1.25;"/>
      </defs>
      <g>
       <use style="fill:#1d1c1c;stroke:#1d1c1c;stroke-width:1.25;" x="30.6" xlink:href="#m73aba5fce8" y="115.92"/>
      </g>
     </g>
     <g id="text_4">
      <!-- 3.9 -->
      <defs>
       <path d="M 25.984375 -1.90625 
Q 13.578125 -1.90625 7.984375 4.90625 
Q 2.390625 11.71875 2.390625 21.484375 
L 11.578125 21.484375 
Q 12.15625 14.703125 14.109375 11.625 
Q 17.53125 6.109375 26.46875 6.109375 
Q 33.40625 6.109375 37.59375 9.8125 
Q 41.796875 13.53125 41.796875 19.390625 
Q 41.796875 26.609375 37.375 29.484375 
Q 32.953125 32.375 25.09375 32.375 
Q 24.21875 32.375 23.3125 32.34375 
Q 22.40625 32.328125 21.484375 32.28125 
L 21.484375 40.046875 
Q 22.859375 39.890625 23.78125 39.84375 
Q 24.703125 39.796875 25.78125 39.796875 
Q 30.71875 39.796875 33.890625 41.359375 
Q 39.453125 44.09375 39.453125 51.125 
Q 39.453125 56.34375 35.734375 59.171875 
Q 32.03125 62.015625 27.09375 62.015625 
Q 18.3125 62.015625 14.9375 56.15625 
Q 13.09375 52.9375 12.84375 46.96875 
L 4.15625 46.96875 
Q 4.15625 54.78125 7.28125 60.25 
Q 12.640625 70.015625 26.171875 70.015625 
Q 36.859375 70.015625 42.71875 65.25 
Q 48.578125 60.5 48.578125 51.46875 
Q 48.578125 45.015625 45.125 41.015625 
Q 42.96875 38.53125 39.546875 37.109375 
Q 45.0625 35.59375 48.15625 31.265625 
Q 51.265625 26.953125 51.265625 20.703125 
Q 51.265625 10.6875 44.671875 4.390625 
Q 38.09375 -1.90625 25.984375 -1.90625 
z
" id="Helvetica-51"/>
       <path d="M 8.546875 10.640625 
L 18.75 10.640625 
L 18.75 0 
L 8.546875 0 
z
" id="Helvetica-46"/>
       <path d="M 13.28125 16.890625 
Q 13.671875 9.625 18.890625 6.84375 
Q 21.578125 5.375 24.953125 5.375 
Q 31.25 5.375 35.6875 10.625 
Q 40.140625 15.875 42 31.9375 
Q 39.0625 27.296875 34.734375 25.40625 
Q 30.421875 23.53125 25.4375 23.53125 
Q 15.328125 23.53125 9.4375 29.828125 
Q 3.5625 36.140625 3.5625 46.046875 
Q 3.5625 55.5625 9.375 62.78125 
Q 15.1875 70.015625 26.515625 70.015625 
Q 41.796875 70.015625 47.609375 56.25 
Q 50.828125 48.6875 50.828125 37.3125 
Q 50.828125 24.46875 46.96875 14.546875 
Q 40.578125 -1.953125 25.296875 -1.953125 
Q 15.046875 -1.953125 9.71875 3.421875 
Q 4.390625 8.796875 4.390625 16.890625 
z
M 26.609375 31.25 
Q 31.84375 31.25 36.15625 34.6875 
Q 40.484375 38.140625 40.484375 46.734375 
Q 40.484375 54.4375 36.59375 58.21875 
Q 32.71875 62.015625 26.703125 62.015625 
Q 20.265625 62.015625 16.484375 57.6875 
Q 12.703125 53.375 12.703125 46.140625 
Q 12.703125 39.3125 16.015625 35.28125 
Q 19.34375 31.25 26.609375 31.25 
z
" id="Helvetica-57"/>
      </defs>
      <g style="fill:#1d1c1c;" transform="translate(7.2 119.506719)scale(0.1 -0.1)">
       <use xlink:href="#Helvetica-51"/>
       <use x="55.615234" xlink:href="#Helvetica-46"/>
       <use x="83.398438" xlink:href="#Helvetica-57"/>
      </g>
     </g>
    </g>
    <g id="ytick_2">
     <g id="line2d_8">
      <g>
       <use style="fill:#1d1c1c;stroke:#1d1c1c;stroke-width:1.25;" x="30.6" xlink:href="#m73aba5fce8" y="83.319791"/>
      </g>
     </g>
     <g id="text_5">
      <!-- 5.9 -->
      <defs>
       <path d="M 12.359375 17.828125 
Q 13.234375 10.296875 19.34375 7.421875 
Q 22.46875 5.953125 26.5625 5.953125 
Q 34.375 5.953125 38.125 10.9375 
Q 41.890625 15.921875 41.890625 21.96875 
Q 41.890625 29.296875 37.421875 33.296875 
Q 32.953125 37.3125 26.703125 37.3125 
Q 22.171875 37.3125 18.921875 35.546875 
Q 15.671875 33.796875 13.375 30.671875 
L 5.765625 31.109375 
L 11.078125 68.75 
L 47.40625 68.75 
L 47.40625 60.25 
L 17.671875 60.25 
L 14.703125 40.828125 
Q 17.140625 42.671875 19.34375 43.609375 
Q 23.25 45.21875 28.375 45.21875 
Q 37.984375 45.21875 44.671875 39.015625 
Q 51.375 32.8125 51.375 23.296875 
Q 51.375 13.375 45.234375 5.796875 
Q 39.109375 -1.765625 25.6875 -1.765625 
Q 17.140625 -1.765625 10.5625 3.046875 
Q 4 7.859375 3.21875 17.828125 
z
" id="Helvetica-53"/>
      </defs>
      <g style="fill:#1d1c1c;" transform="translate(7.2 86.90651)scale(0.1 -0.1)">
       <use xlink:href="#Helvetica-53"/>
       <use x="55.615234" xlink:href="#Helvetica-46"/>
       <use x="83.398438" xlink:href="#Helvetica-57"/>
      </g>
     </g>
    </g>
    <g id="ytick_3">
     <g id="line2d_9">
      <g>
       <use style="fill:#1d1c1c;stroke:#1d1c1c;stroke-width:1.25;" x="30.6" xlink:href="#m73aba5fce8" y="50.719582"/>
      </g>
     </g>
     <g id="text_6">
      <!-- 7.9 -->
      <defs>
       <path d="M 52.296875 68.75 
L 52.296875 61.078125 
Q 48.921875 57.8125 43.328125 49.703125 
Q 37.75 41.609375 33.453125 32.234375 
Q 29.203125 23.09375 27 15.578125 
Q 25.59375 10.75 23.34375 0 
L 13.625 0 
Q 16.9375 20.015625 28.265625 39.84375 
Q 34.96875 51.46875 42.328125 59.90625 
L 3.65625 59.90625 
L 3.65625 68.75 
z
" id="Helvetica-55"/>
      </defs>
      <g style="fill:#1d1c1c;" transform="translate(7.2 54.3063)scale(0.1 -0.1)">
       <use xlink:href="#Helvetica-55"/>
       <use x="55.615234" xlink:href="#Helvetica-46"/>
       <use x="83.398438" xlink:href="#Helvetica-57"/>
      </g>
     </g>
    </g>
    <g id="ytick_4">
     <g id="line2d_10">
      <g>
       <use style="fill:#1d1c1c;stroke:#1d1c1c;stroke-width:1.25;" x="30.6" xlink:href="#m73aba5fce8" y="18.119372"/>
      </g>
     </g>
     <g id="text_7">
      <!-- 9.9 -->
      <g style="fill:#1d1c1c;" transform="translate(7.2 21.706091)scale(0.1 -0.1)">
       <use xlink:href="#Helvetica-57"/>
       <use x="55.615234" xlink:href="#Helvetica-46"/>
       <use x="83.398438" xlink:href="#Helvetica-57"/>
      </g>
     </g>
    </g>
   </g>
  </g>
 </g>
 <defs>
  <clipPath id="pbfbd07d756">
   <rect height="108.72" width="83.7" x="30.6" y="7.2"/>
  </clipPath>
 </defs>
</svg>
