<?xml version="1.0" encoding="utf-8" standalone="no"?>
<!DOCTYPE svg PUBLIC "-//W3C//DTD SVG 1.1//EN"
  "http://www.w3.org/Graphics/SVG/1.1/DTD/svg11.dtd">
<!-- Created with matplotlib (https://matplotlib.org/) -->
<svg height="60.951625pt" version="1.1" viewBox="0 0 364.100625 60.951625" width="364.100625pt" xmlns="http://www.w3.org/2000/svg" xmlns:xlink="http://www.w3.org/1999/xlink">
 <defs>
  <style type="text/css">
*{stroke-linecap:butt;stroke-linejoin:round;}
  </style>
 </defs>
 <g id="figure_1">
  <g id="patch_1">
   <path d="M 0 60.951625 
L 364.100625 60.951625 
L 364.100625 0 
L 0 0 
z
" style="fill:#ffffff;"/>
  </g>
  <g id="axes_1">
   <g id="legend_1">
    <g id="line2d_1">
     <path d="M 11.2 15.432875 
L 31.2 15.432875 
" style="fill:none;stroke:#fe2c2c;stroke-linecap:round;stroke-opacity:0.3;"/>
    </g>
    <g id="line2d_2">
     <defs>
      <path d="M 0 -1 
L -1 1 
L 1 1 
z
" id="m6865fba2f4" style="stroke:#fe2c2c;stroke-linejoin:miter;stroke-opacity:0.3;"/>
     </defs>
     <g>
      <use style="fill:#fe2c2c;fill-opacity:0.3;stroke:#fe2c2c;stroke-linejoin:miter;stroke-opacity:0.3;" x="21.2" xlink:href="#m6865fba2f4" y="15.432875"/>
     </g>
    </g>
    <g id="text_1">
     <!-- Loose, period 1 -->
     <defs>
      <path d="M 7.625 71.734375 
L 17.328125 71.734375 
L 17.328125 8.546875 
L 53.65625 8.546875 
L 53.65625 0 
L 7.625 0 
z
" id="Helvetica-76"/>
      <path d="M 27.203125 5.671875 
Q 35.9375 5.671875 39.1875 12.28125 
Q 42.4375 18.890625 42.4375 27 
Q 42.4375 34.328125 40.09375 38.921875 
Q 36.375 46.140625 27.296875 46.140625 
Q 19.234375 46.140625 15.578125 39.984375 
Q 11.921875 33.84375 11.921875 25.140625 
Q 11.921875 16.796875 15.578125 11.234375 
Q 19.234375 5.671875 27.203125 5.671875 
z
M 27.546875 53.8125 
Q 37.640625 53.8125 44.625 47.0625 
Q 51.609375 40.328125 51.609375 27.25 
Q 51.609375 14.59375 45.453125 6.34375 
Q 39.3125 -1.90625 26.375 -1.90625 
Q 15.578125 -1.90625 9.21875 5.390625 
Q 2.875 12.703125 2.875 25 
Q 2.875 38.1875 9.5625 46 
Q 16.265625 53.8125 27.546875 53.8125 
z
M 27.25 53.5625 
z
" id="Helvetica-111"/>
      <path d="M 11.671875 16.40625 
Q 12.0625 12.015625 13.875 9.671875 
Q 17.1875 5.421875 25.390625 5.421875 
Q 30.28125 5.421875 33.984375 7.546875 
Q 37.703125 9.671875 37.703125 14.109375 
Q 37.703125 17.484375 34.71875 19.234375 
Q 32.8125 20.3125 27.203125 21.734375 
L 20.21875 23.484375 
Q 13.53125 25.140625 10.359375 27.203125 
Q 4.6875 30.765625 4.6875 37.0625 
Q 4.6875 44.484375 10.03125 49.0625 
Q 15.375 53.65625 24.421875 53.65625 
Q 36.234375 53.65625 41.453125 46.734375 
Q 44.734375 42.328125 44.625 37.25 
L 36.328125 37.25 
Q 36.078125 40.234375 34.234375 42.671875 
Q 31.203125 46.140625 23.734375 46.140625 
Q 18.75 46.140625 16.1875 44.234375 
Q 13.625 42.328125 13.625 39.203125 
Q 13.625 35.796875 17 33.734375 
Q 18.953125 32.515625 22.75 31.59375 
L 28.5625 30.171875 
Q 38.03125 27.875 41.265625 25.734375 
Q 46.390625 22.359375 46.390625 15.140625 
Q 46.390625 8.15625 41.09375 3.078125 
Q 35.796875 -2 24.953125 -2 
Q 13.28125 -2 8.421875 3.296875 
Q 3.5625 8.59375 3.21875 16.40625 
z
M 24.65625 53.5625 
z
" id="Helvetica-115"/>
      <path d="M 28.21875 53.46875 
Q 33.796875 53.46875 39.015625 50.859375 
Q 44.234375 48.25 46.96875 44.09375 
Q 49.609375 40.140625 50.484375 34.859375 
Q 51.265625 31.25 51.265625 23.34375 
L 12.9375 23.34375 
Q 13.1875 15.375 16.703125 10.5625 
Q 20.21875 5.765625 27.59375 5.765625 
Q 34.46875 5.765625 38.578125 10.296875 
Q 40.921875 12.9375 41.890625 16.40625 
L 50.53125 16.40625 
Q 50.203125 13.53125 48.265625 9.984375 
Q 46.34375 6.453125 43.953125 4.203125 
Q 39.9375 0.296875 34.03125 -1.078125 
Q 30.859375 -1.859375 26.859375 -1.859375 
Q 17.09375 -1.859375 10.296875 5.25 
Q 3.515625 12.359375 3.515625 25.140625 
Q 3.515625 37.75 10.34375 45.609375 
Q 17.1875 53.46875 28.21875 53.46875 
z
M 42.234375 30.328125 
Q 41.703125 36.03125 39.75 39.453125 
Q 36.140625 45.796875 27.6875 45.796875 
Q 21.625 45.796875 17.515625 41.421875 
Q 13.421875 37.0625 13.1875 30.328125 
z
M 27.390625 53.5625 
z
" id="Helvetica-101"/>
      <path d="M 8.296875 -10.203125 
Q 11.671875 -9.625 13.03125 -5.46875 
Q 13.765625 -3.265625 13.765625 -1.21875 
Q 13.765625 -0.875 13.734375 -0.609375 
Q 13.71875 -0.34375 13.625 0 
L 8.296875 0 
L 8.296875 10.640625 
L 18.75 10.640625 
L 18.75 0.78125 
Q 18.75 -5.03125 16.40625 -9.421875 
Q 14.0625 -13.8125 8.296875 -14.84375 
z
" id="Helvetica-44"/>
      <path id="Helvetica-32"/>
      <path d="M 28.515625 5.90625 
Q 34.671875 5.90625 38.75 11.0625 
Q 42.828125 16.21875 42.828125 26.46875 
Q 42.828125 32.71875 41.015625 37.203125 
Q 37.59375 45.84375 28.515625 45.84375 
Q 19.390625 45.84375 16.015625 36.71875 
Q 14.203125 31.84375 14.203125 24.3125 
Q 14.203125 18.265625 16.015625 14.015625 
Q 19.4375 5.90625 28.515625 5.90625 
z
M 5.765625 52.046875 
L 14.3125 52.046875 
L 14.3125 45.125 
Q 16.9375 48.6875 20.0625 50.640625 
Q 24.515625 53.5625 30.515625 53.5625 
Q 39.40625 53.5625 45.609375 46.75 
Q 51.8125 39.9375 51.8125 27.296875 
Q 51.8125 10.203125 42.875 2.875 
Q 37.203125 -1.765625 29.6875 -1.765625 
Q 23.78125 -1.765625 19.78125 0.828125 
Q 17.4375 2.296875 14.546875 5.859375 
L 14.546875 -20.84375 
L 5.765625 -20.84375 
z
" id="Helvetica-112"/>
      <path d="M 6.6875 52.296875 
L 15.046875 52.296875 
L 15.046875 43.265625 
Q 16.0625 45.90625 20.0625 49.6875 
Q 24.078125 53.46875 29.296875 53.46875 
Q 29.546875 53.46875 30.125 53.421875 
Q 30.71875 53.375 32.125 53.21875 
L 32.125 43.953125 
Q 31.34375 44.09375 30.6875 44.140625 
Q 30.03125 44.1875 29.25 44.1875 
Q 22.609375 44.1875 19.046875 39.90625 
Q 15.484375 35.640625 15.484375 30.078125 
L 15.484375 0 
L 6.6875 0 
z
" id="Helvetica-114"/>
      <path d="M 6.453125 52.046875 
L 15.375 52.046875 
L 15.375 0 
L 6.453125 0 
z
M 6.453125 71.734375 
L 15.375 71.734375 
L 15.375 61.765625 
L 6.453125 61.765625 
z
" id="Helvetica-105"/>
      <path d="M 12.015625 25.53125 
Q 12.015625 17.140625 15.578125 11.46875 
Q 19.140625 5.8125 27 5.8125 
Q 33.109375 5.8125 37.03125 11.0625 
Q 40.96875 16.3125 40.96875 26.125 
Q 40.96875 36.03125 36.90625 40.796875 
Q 32.859375 45.5625 26.90625 45.5625 
Q 20.265625 45.5625 16.140625 40.484375 
Q 12.015625 35.40625 12.015625 25.53125 
z
M 25.25 53.21875 
Q 31.25 53.21875 35.296875 50.6875 
Q 37.640625 49.21875 40.625 45.5625 
L 40.625 71.96875 
L 49.078125 71.96875 
L 49.078125 0 
L 41.15625 0 
L 41.15625 7.28125 
Q 38.09375 2.4375 33.890625 0.28125 
Q 29.6875 -1.859375 24.265625 -1.859375 
Q 15.53125 -1.859375 9.125 5.484375 
Q 2.734375 12.84375 2.734375 25.046875 
Q 2.734375 36.46875 8.5625 44.84375 
Q 14.40625 53.21875 25.25 53.21875 
z
" id="Helvetica-100"/>
      <path d="M 9.578125 49.515625 
L 9.578125 56.25 
Q 19.09375 57.171875 22.84375 59.34375 
Q 26.609375 61.53125 28.46875 69.625 
L 35.40625 69.625 
L 35.40625 0 
L 26.03125 0 
L 26.03125 49.515625 
z
" id="Helvetica-49"/>
     </defs>
     <g style="fill:#1d1c1c;" transform="translate(39.2 18.932875)scale(0.1 -0.1)">
      <use xlink:href="#Helvetica-76"/>
      <use x="55.615234" xlink:href="#Helvetica-111"/>
      <use x="111.230469" xlink:href="#Helvetica-111"/>
      <use x="166.845703" xlink:href="#Helvetica-115"/>
      <use x="216.845703" xlink:href="#Helvetica-101"/>
      <use x="272.460938" xlink:href="#Helvetica-44"/>
      <use x="300.244141" xlink:href="#Helvetica-32"/>
      <use x="328.027344" xlink:href="#Helvetica-112"/>
      <use x="383.642578" xlink:href="#Helvetica-101"/>
      <use x="439.257812" xlink:href="#Helvetica-114"/>
      <use x="472.558594" xlink:href="#Helvetica-105"/>
      <use x="494.775391" xlink:href="#Helvetica-111"/>
      <use x="550.390625" xlink:href="#Helvetica-100"/>
      <use x="606.005859" xlink:href="#Helvetica-32"/>
      <use x="633.789062" xlink:href="#Helvetica-49"/>
     </g>
    </g>
    <g id="line2d_3">
     <path d="M 11.2 29.714125 
L 31.2 29.714125 
" style="fill:none;stroke:#852cfe;stroke-linecap:round;stroke-opacity:0.3;"/>
    </g>
    <g id="line2d_4">
     <defs>
      <path d="M 0 -1 
L -1 1 
L 1 1 
z
" id="me992841b41" style="stroke:#852cfe;stroke-linejoin:miter;stroke-opacity:0.3;"/>
     </defs>
     <g>
      <use style="fill:#852cfe;fill-opacity:0.3;stroke:#852cfe;stroke-linejoin:miter;stroke-opacity:0.3;" x="21.2" xlink:href="#me992841b41" y="29.714125"/>
     </g>
    </g>
    <g id="text_2">
     <!-- Middle, period 1 -->
     <defs>
      <path d="M 7.375 71.734375 
L 21.296875 71.734375 
L 41.890625 11.078125 
L 62.359375 71.734375 
L 76.125 71.734375 
L 76.125 0 
L 66.890625 0 
L 66.890625 42.328125 
Q 66.890625 44.53125 66.984375 49.609375 
Q 67.09375 54.6875 67.09375 60.5 
L 46.625 0 
L 37.015625 0 
L 16.40625 60.5 
L 16.40625 58.296875 
Q 16.40625 55.671875 16.53125 50.265625 
Q 16.65625 44.875 16.65625 42.328125 
L 16.65625 0 
L 7.375 0 
z
" id="Helvetica-77"/>
      <path d="M 6.6875 71.734375 
L 15.484375 71.734375 
L 15.484375 0 
L 6.6875 0 
z
" id="Helvetica-108"/>
     </defs>
     <g style="fill:#1d1c1c;" transform="translate(39.2 33.214125)scale(0.1 -0.1)">
      <use xlink:href="#Helvetica-77"/>
      <use x="83.300781" xlink:href="#Helvetica-105"/>
      <use x="105.517578" xlink:href="#Helvetica-100"/>
      <use x="161.132812" xlink:href="#Helvetica-100"/>
      <use x="216.748047" xlink:href="#Helvetica-108"/>
      <use x="238.964844" xlink:href="#Helvetica-101"/>
      <use x="294.580078" xlink:href="#Helvetica-44"/>
      <use x="322.363281" xlink:href="#Helvetica-32"/>
      <use x="350.146484" xlink:href="#Helvetica-112"/>
      <use x="405.761719" xlink:href="#Helvetica-101"/>
      <use x="461.376953" xlink:href="#Helvetica-114"/>
      <use x="494.677734" xlink:href="#Helvetica-105"/>
      <use x="516.894531" xlink:href="#Helvetica-111"/>
      <use x="572.509766" xlink:href="#Helvetica-100"/>
      <use x="628.125" xlink:href="#Helvetica-32"/>
      <use x="655.908203" xlink:href="#Helvetica-49"/>
     </g>
    </g>
    <g id="line2d_5">
     <path d="M 11.2 44.16725 
L 31.2 44.16725 
" style="fill:none;stroke:#2cbdfe;stroke-linecap:round;stroke-opacity:0.3;"/>
    </g>
    <g id="line2d_6">
     <defs>
      <path d="M 0 -1 
L -1 1 
L 1 1 
z
" id="mcad45bece6" style="stroke:#2cbdfe;stroke-linejoin:miter;stroke-opacity:0.3;"/>
     </defs>
     <g>
      <use style="fill:#2cbdfe;fill-opacity:0.3;stroke:#2cbdfe;stroke-linejoin:miter;stroke-opacity:0.3;" x="21.2" xlink:href="#mcad45bece6" y="44.16725"/>
     </g>
    </g>
    <g id="text_3">
     <!-- Strict, period 1 -->
     <defs>
      <path d="M 13.96875 23.140625 
Q 14.3125 17.046875 16.84375 13.234375 
Q 21.6875 6.109375 33.890625 6.109375 
Q 39.359375 6.109375 43.84375 7.671875 
Q 52.546875 10.6875 52.546875 18.5 
Q 52.546875 24.359375 48.875 26.859375 
Q 45.171875 29.296875 37.25 31.109375 
L 27.546875 33.296875 
Q 18.015625 35.453125 14.0625 38.03125 
Q 7.234375 42.53125 7.234375 51.46875 
Q 7.234375 61.140625 13.921875 67.328125 
Q 20.609375 73.53125 32.859375 73.53125 
Q 44.140625 73.53125 52.015625 68.078125 
Q 59.90625 62.640625 59.90625 50.6875 
L 50.78125 50.6875 
Q 50.046875 56.453125 47.65625 59.515625 
Q 43.21875 65.140625 32.5625 65.140625 
Q 23.96875 65.140625 20.203125 61.515625 
Q 16.453125 57.90625 16.453125 53.125 
Q 16.453125 47.859375 20.84375 45.40625 
Q 23.734375 43.84375 33.890625 41.5 
L 43.953125 39.203125 
Q 51.21875 37.546875 55.171875 34.671875 
Q 62.015625 29.640625 62.015625 20.0625 
Q 62.015625 8.15625 53.34375 3.03125 
Q 44.671875 -2.09375 33.203125 -2.09375 
Q 19.828125 -2.09375 12.25 4.734375 
Q 4.6875 11.53125 4.828125 23.140625 
z
M 33.59375 73.6875 
z
" id="Helvetica-83"/>
      <path d="M 8.203125 66.890625 
L 17.09375 66.890625 
L 17.09375 52.296875 
L 25.4375 52.296875 
L 25.4375 45.125 
L 17.09375 45.125 
L 17.09375 10.984375 
Q 17.09375 8.25 18.953125 7.328125 
Q 19.96875 6.78125 22.359375 6.78125 
Q 23 6.78125 23.734375 6.8125 
Q 24.46875 6.84375 25.4375 6.9375 
L 25.4375 0 
Q 23.921875 -0.4375 22.28125 -0.625 
Q 20.65625 -0.828125 18.75 -0.828125 
Q 12.59375 -0.828125 10.390625 2.3125 
Q 8.203125 5.46875 8.203125 10.5 
L 8.203125 45.125 
L 1.125 45.125 
L 1.125 52.296875 
L 8.203125 52.296875 
z
" id="Helvetica-116"/>
      <path d="M 26.609375 53.8125 
Q 35.453125 53.8125 40.984375 49.515625 
Q 46.53125 45.21875 47.65625 34.71875 
L 39.109375 34.71875 
Q 38.328125 39.546875 35.546875 42.75 
Q 32.765625 45.953125 26.609375 45.953125 
Q 18.21875 45.953125 14.59375 37.75 
Q 12.25 32.421875 12.25 24.609375 
Q 12.25 16.75 15.5625 11.375 
Q 18.890625 6 26.03125 6 
Q 31.5 6 34.6875 9.34375 
Q 37.890625 12.703125 39.109375 18.5 
L 47.65625 18.5 
Q 46.1875 8.109375 40.328125 3.296875 
Q 34.46875 -1.515625 25.34375 -1.515625 
Q 15.09375 -1.515625 8.984375 5.984375 
Q 2.875 13.484375 2.875 24.703125 
Q 2.875 38.484375 9.5625 46.140625 
Q 16.265625 53.8125 26.609375 53.8125 
z
M 25.25 53.5625 
z
" id="Helvetica-99"/>
     </defs>
     <g style="fill:#1d1c1c;" transform="translate(39.2 47.66725)scale(0.1 -0.1)">
      <use xlink:href="#Helvetica-83"/>
      <use x="66.699219" xlink:href="#Helvetica-116"/>
      <use x="94.482422" xlink:href="#Helvetica-114"/>
      <use x="127.783203" xlink:href="#Helvetica-105"/>
      <use x="150" xlink:href="#Helvetica-99"/>
      <use x="200" xlink:href="#Helvetica-116"/>
      <use x="227.783203" xlink:href="#Helvetica-44"/>
      <use x="255.566406" xlink:href="#Helvetica-32"/>
      <use x="283.349609" xlink:href="#Helvetica-112"/>
      <use x="338.964844" xlink:href="#Helvetica-101"/>
      <use x="394.580078" xlink:href="#Helvetica-114"/>
      <use x="427.880859" xlink:href="#Helvetica-105"/>
      <use x="450.097656" xlink:href="#Helvetica-111"/>
      <use x="505.712891" xlink:href="#Helvetica-100"/>
      <use x="561.328125" xlink:href="#Helvetica-32"/>
      <use x="589.111328" xlink:href="#Helvetica-49"/>
     </g>
    </g>
    <g id="line2d_7">
     <path d="M 130.346875 15.432875 
L 150.346875 15.432875 
" style="fill:none;stroke:#fe2c2c;stroke-linecap:round;stroke-opacity:0.6;stroke-width:2.5;"/>
    </g>
    <g id="line2d_8">
     <defs>
      <path d="M -1.5 1.5 
L 1.5 1.5 
L 1.5 -1.5 
L -1.5 -1.5 
z
" id="m4416703c61" style="stroke:#fe2c2c;stroke-linejoin:miter;stroke-opacity:0.6;"/>
     </defs>
     <g>
      <use style="fill:#fe2c2c;fill-opacity:0.6;stroke:#fe2c2c;stroke-linejoin:miter;stroke-opacity:0.6;" x="140.346875" xlink:href="#m4416703c61" y="15.432875"/>
     </g>
    </g>
    <g id="text_4">
     <!-- Loose, period 2 -->
     <defs>
      <path d="M 3.125 0 
Q 3.609375 9.03125 6.859375 15.71875 
Q 10.109375 22.40625 19.53125 27.875 
L 28.90625 33.296875 
Q 35.203125 36.96875 37.75 39.546875 
Q 41.75 43.609375 41.75 48.828125 
Q 41.75 54.9375 38.078125 58.515625 
Q 34.421875 62.109375 28.328125 62.109375 
Q 19.28125 62.109375 15.828125 55.28125 
Q 13.96875 51.609375 13.765625 45.125 
L 4.828125 45.125 
Q 4.984375 54.25 8.203125 60.015625 
Q 13.921875 70.171875 28.375 70.171875 
Q 40.375 70.171875 45.921875 63.671875 
Q 51.46875 57.171875 51.46875 49.21875 
Q 51.46875 40.828125 45.5625 34.859375 
Q 42.140625 31.390625 33.296875 26.46875 
L 26.609375 22.75 
Q 21.828125 20.125 19.09375 17.71875 
Q 14.203125 13.484375 12.9375 8.296875 
L 51.125 8.296875 
L 51.125 0 
L 3.125 0 
z
" id="Helvetica-50"/>
     </defs>
     <g style="fill:#1d1c1c;" transform="translate(158.346875 18.932875)scale(0.1 -0.1)">
      <use xlink:href="#Helvetica-76"/>
      <use x="55.615234" xlink:href="#Helvetica-111"/>
      <use x="111.230469" xlink:href="#Helvetica-111"/>
      <use x="166.845703" xlink:href="#Helvetica-115"/>
      <use x="216.845703" xlink:href="#Helvetica-101"/>
      <use x="272.460938" xlink:href="#Helvetica-44"/>
      <use x="300.244141" xlink:href="#Helvetica-32"/>
      <use x="328.027344" xlink:href="#Helvetica-112"/>
      <use x="383.642578" xlink:href="#Helvetica-101"/>
      <use x="439.257812" xlink:href="#Helvetica-114"/>
      <use x="472.558594" xlink:href="#Helvetica-105"/>
      <use x="494.775391" xlink:href="#Helvetica-111"/>
      <use x="550.390625" xlink:href="#Helvetica-100"/>
      <use x="606.005859" xlink:href="#Helvetica-32"/>
      <use x="633.789062" xlink:href="#Helvetica-50"/>
     </g>
    </g>
    <g id="line2d_9">
     <path d="M 130.346875 29.714125 
L 150.346875 29.714125 
" style="fill:none;stroke:#852cfe;stroke-linecap:round;stroke-opacity:0.6;stroke-width:2.5;"/>
    </g>
    <g id="line2d_10">
     <defs>
      <path d="M -1.5 1.5 
L 1.5 1.5 
L 1.5 -1.5 
L -1.5 -1.5 
z
" id="mab86122db4" style="stroke:#852cfe;stroke-linejoin:miter;stroke-opacity:0.6;"/>
     </defs>
     <g>
      <use style="fill:#852cfe;fill-opacity:0.6;stroke:#852cfe;stroke-linejoin:miter;stroke-opacity:0.6;" x="140.346875" xlink:href="#mab86122db4" y="29.714125"/>
     </g>
    </g>
    <g id="text_5">
     <!-- Middle, period 2 -->
     <g style="fill:#1d1c1c;" transform="translate(158.346875 33.214125)scale(0.1 -0.1)">
      <use xlink:href="#Helvetica-77"/>
      <use x="83.300781" xlink:href="#Helvetica-105"/>
      <use x="105.517578" xlink:href="#Helvetica-100"/>
      <use x="161.132812" xlink:href="#Helvetica-100"/>
      <use x="216.748047" xlink:href="#Helvetica-108"/>
      <use x="238.964844" xlink:href="#Helvetica-101"/>
      <use x="294.580078" xlink:href="#Helvetica-44"/>
      <use x="322.363281" xlink:href="#Helvetica-32"/>
      <use x="350.146484" xlink:href="#Helvetica-112"/>
      <use x="405.761719" xlink:href="#Helvetica-101"/>
      <use x="461.376953" xlink:href="#Helvetica-114"/>
      <use x="494.677734" xlink:href="#Helvetica-105"/>
      <use x="516.894531" xlink:href="#Helvetica-111"/>
      <use x="572.509766" xlink:href="#Helvetica-100"/>
      <use x="628.125" xlink:href="#Helvetica-32"/>
      <use x="655.908203" xlink:href="#Helvetica-50"/>
     </g>
    </g>
    <g id="line2d_11">
     <path d="M 130.346875 44.16725 
L 150.346875 44.16725 
" style="fill:none;stroke:#2cbdfe;stroke-linecap:round;stroke-opacity:0.6;stroke-width:2.5;"/>
    </g>
    <g id="line2d_12">
     <defs>
      <path d="M -1.5 1.5 
L 1.5 1.5 
L 1.5 -1.5 
L -1.5 -1.5 
z
" id="ma27d407a3d" style="stroke:#2cbdfe;stroke-linejoin:miter;stroke-opacity:0.6;"/>
     </defs>
     <g>
      <use style="fill:#2cbdfe;fill-opacity:0.6;stroke:#2cbdfe;stroke-linejoin:miter;stroke-opacity:0.6;" x="140.346875" xlink:href="#ma27d407a3d" y="44.16725"/>
     </g>
    </g>
    <g id="text_6">
     <!-- Strict, period 2 -->
     <g style="fill:#1d1c1c;" transform="translate(158.346875 47.66725)scale(0.1 -0.1)">
      <use xlink:href="#Helvetica-83"/>
      <use x="66.699219" xlink:href="#Helvetica-116"/>
      <use x="94.482422" xlink:href="#Helvetica-114"/>
      <use x="127.783203" xlink:href="#Helvetica-105"/>
      <use x="150" xlink:href="#Helvetica-99"/>
      <use x="200" xlink:href="#Helvetica-116"/>
      <use x="227.783203" xlink:href="#Helvetica-44"/>
      <use x="255.566406" xlink:href="#Helvetica-32"/>
      <use x="283.349609" xlink:href="#Helvetica-112"/>
      <use x="338.964844" xlink:href="#Helvetica-101"/>
      <use x="394.580078" xlink:href="#Helvetica-114"/>
      <use x="427.880859" xlink:href="#Helvetica-105"/>
      <use x="450.097656" xlink:href="#Helvetica-111"/>
      <use x="505.712891" xlink:href="#Helvetica-100"/>
      <use x="561.328125" xlink:href="#Helvetica-32"/>
      <use x="589.111328" xlink:href="#Helvetica-50"/>
     </g>
    </g>
    <g id="line2d_13">
     <path d="M 249.49375 15.432875 
L 269.49375 15.432875 
" style="fill:none;stroke:#fe2c2c;stroke-linecap:round;stroke-opacity:0.9;stroke-width:4;"/>
    </g>
    <g id="line2d_14">
     <defs>
      <path d="M 0 2 
C 0.530406 2 1.03916 1.789267 1.414214 1.414214 
C 1.789267 1.03916 2 0.530406 2 0 
C 2 -0.530406 1.789267 -1.03916 1.414214 -1.414214 
C 1.03916 -1.789267 0.530406 -2 0 -2 
C -0.530406 -2 -1.03916 -1.789267 -1.414214 -1.414214 
C -1.789267 -1.03916 -2 -0.530406 -2 0 
C -2 0.530406 -1.789267 1.03916 -1.414214 1.414214 
C -1.03916 1.789267 -0.530406 2 0 2 
z
" id="mf61354080d" style="stroke:#fe2c2c;stroke-opacity:0.9;"/>
     </defs>
     <g>
      <use style="fill:#fe2c2c;fill-opacity:0.9;stroke:#fe2c2c;stroke-opacity:0.9;" x="259.49375" xlink:href="#mf61354080d" y="15.432875"/>
     </g>
    </g>
    <g id="text_7">
     <!-- Loose, period 3 -->
     <defs>
      <path d="M 25.984375 -1.90625 
Q 13.578125 -1.90625 7.984375 4.90625 
Q 2.390625 11.71875 2.390625 21.484375 
L 11.578125 21.484375 
Q 12.15625 14.703125 14.109375 11.625 
Q 17.53125 6.109375 26.46875 6.109375 
Q 33.40625 6.109375 37.59375 9.8125 
Q 41.796875 13.53125 41.796875 19.390625 
Q 41.796875 26.609375 37.375 29.484375 
Q 32.953125 32.375 25.09375 32.375 
Q 24.21875 32.375 23.3125 32.34375 
Q 22.40625 32.328125 21.484375 32.28125 
L 21.484375 40.046875 
Q 22.859375 39.890625 23.78125 39.84375 
Q 24.703125 39.796875 25.78125 39.796875 
Q 30.71875 39.796875 33.890625 41.359375 
Q 39.453125 44.09375 39.453125 51.125 
Q 39.453125 56.34375 35.734375 59.171875 
Q 32.03125 62.015625 27.09375 62.015625 
Q 18.3125 62.015625 14.9375 56.15625 
Q 13.09375 52.9375 12.84375 46.96875 
L 4.15625 46.96875 
Q 4.15625 54.78125 7.28125 60.25 
Q 12.640625 70.015625 26.171875 70.015625 
Q 36.859375 70.015625 42.71875 65.25 
Q 48.578125 60.5 48.578125 51.46875 
Q 48.578125 45.015625 45.125 41.015625 
Q 42.96875 38.53125 39.546875 37.109375 
Q 45.0625 35.59375 48.15625 31.265625 
Q 51.265625 26.953125 51.265625 20.703125 
Q 51.265625 10.6875 44.671875 4.390625 
Q 38.09375 -1.90625 25.984375 -1.90625 
z
" id="Helvetica-51"/>
     </defs>
     <g style="fill:#1d1c1c;" transform="translate(277.49375 18.932875)scale(0.1 -0.1)">
      <use xlink:href="#Helvetica-76"/>
      <use x="55.615234" xlink:href="#Helvetica-111"/>
      <use x="111.230469" xlink:href="#Helvetica-111"/>
      <use x="166.845703" xlink:href="#Helvetica-115"/>
      <use x="216.845703" xlink:href="#Helvetica-101"/>
      <use x="272.460938" xlink:href="#Helvetica-44"/>
      <use x="300.244141" xlink:href="#Helvetica-32"/>
      <use x="328.027344" xlink:href="#Helvetica-112"/>
      <use x="383.642578" xlink:href="#Helvetica-101"/>
      <use x="439.257812" xlink:href="#Helvetica-114"/>
      <use x="472.558594" xlink:href="#Helvetica-105"/>
      <use x="494.775391" xlink:href="#Helvetica-111"/>
      <use x="550.390625" xlink:href="#Helvetica-100"/>
      <use x="606.005859" xlink:href="#Helvetica-32"/>
      <use x="633.789062" xlink:href="#Helvetica-51"/>
     </g>
    </g>
    <g id="line2d_15">
     <path d="M 249.49375 29.714125 
L 269.49375 29.714125 
" style="fill:none;stroke:#852cfe;stroke-linecap:round;stroke-opacity:0.9;stroke-width:4;"/>
    </g>
    <g id="line2d_16">
     <defs>
      <path d="M 0 2 
C 0.530406 2 1.03916 1.789267 1.414214 1.414214 
C 1.789267 1.03916 2 0.530406 2 0 
C 2 -0.530406 1.789267 -1.03916 1.414214 -1.414214 
C 1.03916 -1.789267 0.530406 -2 0 -2 
C -0.530406 -2 -1.03916 -1.789267 -1.414214 -1.414214 
C -1.789267 -1.03916 -2 -0.530406 -2 0 
C -2 0.530406 -1.789267 1.03916 -1.414214 1.414214 
C -1.03916 1.789267 -0.530406 2 0 2 
z
" id="m58a8665134" style="stroke:#852cfe;stroke-opacity:0.9;"/>
     </defs>
     <g>
      <use style="fill:#852cfe;fill-opacity:0.9;stroke:#852cfe;stroke-opacity:0.9;" x="259.49375" xlink:href="#m58a8665134" y="29.714125"/>
     </g>
    </g>
    <g id="text_8">
     <!-- Middle, period 3 -->
     <g style="fill:#1d1c1c;" transform="translate(277.49375 33.214125)scale(0.1 -0.1)">
      <use xlink:href="#Helvetica-77"/>
      <use x="83.300781" xlink:href="#Helvetica-105"/>
      <use x="105.517578" xlink:href="#Helvetica-100"/>
      <use x="161.132812" xlink:href="#Helvetica-100"/>
      <use x="216.748047" xlink:href="#Helvetica-108"/>
      <use x="238.964844" xlink:href="#Helvetica-101"/>
      <use x="294.580078" xlink:href="#Helvetica-44"/>
      <use x="322.363281" xlink:href="#Helvetica-32"/>
      <use x="350.146484" xlink:href="#Helvetica-112"/>
      <use x="405.761719" xlink:href="#Helvetica-101"/>
      <use x="461.376953" xlink:href="#Helvetica-114"/>
      <use x="494.677734" xlink:href="#Helvetica-105"/>
      <use x="516.894531" xlink:href="#Helvetica-111"/>
      <use x="572.509766" xlink:href="#Helvetica-100"/>
      <use x="628.125" xlink:href="#Helvetica-32"/>
      <use x="655.908203" xlink:href="#Helvetica-51"/>
     </g>
    </g>
    <g id="line2d_17">
     <path d="M 249.49375 44.16725 
L 269.49375 44.16725 
" style="fill:none;stroke:#2cbdfe;stroke-linecap:round;stroke-opacity:0.9;stroke-width:4;"/>
    </g>
    <g id="line2d_18">
     <defs>
      <path d="M 0 2 
C 0.530406 2 1.03916 1.789267 1.414214 1.414214 
C 1.789267 1.03916 2 0.530406 2 0 
C 2 -0.530406 1.789267 -1.03916 1.414214 -1.414214 
C 1.03916 -1.789267 0.530406 -2 0 -2 
C -0.530406 -2 -1.03916 -1.789267 -1.414214 -1.414214 
C -1.789267 -1.03916 -2 -0.530406 -2 0 
C -2 0.530406 -1.789267 1.03916 -1.414214 1.414214 
C -1.03916 1.789267 -0.530406 2 0 2 
z
" id="m4ee05fd93e" style="stroke:#2cbdfe;stroke-opacity:0.9;"/>
     </defs>
     <g>
      <use style="fill:#2cbdfe;fill-opacity:0.9;stroke:#2cbdfe;stroke-opacity:0.9;" x="259.49375" xlink:href="#m4ee05fd93e" y="44.16725"/>
     </g>
    </g>
    <g id="text_9">
     <!-- Strict, period 3 -->
     <g style="fill:#1d1c1c;" transform="translate(277.49375 47.66725)scale(0.1 -0.1)">
      <use xlink:href="#Helvetica-83"/>
      <use x="66.699219" xlink:href="#Helvetica-116"/>
      <use x="94.482422" xlink:href="#Helvetica-114"/>
      <use x="127.783203" xlink:href="#Helvetica-105"/>
      <use x="150" xlink:href="#Helvetica-99"/>
      <use x="200" xlink:href="#Helvetica-116"/>
      <use x="227.783203" xlink:href="#Helvetica-44"/>
      <use x="255.566406" xlink:href="#Helvetica-32"/>
      <use x="283.349609" xlink:href="#Helvetica-112"/>
      <use x="338.964844" xlink:href="#Helvetica-101"/>
      <use x="394.580078" xlink:href="#Helvetica-114"/>
      <use x="427.880859" xlink:href="#Helvetica-105"/>
      <use x="450.097656" xlink:href="#Helvetica-111"/>
      <use x="505.712891" xlink:href="#Helvetica-100"/>
      <use x="561.328125" xlink:href="#Helvetica-32"/>
      <use x="589.111328" xlink:href="#Helvetica-51"/>
     </g>
    </g>
   </g>
  </g>
 </g>
</svg>
