<?xml version="1.0" encoding="utf-8" standalone="no"?>
<!DOCTYPE svg PUBLIC "-//W3C//DTD SVG 1.1//EN"
  "http://www.w3.org/Graphics/SVG/1.1/DTD/svg11.dtd">
<!-- Created with matplotlib (https://matplotlib.org/) -->
<svg height="217.558998pt" version="1.1" viewBox="0 0 291.911638 217.558998" width="291.911638pt" xmlns="http://www.w3.org/2000/svg" xmlns:xlink="http://www.w3.org/1999/xlink">
 <defs>
  <style type="text/css">
*{stroke-linecap:butt;stroke-linejoin:round;}
  </style>
 </defs>
 <g id="figure_1">
  <g id="patch_1">
   <path d="M 0 217.558998 
L 291.911638 217.558998 
L 291.911638 0 
L 0 0 
z
" style="fill:#ffffff;"/>
  </g>
  <g id="axes_1">
   <g id="patch_2">
    <path d="M 43.815 180.194936 
L 284.711638 180.194936 
L 284.711638 35.15475 
L 43.815 35.15475 
z
" style="fill:none;"/>
   </g>
   <g id="line2d_1">
    <path clip-path="url(#p34089529de)" d="M 54.764847 164.93381 
L 79.481038 164.845712 
L 81.780218 164.657564 
L 83.504604 164.394763 
L 84.079399 164.210727 
L 85.228989 163.326724 
L 86.378579 162.102276 
L 86.953374 161.506572 
L 87.528169 160.199977 
L 88.102965 159.246575 
L 88.67776 157.895003 
L 89.82735 152.341999 
L 90.402145 150.81073 
L 90.97694 147.796527 
L 91.551735 142.715529 
L 92.701326 135.034167 
L 93.850916 131.565408 
L 94.425711 128.021749 
L 95.000506 118.417288 
L 95.575301 115.941862 
L 96.724891 108.656754 
L 97.299687 103.406881 
L 97.874482 101.369724 
L 98.449277 100.875986 
L 99.024072 100.808548 
L 99.598867 95.313466 
L 100.173662 92.384088 
L 100.748457 90.466858 
L 101.323252 90.370805 
L 101.898048 87.693169 
L 102.472843 81.139438 
L 103.047638 78.887937 
L 103.622433 68.05741 
L 104.197228 62.983348 
L 104.772023 60.910206 
L 105.346818 57.098317 
L 106.496409 61.094637 
L 107.071204 61.513085 
L 107.645999 66.596729 
L 108.220794 64.942078 
L 108.795589 63.771511 
L 109.370384 64.741755 
L 109.945179 64.482435 
L 110.519974 65.807453 
L 111.09477 62.188215 
L 111.669565 66.708778 
L 112.24436 68.553003 
L 112.819155 69.17562 
L 114.54354 74.643908 
L 115.118335 78.53993 
L 115.693131 81.503588 
L 116.267926 83.675318 
L 116.842721 81.322861 
L 117.417516 83.639776 
L 117.992311 84.18546 
L 118.567106 83.279378 
L 119.141901 84.898078 
L 119.716696 82.22608 
L 120.866287 92.866973 
L 122.015877 92.269119 
L 122.590672 95.449059 
L 123.165467 102.497285 
L 123.740262 106.87344 
L 124.315057 106.474758 
L 124.889853 107.471245 
L 125.464648 110.110068 
L 126.614238 108.011704 
L 127.189033 107.537267 
L 129.488214 118.13814 
L 130.063009 121.89188 
L 130.637804 124.34959 
L 131.212599 125.079574 
L 132.362189 130.971483 
L 133.51178 129.774206 
L 134.66137 132.669827 
L 135.236165 133.429149 
L 135.81096 133.240252 
L 136.385755 134.923215 
L 137.535345 139.143956 
L 138.110141 139.354017 
L 138.684936 139.150898 
L 139.259731 139.226861 
L 139.834526 140.548447 
L 140.409321 132.174523 
L 140.984116 132.858049 
L 142.708502 133.845414 
L 143.283297 135.049686 
L 143.858092 135.294665 
L 144.432887 142.962319 
L 145.007682 142.857235 
L 145.582477 144.514207 
L 146.157272 144.412311 
L 146.732067 145.837077 
L 147.881658 144.815808 
L 148.456453 144.963949 
L 149.031248 144.826959 
L 149.606043 143.258657 
L 150.180838 142.888879 
L 150.755633 142.193874 
L 151.905224 145.499347 
L 153.054814 148.773174 
L 153.629609 148.381819 
L 154.204404 148.607169 
L 154.779199 148.453916 
L 155.353994 148.467898 
L 155.928789 146.991587 
L 156.503585 147.073658 
L 157.07838 146.624568 
L 157.653175 148.240467 
L 158.22797 148.287564 
L 158.802765 148.64787 
L 159.37756 148.41856 
L 159.952355 149.378643 
L 160.52715 147.424753 
L 161.101946 147.259923 
L 161.676741 146.178684 
L 162.826331 145.161196 
L 163.975921 146.086642 
L 164.550716 146.987102 
L 165.125511 147.19274 
L 165.700307 147.574006 
L 166.275102 147.57868 
L 166.849897 148.145905 
L 167.424692 147.008776 
L 167.999487 145.610133 
L 169.149077 147.067353 
L 169.723873 147.690485 
L 170.298668 147.997349 
L 170.873463 148.130587 
L 172.023053 150.012763 
L 172.597848 149.059263 
L 173.172643 147.748974 
L 173.747438 147.918031 
L 174.897029 147.796746 
L 175.471824 146.739132 
L 176.046619 146.092561 
L 176.621414 145.941894 
L 177.196209 146.540052 
L 177.771004 144.538425 
L 178.345799 144.780159 
L 178.920595 143.966199 
L 179.49539 144.371722 
L 180.64498 147.235744 
L 181.219775 147.914779 
L 181.79457 149.454944 
L 182.369365 149.440587 
L 182.94416 150.451655 
L 183.518956 152.419218 
L 184.093751 152.551065 
L 184.668546 151.827226 
L 185.243341 150.59132 
L 186.392931 150.571015 
L 186.967726 150.398231 
L 187.542521 147.274995 
L 188.117317 145.734408 
L 188.692112 145.988 
L 189.266907 146.608092 
L 189.841702 146.897776 
L 190.416497 147.377294 
L 190.991292 147.105098 
L 191.566087 148.645247 
L 192.140882 149.442184 
L 192.715678 150.43977 
L 193.290473 151.006238 
L 193.865268 150.315785 
L 194.440063 150.434009 
L 195.014858 150.720691 
L 195.589653 150.463705 
L 196.164448 151.605145 
L 196.739243 151.522707 
L 197.314039 150.044412 
L 197.888834 150.342094 
L 198.463629 149.739202 
L 199.038424 150.177488 
L 199.613219 151.523632 
L 200.188014 152.082519 
L 200.762809 151.114422 
L 201.337604 151.519353 
L 202.487195 152.659229 
L 203.06199 152.480914 
L 203.636785 152.507673 
L 204.21158 151.683269 
L 204.786375 151.961896 
L 205.36117 152.744631 
L 205.935965 152.796882 
L 206.510761 152.16473 
L 207.085556 151.319027 
L 207.660351 150.128214 
L 208.235146 149.471532 
L 208.809941 149.118882 
L 209.384736 149.348376 
L 209.959531 148.290274 
L 211.109122 149.601914 
L 211.683917 149.428215 
L 213.983097 149.208606 
L 215.132688 148.112629 
L 215.707483 145.534899 
L 216.282278 144.885881 
L 216.857073 144.695894 
L 217.431868 144.791622 
L 218.006663 144.505795 
L 218.581458 145.100005 
L 219.156253 144.754464 
L 219.731049 147.675997 
L 220.305844 147.775546 
L 220.880639 147.746761 
L 221.455434 146.48011 
L 222.030229 146.057787 
L 222.605024 144.482523 
L 223.179819 140.411524 
L 223.754614 138.530196 
L 224.32941 137.571172 
L 224.904205 133.404127 
L 225.479 131.585853 
L 226.053795 130.720276 
L 226.62859 131.370837 
L 227.203385 134.77276 
L 228.352975 131.082988 
L 228.927771 134.042533 
L 229.502566 135.575601 
L 230.077361 136.79066 
L 230.652156 135.972465 
L 231.226951 135.684114 
L 231.801746 134.943863 
L 232.376541 132.210022 
L 232.951336 127.657516 
L 233.526132 124.107575 
L 234.100927 121.505419 
L 235.825312 119.64969 
L 236.400107 118.559714 
L 236.974902 118.707956 
L 237.549697 116.985159 
L 238.699288 114.767734 
L 239.274083 114.541118 
L 239.848878 112.233534 
L 240.423673 111.864985 
L 240.998468 113.203757 
L 241.573263 115.428982 
L 242.148058 112.79476 
L 242.722854 112.421488 
L 243.297649 112.457722 
L 243.872444 111.058881 
L 244.447239 112.008075 
L 245.022034 111.777479 
L 246.171624 120.313638 
L 246.746419 120.861609 
L 247.321215 119.963448 
L 247.89601 119.774158 
L 248.470805 117.801308 
L 249.620395 113.468152 
L 250.19519 111.537036 
L 250.769985 110.816593 
L 251.344781 109.76527 
L 251.919576 109.841803 
L 252.494371 110.221381 
L 253.069166 111.258072 
L 253.643961 106.021171 
L 254.218756 103.367901 
L 254.793551 104.085225 
L 255.368346 105.470426 
L 255.943142 104.197064 
L 256.517937 103.798093 
L 257.092732 103.176326 
L 257.667527 104.640729 
L 258.242322 104.667625 
L 258.817117 103.007099 
L 259.391912 103.230618 
L 259.966707 107.360212 
L 261.116298 103.730634 
L 261.691093 102.589395 
L 262.840683 103.688608 
L 263.415478 102.413707 
L 263.990273 100.220149 
L 264.565068 102.114681 
L 265.139864 103.155952 
L 265.714659 101.827025 
L 266.289454 103.459564 
L 266.864249 104.272804 
L 267.439044 105.302598 
L 268.013839 107.858035 
L 268.588634 108.935093 
L 269.163429 102.952494 
L 269.738225 105.128621 
L 270.31302 103.210396 
L 270.887815 102.966935 
L 271.46261 103.162224 
L 272.037405 102.216291 
L 272.6122 102.791829 
L 273.186995 106.245198 
L 273.76179 87.796177 
L 273.76179 87.796177 
" style="fill:none;stroke:#c90cc6;stroke-linecap:round;stroke-width:1.5;"/>
   </g>
   <g id="line2d_2">
    <path clip-path="url(#p34089529de)" d="M 54.764847 154.51644 
L 83.504604 154.461808 
L 84.079399 154.316008 
L 86.378579 154.221718 
L 88.67776 153.851809 
L 89.82735 153.413285 
L 90.402145 153.296138 
L 91.551735 152.203134 
L 92.12653 152.068589 
L 92.701326 151.424872 
L 94.425711 150.178576 
L 95.000506 150.093161 
L 96.724891 149.443135 
L 97.299687 149.405352 
L 97.874482 149.552137 
L 99.024072 149.121032 
L 100.173662 149.299594 
L 100.748457 149.285599 
L 101.323252 149.084814 
L 102.472843 149.255161 
L 103.047638 149.138336 
L 103.622433 149.162119 
L 104.197228 148.336626 
L 107.071204 148.919031 
L 107.645999 148.885041 
L 108.220794 149.60421 
L 109.370384 149.480352 
L 110.519974 149.188968 
L 111.09477 149.079281 
L 111.669565 148.690231 
L 112.819155 148.537053 
L 113.968745 148.835789 
L 114.54354 148.868615 
L 115.118335 148.254169 
L 115.693131 148.602423 
L 116.267926 148.408859 
L 116.842721 148.345637 
L 117.417516 148.413732 
L 117.992311 148.344824 
L 118.567106 148.132677 
L 119.141901 148.658955 
L 119.716696 147.46622 
L 120.291492 147.606736 
L 121.441082 147.508441 
L 122.015877 147.187524 
L 123.740262 148.66712 
L 124.315057 148.425919 
L 124.889853 148.453578 
L 125.464648 148.227659 
L 126.039443 148.653329 
L 126.614238 148.574162 
L 127.189033 148.054403 
L 127.763828 148.442348 
L 128.913419 147.829921 
L 129.488214 148.104403 
L 130.637804 148.096774 
L 132.936984 149.499732 
L 135.236165 149.977206 
L 135.81096 149.700183 
L 136.385755 149.861542 
L 136.96055 150.379376 
L 137.535345 150.193168 
L 138.110141 150.177074 
L 138.684936 150.010467 
L 139.259731 149.253838 
L 139.834526 149.636291 
L 140.409321 149.723689 
L 140.984116 149.459455 
L 142.133706 149.457078 
L 142.708502 149.72625 
L 143.283297 150.310899 
L 144.432887 150.062789 
L 145.007682 150.12717 
L 145.582477 150.435459 
L 146.157272 150.529574 
L 147.306863 150.50701 
L 147.881658 150.217624 
L 149.031248 150.0792 
L 149.606043 149.690383 
L 150.755633 149.603694 
L 151.330428 149.713351 
L 152.480019 148.94752 
L 153.629609 148.922023 
L 154.779199 148.313643 
L 155.353994 147.853088 
L 155.928789 147.921813 
L 156.503585 148.194224 
L 157.07838 147.9286 
L 157.653175 148.052131 
L 158.22797 148.045015 
L 158.802765 146.941522 
L 159.37756 146.693273 
L 160.52715 145.593601 
L 161.676741 144.979944 
L 162.251536 144.924045 
L 162.826331 146.127497 
L 163.401126 145.771371 
L 163.975921 146.130777 
L 164.550716 145.744636 
L 165.125511 145.792793 
L 165.700307 145.33247 
L 166.275102 145.35965 
L 166.849897 145.104679 
L 167.999487 145.021983 
L 168.574282 145.627508 
L 169.149077 145.610854 
L 170.873463 145.241419 
L 171.448258 145.483747 
L 172.023053 145.481891 
L 172.597848 144.925748 
L 173.172643 144.984508 
L 173.747438 145.28666 
L 174.897029 145.513574 
L 175.471824 145.280393 
L 176.046619 144.666 
L 176.621414 145.066852 
L 177.771004 144.212075 
L 178.920595 143.193133 
L 180.070185 142.395082 
L 180.64498 142.426509 
L 181.219775 142.329834 
L 181.79457 142.443735 
L 182.369365 142.82766 
L 182.94416 143.497608 
L 183.518956 145.032983 
L 184.093751 144.552093 
L 185.243341 143.213717 
L 186.392931 143.49839 
L 186.967726 143.407265 
L 187.542521 141.776938 
L 188.117317 142.169978 
L 189.266907 143.350209 
L 189.841702 142.970822 
L 190.416497 142.89796 
L 190.991292 142.141798 
L 191.566087 142.043001 
L 192.140882 142.293982 
L 192.715678 141.738317 
L 193.290473 140.486388 
L 193.865268 139.745624 
L 194.440063 139.554609 
L 195.589653 139.398454 
L 196.164448 138.756033 
L 196.739243 137.430862 
L 197.314039 136.742626 
L 198.463629 136.317508 
L 199.038424 135.944859 
L 199.613219 136.30657 
L 200.188014 135.336827 
L 200.762809 134.922339 
L 201.337604 134.005021 
L 201.9124 133.593269 
L 202.487195 133.54804 
L 203.06199 132.903436 
L 203.636785 131.429541 
L 204.21158 129.649654 
L 204.786375 128.621093 
L 205.36117 128.985751 
L 206.510761 126.233825 
L 207.085556 126.019172 
L 209.384736 121.633558 
L 209.959531 118.908563 
L 210.534327 118.877833 
L 211.109122 117.665566 
L 211.683917 115.672477 
L 212.258712 116.954876 
L 213.408302 115.063645 
L 213.983097 116.023748 
L 214.557892 114.890604 
L 215.132688 115.056307 
L 215.707483 114.572173 
L 216.282278 112.362263 
L 217.431868 108.85056 
L 218.006663 109.110828 
L 218.581458 109.772269 
L 219.156253 108.561513 
L 219.731049 104.93318 
L 220.305844 103.944292 
L 220.880639 103.587532 
L 221.455434 104.484218 
L 222.030229 100.73463 
L 223.179819 99.039664 
L 223.754614 97.392413 
L 224.32941 94.132839 
L 225.479 84.979279 
L 226.053795 84.078614 
L 226.62859 82.148327 
L 227.203385 81.658986 
L 227.77818 78.248098 
L 228.352975 75.77176 
L 228.927771 80.60606 
L 230.652156 86.918081 
L 231.226951 85.908435 
L 232.376541 78.429213 
L 232.951336 68.348712 
L 234.100927 58.998202 
L 234.675722 57.472218 
L 235.250517 56.325786 
L 235.825312 60.031144 
L 236.400107 61.199897 
L 236.974902 63.687864 
L 237.549697 54.246024 
L 238.124493 52.276769 
L 238.699288 51.647686 
L 239.274083 53.162382 
L 239.848878 51.525766 
L 240.423673 48.831703 
L 240.998468 49.184486 
L 241.573263 60.071271 
L 242.148058 61.326413 
L 242.722854 61.407727 
L 243.297649 62.166034 
L 243.872444 62.709299 
L 245.022034 72.804798 
L 245.596829 82.098435 
L 246.171624 89.140105 
L 246.746419 91.564933 
L 247.321215 89.467771 
L 248.470805 96.091826 
L 249.620395 93.650511 
L 250.19519 91.543198 
L 250.769985 92.613793 
L 251.344781 95.056205 
L 251.919576 94.441364 
L 252.494371 96.135403 
L 253.069166 97.049531 
L 253.643961 91.870211 
L 254.218756 93.077269 
L 254.793551 92.705559 
L 255.368346 95.395726 
L 255.943142 97.412062 
L 256.517937 98.808434 
L 257.092732 100.513786 
L 257.667527 102.913222 
L 258.242322 102.796416 
L 258.817117 103.461886 
L 259.391912 103.931872 
L 259.966707 110.783015 
L 260.541503 110.034913 
L 261.116298 110.564083 
L 261.691093 111.669445 
L 263.415478 110.3829 
L 263.990273 107.328255 
L 264.565068 109.611064 
L 265.139864 112.795221 
L 265.714659 113.425739 
L 266.289454 115.746631 
L 266.864249 115.092834 
L 267.439044 116.539943 
L 268.013839 116.216422 
L 268.588634 117.778326 
L 269.163429 113.60469 
L 269.738225 113.091738 
L 270.31302 113.912351 
L 270.887815 115.977652 
L 271.46261 115.209563 
L 272.037405 118.120443 
L 272.6122 117.076851 
L 273.186995 117.121259 
L 273.76179 113.428387 
L 273.76179 113.428387 
" style="fill:none;stroke:#091091;stroke-linecap:round;stroke-width:1.5;"/>
   </g>
   <g id="line2d_3">
    <path clip-path="url(#p34089529de)" d="M 54.764847 159.474504 
L 81.780218 159.442653 
L 82.929808 159.302703 
L 84.654194 159.064144 
L 85.228989 158.943528 
L 85.803784 158.686709 
L 86.378579 158.727875 
L 88.102965 158.074574 
L 88.67776 157.903978 
L 89.252555 157.320547 
L 89.82735 157.340404 
L 90.97694 156.157052 
L 91.551735 155.79474 
L 92.701326 154.236171 
L 93.276121 154.033935 
L 93.850916 153.474826 
L 94.425711 153.425675 
L 95.000506 152.455061 
L 96.150096 151.234056 
L 96.724891 151.04057 
L 97.299687 150.543473 
L 97.874482 150.650517 
L 98.449277 150.12665 
L 100.173662 149.534325 
L 100.748457 148.599694 
L 101.323252 148.769342 
L 101.898048 148.575575 
L 102.472843 148.508408 
L 103.047638 149.099702 
L 103.622433 148.169288 
L 104.197228 148.247774 
L 105.346818 149.056185 
L 106.496409 149.08864 
L 107.071204 148.683122 
L 107.645999 149.487037 
L 108.220794 149.237455 
L 108.795589 149.353372 
L 109.370384 148.774072 
L 109.945179 149.004233 
L 110.519974 148.976539 
L 111.09477 148.527612 
L 111.669565 148.731062 
L 112.819155 149.438163 
L 115.693131 149.892931 
L 116.267926 149.821809 
L 116.842721 149.027479 
L 117.417516 149.361 
L 117.992311 149.123852 
L 119.141901 149.402901 
L 120.291492 149.387629 
L 120.866287 149.94901 
L 122.015877 149.56029 
L 122.590672 149.631988 
L 123.165467 150.534892 
L 123.740262 150.226378 
L 124.315057 149.67613 
L 124.889853 149.607622 
L 125.464648 149.299526 
L 126.614238 149.221946 
L 127.189033 148.701296 
L 127.763828 148.831647 
L 128.338623 149.37478 
L 128.913419 149.212784 
L 129.488214 149.592432 
L 130.063009 150.224927 
L 130.637804 150.143085 
L 131.787394 148.926485 
L 132.362189 148.911375 
L 133.51178 148.574715 
L 134.086575 148.523899 
L 134.66137 148.631988 
L 135.236165 148.903735 
L 135.81096 149.411238 
L 136.385755 149.508371 
L 136.96055 149.834979 
L 137.535345 149.983736 
L 138.110141 149.854369 
L 138.684936 149.299199 
L 139.834526 148.785766 
L 140.984116 148.831811 
L 141.558911 148.439187 
L 142.133706 148.442443 
L 142.708502 149.160962 
L 143.283297 149.491975 
L 143.858092 149.554295 
L 144.432887 148.668098 
L 145.007682 148.270297 
L 145.582477 149.020161 
L 146.732067 148.532496 
L 147.306863 146.891707 
L 147.881658 146.109941 
L 148.456453 145.948997 
L 149.031248 145.226567 
L 149.606043 143.868991 
L 150.180838 143.333301 
L 150.755633 143.393733 
L 151.330428 143.685355 
L 152.480019 143.164873 
L 153.629609 141.343569 
L 154.204404 141.230121 
L 154.779199 140.699754 
L 155.353994 139.599022 
L 155.928789 137.321147 
L 156.503585 136.687593 
L 157.07838 135.710596 
L 158.22797 133.216463 
L 158.802765 126.644853 
L 161.101946 119.8367 
L 161.676741 119.312667 
L 162.251536 120.280053 
L 162.826331 126.168023 
L 163.401126 125.686349 
L 163.975921 125.844125 
L 164.550716 126.183781 
L 165.125511 127.12711 
L 165.700307 127.254968 
L 166.275102 126.116776 
L 166.849897 125.885016 
L 167.424692 125.409771 
L 168.574282 125.963927 
L 169.149077 126.014264 
L 169.723873 125.416247 
L 170.298668 125.94609 
L 170.873463 126.086199 
L 171.448258 127.385849 
L 172.023053 126.952778 
L 172.597848 126.313596 
L 173.172643 124.560846 
L 173.747438 125.295054 
L 174.322234 125.015875 
L 174.897029 125.179227 
L 175.471824 124.125334 
L 176.621414 124.847813 
L 177.196209 126.436254 
L 177.771004 125.817125 
L 178.345799 126.429165 
L 178.920595 126.29899 
L 179.49539 127.623696 
L 180.070185 127.765485 
L 180.64498 128.991429 
L 181.219775 129.871086 
L 181.79457 131.193398 
L 182.369365 130.426167 
L 182.94416 131.318021 
L 183.518956 135.167393 
L 184.093751 135.655123 
L 184.668546 134.558906 
L 185.243341 132.934939 
L 186.392931 133.536967 
L 186.967726 132.840737 
L 187.542521 126.478876 
L 188.117317 126.05943 
L 188.692112 126.297725 
L 189.266907 127.289181 
L 189.841702 126.773156 
L 190.416497 128.110624 
L 190.991292 127.722865 
L 191.566087 130.199514 
L 192.140882 130.613936 
L 192.715678 130.845882 
L 193.290473 130.666205 
L 193.865268 130.952436 
L 194.440063 130.292131 
L 195.014858 131.095004 
L 195.589653 132.123977 
L 196.164448 133.386179 
L 196.739243 133.761635 
L 197.314039 134.587467 
L 197.888834 134.758854 
L 198.463629 134.643255 
L 199.038424 134.239862 
L 199.613219 135.004929 
L 200.188014 135.399965 
L 200.762809 135.332123 
L 201.337604 134.957735 
L 201.9124 135.688516 
L 202.487195 135.507333 
L 203.636785 137.130172 
L 204.21158 136.763344 
L 204.786375 137.921308 
L 205.36117 138.333757 
L 205.935965 137.171722 
L 206.510761 137.393129 
L 207.085556 136.77503 
L 207.660351 135.630149 
L 208.235146 135.302205 
L 208.809941 135.117969 
L 209.384736 135.053862 
L 209.959531 135.148218 
L 210.534327 135.594136 
L 211.109122 135.897844 
L 212.258712 136.344027 
L 212.833507 136.073949 
L 213.408302 136.560098 
L 213.983097 136.784086 
L 214.557892 136.868156 
L 215.132688 136.423168 
L 215.707483 130.299759 
L 216.282278 130.489673 
L 217.431868 129.815686 
L 218.006663 130.493739 
L 218.581458 129.934834 
L 219.156253 129.734272 
L 219.731049 134.960903 
L 220.305844 134.038307 
L 220.880639 134.065117 
L 221.455434 134.806022 
L 222.030229 134.056059 
L 222.605024 134.013063 
L 223.179819 133.144229 
L 223.754614 132.948053 
L 224.904205 131.3673 
L 225.479 128.851199 
L 226.053795 128.697941 
L 226.62859 127.908609 
L 227.203385 128.650189 
L 227.77818 127.151276 
L 228.352975 126.356258 
L 228.927771 127.92357 
L 229.502566 129.952715 
L 230.077361 130.550781 
L 230.652156 130.544392 
L 231.226951 130.048981 
L 232.376541 128.284999 
L 233.526132 120.771358 
L 234.100927 118.385297 
L 234.675722 117.404685 
L 235.250517 116.162698 
L 235.825312 116.526047 
L 236.400107 116.409322 
L 236.974902 115.859117 
L 237.549697 114.446766 
L 238.699288 113.10707 
L 239.274083 113.385172 
L 239.848878 111.630877 
L 240.998468 104.479792 
L 242.148058 102.594425 
L 242.722854 101.426126 
L 243.297649 100.619381 
L 243.872444 98.305867 
L 244.447239 98.053048 
L 245.022034 100.423417 
L 245.596829 106.936966 
L 246.171624 108.944188 
L 246.746419 110.406404 
L 247.321215 108.741789 
L 247.89601 106.160715 
L 248.470805 104.692662 
L 249.0456 102.206679 
L 249.620395 97.451115 
L 250.19519 94.013224 
L 250.769985 93.564437 
L 251.344781 92.437985 
L 251.919576 89.368901 
L 252.494371 87.633407 
L 253.069166 82.625357 
L 253.643961 73.938559 
L 254.218756 70.704272 
L 254.793551 68.214104 
L 255.368346 69.955348 
L 255.943142 67.210886 
L 256.517937 60.912889 
L 257.092732 59.317309 
L 257.667527 59.22472 
L 258.817117 57.142648 
L 259.391912 57.124655 
L 259.966707 63.829145 
L 260.541503 64.775293 
L 261.116298 63.70334 
L 261.691093 64.512571 
L 262.265888 62.684996 
L 262.840683 62.791108 
L 263.415478 61.045721 
L 263.990273 55.409471 
L 264.565068 55.911653 
L 265.714659 57.399361 
L 266.289454 61.342679 
L 266.864249 58.808694 
L 267.439044 57.337693 
L 268.013839 58.60841 
L 268.588634 58.674131 
L 269.163429 54.486565 
L 269.738225 51.71079 
L 270.31302 49.640216 
L 270.887815 54.989976 
L 271.46261 57.259231 
L 272.6122 63.422958 
L 273.186995 69.863646 
L 273.76179 67.907919 
L 273.76179 67.907919 
" style="fill:none;stroke:#fdc086;stroke-linecap:round;stroke-width:1.5;"/>
   </g>
   <g id="matplotlib.axis_1">
    <g id="xtick_1">
     <g id="text_1">
      <!-- 2/1 -->
      <defs>
       <path d="M 3.125 0 
Q 3.609375 9.03125 6.859375 15.71875 
Q 10.109375 22.40625 19.53125 27.875 
L 28.90625 33.296875 
Q 35.203125 36.96875 37.75 39.546875 
Q 41.75 43.609375 41.75 48.828125 
Q 41.75 54.9375 38.078125 58.515625 
Q 34.421875 62.109375 28.328125 62.109375 
Q 19.28125 62.109375 15.828125 55.28125 
Q 13.96875 51.609375 13.765625 45.125 
L 4.828125 45.125 
Q 4.984375 54.25 8.203125 60.015625 
Q 13.921875 70.171875 28.375 70.171875 
Q 40.375 70.171875 45.921875 63.671875 
Q 51.46875 57.171875 51.46875 49.21875 
Q 51.46875 40.828125 45.5625 34.859375 
Q 42.140625 31.390625 33.296875 26.46875 
L 26.609375 22.75 
Q 21.828125 20.125 19.09375 17.71875 
Q 14.203125 13.484375 12.9375 8.296875 
L 51.125 8.296875 
L 51.125 0 
L 3.125 0 
z
" id="Helvetica-50"/>
       <path d="M 22.75 71.734375 
L 30.171875 71.734375 
L 7.421875 0 
L 0 0 
z
" id="Helvetica-47"/>
       <path d="M 9.578125 49.515625 
L 9.578125 56.25 
Q 19.09375 57.171875 22.84375 59.34375 
Q 26.609375 61.53125 28.46875 69.625 
L 35.40625 69.625 
L 35.40625 0 
L 26.03125 0 
L 26.03125 49.515625 
z
" id="Helvetica-49"/>
      </defs>
      <g style="fill:#1d1c1c;" transform="translate(51.504028 195.433686)scale(0.08 -0.08)">
       <use xlink:href="#Helvetica-50"/>
       <use x="55.615234" xlink:href="#Helvetica-47"/>
       <use x="83.398438" xlink:href="#Helvetica-49"/>
      </g>
     </g>
    </g>
    <g id="xtick_2">
     <g id="text_2">
      <!-- 3/1 -->
      <defs>
       <path d="M 25.984375 -1.90625 
Q 13.578125 -1.90625 7.984375 4.90625 
Q 2.390625 11.71875 2.390625 21.484375 
L 11.578125 21.484375 
Q 12.15625 14.703125 14.109375 11.625 
Q 17.53125 6.109375 26.46875 6.109375 
Q 33.40625 6.109375 37.59375 9.8125 
Q 41.796875 13.53125 41.796875 19.390625 
Q 41.796875 26.609375 37.375 29.484375 
Q 32.953125 32.375 25.09375 32.375 
Q 24.21875 32.375 23.3125 32.34375 
Q 22.40625 32.328125 21.484375 32.28125 
L 21.484375 40.046875 
Q 22.859375 39.890625 23.78125 39.84375 
Q 24.703125 39.796875 25.78125 39.796875 
Q 30.71875 39.796875 33.890625 41.359375 
Q 39.453125 44.09375 39.453125 51.125 
Q 39.453125 56.34375 35.734375 59.171875 
Q 32.03125 62.015625 27.09375 62.015625 
Q 18.3125 62.015625 14.9375 56.15625 
Q 13.09375 52.9375 12.84375 46.96875 
L 4.15625 46.96875 
Q 4.15625 54.78125 7.28125 60.25 
Q 12.640625 70.015625 26.171875 70.015625 
Q 36.859375 70.015625 42.71875 65.25 
Q 48.578125 60.5 48.578125 51.46875 
Q 48.578125 45.015625 45.125 41.015625 
Q 42.96875 38.53125 39.546875 37.109375 
Q 45.0625 35.59375 48.15625 31.265625 
Q 51.265625 26.953125 51.265625 20.703125 
Q 51.265625 10.6875 44.671875 4.390625 
Q 38.09375 -1.90625 25.984375 -1.90625 
z
" id="Helvetica-51"/>
      </defs>
      <g style="fill:#1d1c1c;" transform="translate(68.173086 195.433686)scale(0.08 -0.08)">
       <use xlink:href="#Helvetica-51"/>
       <use x="55.615234" xlink:href="#Helvetica-47"/>
       <use x="83.398438" xlink:href="#Helvetica-49"/>
      </g>
     </g>
    </g>
    <g id="xtick_3">
     <g id="text_3">
      <!-- 4/1 -->
      <defs>
       <path d="M 33.0625 24.75 
L 33.0625 56.453125 
L 10.640625 24.75 
z
M 33.203125 0 
L 33.203125 17.09375 
L 2.546875 17.09375 
L 2.546875 25.6875 
L 34.578125 70.125 
L 42 70.125 
L 42 24.75 
L 52.296875 24.75 
L 52.296875 17.09375 
L 42 17.09375 
L 42 0 
z
" id="Helvetica-52"/>
      </defs>
      <g style="fill:#1d1c1c;" transform="translate(85.991735 195.433686)scale(0.08 -0.08)">
       <use xlink:href="#Helvetica-52"/>
       <use x="55.615234" xlink:href="#Helvetica-47"/>
       <use x="83.398438" xlink:href="#Helvetica-49"/>
      </g>
     </g>
    </g>
    <g id="xtick_4">
     <g id="text_4">
      <!-- 5/1 -->
      <defs>
       <path d="M 12.359375 17.828125 
Q 13.234375 10.296875 19.34375 7.421875 
Q 22.46875 5.953125 26.5625 5.953125 
Q 34.375 5.953125 38.125 10.9375 
Q 41.890625 15.921875 41.890625 21.96875 
Q 41.890625 29.296875 37.421875 33.296875 
Q 32.953125 37.3125 26.703125 37.3125 
Q 22.171875 37.3125 18.921875 35.546875 
Q 15.671875 33.796875 13.375 30.671875 
L 5.765625 31.109375 
L 11.078125 68.75 
L 47.40625 68.75 
L 47.40625 60.25 
L 17.671875 60.25 
L 14.703125 40.828125 
Q 17.140625 42.671875 19.34375 43.609375 
Q 23.25 45.21875 28.375 45.21875 
Q 37.984375 45.21875 44.671875 39.015625 
Q 51.375 32.8125 51.375 23.296875 
Q 51.375 13.375 45.234375 5.796875 
Q 39.109375 -1.765625 25.6875 -1.765625 
Q 17.140625 -1.765625 10.5625 3.046875 
Q 4 7.859375 3.21875 17.828125 
z
" id="Helvetica-53"/>
      </defs>
      <g style="fill:#1d1c1c;" transform="translate(103.235589 195.433686)scale(0.08 -0.08)">
       <use xlink:href="#Helvetica-53"/>
       <use x="55.615234" xlink:href="#Helvetica-47"/>
       <use x="83.398438" xlink:href="#Helvetica-49"/>
      </g>
     </g>
    </g>
    <g id="xtick_5">
     <g id="text_5">
      <!-- 6/1 -->
      <defs>
       <path d="M 29.25 70.21875 
Q 40.96875 70.21875 45.578125 64.140625 
Q 50.203125 58.0625 50.203125 51.609375 
L 41.5 51.609375 
Q 40.71875 55.765625 39.015625 58.109375 
Q 35.84375 62.5 29.390625 62.5 
Q 22.015625 62.5 17.671875 55.6875 
Q 13.328125 48.875 12.84375 36.1875 
Q 15.875 40.625 20.453125 42.828125 
Q 24.65625 44.78125 29.828125 44.78125 
Q 38.625 44.78125 45.15625 39.15625 
Q 51.703125 33.546875 51.703125 22.40625 
Q 51.703125 12.890625 45.5 5.53125 
Q 39.3125 -1.8125 27.828125 -1.8125 
Q 18.015625 -1.8125 10.890625 5.640625 
Q 3.765625 13.09375 3.765625 30.71875 
Q 3.765625 43.75 6.9375 52.828125 
Q 13.03125 70.21875 29.25 70.21875 
z
M 28.609375 6 
Q 35.546875 6 38.984375 10.65625 
Q 42.4375 15.328125 42.4375 21.6875 
Q 42.4375 27.046875 39.359375 31.90625 
Q 36.28125 36.765625 28.171875 36.765625 
Q 22.515625 36.765625 18.234375 33 
Q 13.96875 29.25 13.96875 21.6875 
Q 13.96875 15.046875 17.84375 10.515625 
Q 21.734375 6 28.609375 6 
z
" id="Helvetica-54"/>
      </defs>
      <g style="fill:#1d1c1c;" transform="translate(121.054238 195.433686)scale(0.08 -0.08)">
       <use xlink:href="#Helvetica-54"/>
       <use x="55.615234" xlink:href="#Helvetica-47"/>
       <use x="83.398438" xlink:href="#Helvetica-49"/>
      </g>
     </g>
    </g>
    <g id="xtick_6">
     <g id="text_6">
      <!-- 7/1 -->
      <defs>
       <path d="M 52.296875 68.75 
L 52.296875 61.078125 
Q 48.921875 57.8125 43.328125 49.703125 
Q 37.75 41.609375 33.453125 32.234375 
Q 29.203125 23.09375 27 15.578125 
Q 25.59375 10.75 23.34375 0 
L 13.625 0 
Q 16.9375 20.015625 28.265625 39.84375 
Q 34.96875 51.46875 42.328125 59.90625 
L 3.65625 59.90625 
L 3.65625 68.75 
z
" id="Helvetica-55"/>
      </defs>
      <g style="fill:#1d1c1c;" transform="translate(138.298092 195.433686)scale(0.08 -0.08)">
       <use xlink:href="#Helvetica-55"/>
       <use x="55.615234" xlink:href="#Helvetica-47"/>
       <use x="83.398438" xlink:href="#Helvetica-49"/>
      </g>
     </g>
    </g>
    <g id="xtick_7">
     <g id="text_7">
      <!-- 8/1 -->
      <defs>
       <path d="M 27.203125 40.625 
Q 33.015625 40.625 36.28125 43.875 
Q 39.546875 47.125 39.546875 51.609375 
Q 39.546875 55.515625 36.421875 58.78125 
Q 33.296875 62.0625 26.90625 62.0625 
Q 20.5625 62.0625 17.71875 58.78125 
Q 14.890625 55.515625 14.890625 51.125 
Q 14.890625 46.1875 18.546875 43.40625 
Q 22.21875 40.625 27.203125 40.625 
z
M 27.734375 6 
Q 33.84375 6 37.859375 9.296875 
Q 41.890625 12.59375 41.890625 19.140625 
Q 41.890625 25.921875 37.734375 29.4375 
Q 33.59375 32.953125 27.09375 32.953125 
Q 20.796875 32.953125 16.8125 29.359375 
Q 12.84375 25.78125 12.84375 19.4375 
Q 12.84375 13.96875 16.484375 9.984375 
Q 20.125 6 27.734375 6 
z
M 15.234375 37.25 
Q 11.578125 38.8125 9.515625 40.921875 
Q 5.671875 44.828125 5.671875 51.078125 
Q 5.671875 58.890625 11.328125 64.5 
Q 17 70.125 27.390625 70.125 
Q 37.453125 70.125 43.15625 64.8125 
Q 48.875 59.515625 48.875 52.4375 
Q 48.875 45.90625 45.5625 41.84375 
Q 43.703125 39.546875 39.796875 37.359375 
Q 44.140625 35.359375 46.625 32.765625 
Q 51.265625 27.875 51.265625 20.0625 
Q 51.265625 10.84375 45.0625 4.421875 
Q 38.875 -2 27.546875 -2 
Q 17.328125 -2 10.265625 3.53125 
Q 3.21875 9.078125 3.21875 19.625 
Q 3.21875 25.828125 6.25 30.34375 
Q 9.28125 34.859375 15.234375 37.25 
z
" id="Helvetica-56"/>
      </defs>
      <g style="fill:#1d1c1c;" transform="translate(156.116741 195.433686)scale(0.08 -0.08)">
       <use xlink:href="#Helvetica-56"/>
       <use x="55.615234" xlink:href="#Helvetica-47"/>
       <use x="83.398438" xlink:href="#Helvetica-49"/>
      </g>
     </g>
    </g>
    <g id="xtick_8">
     <g id="text_8">
      <!-- 9/1 -->
      <defs>
       <path d="M 13.28125 16.890625 
Q 13.671875 9.625 18.890625 6.84375 
Q 21.578125 5.375 24.953125 5.375 
Q 31.25 5.375 35.6875 10.625 
Q 40.140625 15.875 42 31.9375 
Q 39.0625 27.296875 34.734375 25.40625 
Q 30.421875 23.53125 25.4375 23.53125 
Q 15.328125 23.53125 9.4375 29.828125 
Q 3.5625 36.140625 3.5625 46.046875 
Q 3.5625 55.5625 9.375 62.78125 
Q 15.1875 70.015625 26.515625 70.015625 
Q 41.796875 70.015625 47.609375 56.25 
Q 50.828125 48.6875 50.828125 37.3125 
Q 50.828125 24.46875 46.96875 14.546875 
Q 40.578125 -1.953125 25.296875 -1.953125 
Q 15.046875 -1.953125 9.71875 3.421875 
Q 4.390625 8.796875 4.390625 16.890625 
z
M 26.609375 31.25 
Q 31.84375 31.25 36.15625 34.6875 
Q 40.484375 38.140625 40.484375 46.734375 
Q 40.484375 54.4375 36.59375 58.21875 
Q 32.71875 62.015625 26.703125 62.015625 
Q 20.265625 62.015625 16.484375 57.6875 
Q 12.703125 53.375 12.703125 46.140625 
Q 12.703125 39.3125 16.015625 35.28125 
Q 19.34375 31.25 26.609375 31.25 
z
" id="Helvetica-57"/>
      </defs>
      <g style="fill:#1d1c1c;" transform="translate(173.93539 195.433686)scale(0.08 -0.08)">
       <use xlink:href="#Helvetica-57"/>
       <use x="55.615234" xlink:href="#Helvetica-47"/>
       <use x="83.398438" xlink:href="#Helvetica-49"/>
      </g>
     </g>
    </g>
    <g id="xtick_9">
     <g id="text_9">
      <!-- 10/1 -->
      <defs>
       <path d="M 27.046875 69.921875 
Q 40.625 69.921875 46.6875 58.734375 
Q 51.375 50.09375 51.375 35.0625 
Q 51.375 20.796875 47.125 11.46875 
Q 40.96875 -1.90625 27 -1.90625 
Q 14.40625 -1.90625 8.25 9.03125 
Q 3.125 18.171875 3.125 33.546875 
Q 3.125 45.453125 6.203125 54 
Q 11.96875 69.921875 27.046875 69.921875 
z
M 26.953125 6.109375 
Q 33.796875 6.109375 37.84375 12.15625 
Q 41.890625 18.21875 41.890625 34.71875 
Q 41.890625 46.625 38.953125 54.3125 
Q 36.03125 62.015625 27.59375 62.015625 
Q 19.828125 62.015625 16.234375 54.703125 
Q 12.640625 47.40625 12.640625 33.203125 
Q 12.640625 22.515625 14.9375 16.015625 
Q 18.453125 6.109375 26.953125 6.109375 
z
" id="Helvetica-48"/>
      </defs>
      <g style="fill:#1d1c1c;" transform="translate(188.954868 195.433686)scale(0.08 -0.08)">
       <use xlink:href="#Helvetica-49"/>
       <use x="55.615234" xlink:href="#Helvetica-48"/>
       <use x="111.230469" xlink:href="#Helvetica-47"/>
       <use x="139.013672" xlink:href="#Helvetica-49"/>
      </g>
     </g>
    </g>
    <g id="xtick_10">
     <g id="text_10">
      <!-- 11/1 -->
      <g style="fill:#1d1c1c;" transform="translate(206.773517 195.433686)scale(0.08 -0.08)">
       <use xlink:href="#Helvetica-49"/>
       <use x="55.615234" xlink:href="#Helvetica-49"/>
       <use x="111.230469" xlink:href="#Helvetica-47"/>
       <use x="139.013672" xlink:href="#Helvetica-49"/>
      </g>
     </g>
    </g>
    <g id="xtick_11">
     <g id="text_11">
      <!-- 12/1 -->
      <g style="fill:#1d1c1c;" transform="translate(224.017371 195.433686)scale(0.08 -0.08)">
       <use xlink:href="#Helvetica-49"/>
       <use x="55.615234" xlink:href="#Helvetica-50"/>
       <use x="111.230469" xlink:href="#Helvetica-47"/>
       <use x="139.013672" xlink:href="#Helvetica-49"/>
      </g>
     </g>
    </g>
    <g id="xtick_12">
     <g id="text_12">
      <!-- 1/1 -->
      <g style="fill:#1d1c1c;" transform="translate(244.060395 195.433686)scale(0.08 -0.08)">
       <use xlink:href="#Helvetica-49"/>
       <use x="55.615234" xlink:href="#Helvetica-47"/>
       <use x="83.398438" xlink:href="#Helvetica-49"/>
      </g>
     </g>
    </g>
    <g id="xtick_13">
     <g id="text_13">
      <!-- 2/1 -->
      <g style="fill:#1d1c1c;" transform="translate(261.879044 195.433686)scale(0.08 -0.08)">
       <use xlink:href="#Helvetica-50"/>
       <use x="55.615234" xlink:href="#Helvetica-47"/>
       <use x="83.398438" xlink:href="#Helvetica-49"/>
      </g>
     </g>
    </g>
    <g id="text_14">
     <!-- Date -->
     <defs>
      <path d="M 35.15625 8.296875 
Q 40.09375 8.296875 43.265625 9.328125 
Q 48.921875 11.234375 52.546875 16.65625 
Q 55.421875 21 56.6875 27.78125 
Q 57.421875 31.84375 57.421875 35.296875 
Q 57.421875 48.640625 52.125 56 
Q 46.828125 63.375 35.0625 63.375 
L 17.828125 63.375 
L 17.828125 8.296875 
z
M 8.0625 71.734375 
L 37.109375 71.734375 
Q 51.90625 71.734375 60.0625 61.234375 
Q 67.328125 51.765625 67.328125 36.96875 
Q 67.328125 25.53125 63.03125 16.3125 
Q 55.46875 0 37.015625 0 
L 8.0625 0 
z
" id="Helvetica-68"/>
      <path d="M 13.1875 13.921875 
Q 13.1875 10.109375 15.96875 7.90625 
Q 18.75 5.71875 22.5625 5.71875 
Q 27.203125 5.71875 31.546875 7.859375 
Q 38.875 11.421875 38.875 19.53125 
L 38.875 26.609375 
Q 37.25 25.59375 34.703125 24.90625 
Q 32.171875 24.21875 29.734375 23.921875 
L 24.421875 23.25 
Q 19.625 22.609375 17.234375 21.234375 
Q 13.1875 18.953125 13.1875 13.921875 
z
M 34.46875 31.6875 
Q 37.5 32.078125 38.53125 34.234375 
Q 39.109375 35.40625 39.109375 37.59375 
Q 39.109375 42.09375 35.90625 44.109375 
Q 32.71875 46.140625 26.765625 46.140625 
Q 19.875 46.140625 17 42.4375 
Q 15.375 40.375 14.890625 36.328125 
L 6.6875 36.328125 
Q 6.9375 46 12.96875 49.78125 
Q 19 53.5625 26.953125 53.5625 
Q 36.1875 53.5625 41.9375 50.046875 
Q 47.65625 46.53125 47.65625 39.109375 
L 47.65625 8.984375 
Q 47.65625 7.625 48.21875 6.78125 
Q 48.78125 5.953125 50.59375 5.953125 
Q 51.171875 5.953125 51.90625 6.03125 
Q 52.640625 6.109375 53.46875 6.25 
L 53.46875 -0.25 
Q 51.421875 -0.828125 50.34375 -0.96875 
Q 49.265625 -1.125 47.40625 -1.125 
Q 42.875 -1.125 40.828125 2.09375 
Q 39.75 3.8125 39.3125 6.9375 
Q 36.625 3.421875 31.59375 0.828125 
Q 26.5625 -1.765625 20.515625 -1.765625 
Q 13.234375 -1.765625 8.609375 2.65625 
Q 4 7.078125 4 13.71875 
Q 4 21 8.546875 25 
Q 13.09375 29 20.453125 29.9375 
z
M 27.203125 53.5625 
z
" id="Helvetica-97"/>
      <path d="M 8.203125 66.890625 
L 17.09375 66.890625 
L 17.09375 52.296875 
L 25.4375 52.296875 
L 25.4375 45.125 
L 17.09375 45.125 
L 17.09375 10.984375 
Q 17.09375 8.25 18.953125 7.328125 
Q 19.96875 6.78125 22.359375 6.78125 
Q 23 6.78125 23.734375 6.8125 
Q 24.46875 6.84375 25.4375 6.9375 
L 25.4375 0 
Q 23.921875 -0.4375 22.28125 -0.625 
Q 20.65625 -0.828125 18.75 -0.828125 
Q 12.59375 -0.828125 10.390625 2.3125 
Q 8.203125 5.46875 8.203125 10.5 
L 8.203125 45.125 
L 1.125 45.125 
L 1.125 52.296875 
L 8.203125 52.296875 
z
" id="Helvetica-116"/>
      <path d="M 28.21875 53.46875 
Q 33.796875 53.46875 39.015625 50.859375 
Q 44.234375 48.25 46.96875 44.09375 
Q 49.609375 40.140625 50.484375 34.859375 
Q 51.265625 31.25 51.265625 23.34375 
L 12.9375 23.34375 
Q 13.1875 15.375 16.703125 10.5625 
Q 20.21875 5.765625 27.59375 5.765625 
Q 34.46875 5.765625 38.578125 10.296875 
Q 40.921875 12.9375 41.890625 16.40625 
L 50.53125 16.40625 
Q 50.203125 13.53125 48.265625 9.984375 
Q 46.34375 6.453125 43.953125 4.203125 
Q 39.9375 0.296875 34.03125 -1.078125 
Q 30.859375 -1.859375 26.859375 -1.859375 
Q 17.09375 -1.859375 10.296875 5.25 
Q 3.515625 12.359375 3.515625 25.140625 
Q 3.515625 37.75 10.34375 45.609375 
Q 17.1875 53.46875 28.21875 53.46875 
z
M 42.234375 30.328125 
Q 41.703125 36.03125 39.75 39.453125 
Q 36.140625 45.796875 27.6875 45.796875 
Q 21.625 45.796875 17.515625 41.421875 
Q 13.421875 37.0625 13.1875 30.328125 
z
M 27.390625 53.5625 
z
" id="Helvetica-101"/>
     </defs>
     <g style="fill:#1d1c1c;" transform="translate(153.702381 208.274623)scale(0.1 -0.1)">
      <use xlink:href="#Helvetica-68"/>
      <use x="72.216797" xlink:href="#Helvetica-97"/>
      <use x="127.832031" xlink:href="#Helvetica-116"/>
      <use x="155.615234" xlink:href="#Helvetica-101"/>
     </g>
    </g>
   </g>
   <g id="matplotlib.axis_2">
    <g id="ytick_1">
     <g id="text_15">
      <!-- -1.0 -->
      <defs>
       <path d="M 4.15625 32.375 
L 28.65625 32.375 
L 28.65625 23.34375 
L 4.15625 23.34375 
z
" id="Helvetica-45"/>
       <path d="M 8.546875 10.640625 
L 18.75 10.640625 
L 18.75 0 
L 8.546875 0 
z
" id="Helvetica-46"/>
      </defs>
      <g style="fill:#1d1c1c;" transform="translate(20.53125 183.064311)scale(0.08 -0.08)">
       <use xlink:href="#Helvetica-45"/>
       <use x="33.300781" xlink:href="#Helvetica-49"/>
       <use x="88.916016" xlink:href="#Helvetica-46"/>
       <use x="116.699219" xlink:href="#Helvetica-48"/>
      </g>
     </g>
    </g>
    <g id="ytick_2">
     <g id="text_16">
      <!-- -0.5 -->
      <g style="fill:#1d1c1c;" transform="translate(20.53125 158.890946)scale(0.08 -0.08)">
       <use xlink:href="#Helvetica-45"/>
       <use x="33.300781" xlink:href="#Helvetica-48"/>
       <use x="88.916016" xlink:href="#Helvetica-46"/>
       <use x="116.699219" xlink:href="#Helvetica-53"/>
      </g>
     </g>
    </g>
    <g id="ytick_3">
     <g id="text_17">
      <!-- 0.0 -->
      <g style="fill:#1d1c1c;" transform="translate(23.195 134.717582)scale(0.08 -0.08)">
       <use xlink:href="#Helvetica-48"/>
       <use x="55.615234" xlink:href="#Helvetica-46"/>
       <use x="83.398438" xlink:href="#Helvetica-48"/>
      </g>
     </g>
    </g>
    <g id="ytick_4">
     <g id="text_18">
      <!-- 0.5 -->
      <g style="fill:#1d1c1c;" transform="translate(23.195 110.544218)scale(0.08 -0.08)">
       <use xlink:href="#Helvetica-48"/>
       <use x="55.615234" xlink:href="#Helvetica-46"/>
       <use x="83.398438" xlink:href="#Helvetica-53"/>
      </g>
     </g>
    </g>
    <g id="ytick_5">
     <g id="text_19">
      <!-- 1.0 -->
      <g style="fill:#1d1c1c;" transform="translate(23.195 86.370854)scale(0.08 -0.08)">
       <use xlink:href="#Helvetica-49"/>
       <use x="55.615234" xlink:href="#Helvetica-46"/>
       <use x="83.398438" xlink:href="#Helvetica-48"/>
      </g>
     </g>
    </g>
    <g id="ytick_6">
     <g id="text_20">
      <!-- 1.5 -->
      <g style="fill:#1d1c1c;" transform="translate(23.195 62.197489)scale(0.08 -0.08)">
       <use xlink:href="#Helvetica-49"/>
       <use x="55.615234" xlink:href="#Helvetica-46"/>
       <use x="83.398438" xlink:href="#Helvetica-53"/>
      </g>
     </g>
    </g>
    <g id="ytick_7">
     <g id="text_21">
      <!-- 2.0 -->
      <g style="fill:#1d1c1c;" transform="translate(23.195 38.024125)scale(0.08 -0.08)">
       <use xlink:href="#Helvetica-50"/>
       <use x="55.615234" xlink:href="#Helvetica-46"/>
       <use x="83.398438" xlink:href="#Helvetica-48"/>
      </g>
     </g>
    </g>
    <g id="text_22">
     <!-- Deaths (z-score) -->
     <defs>
      <path d="M 6.453125 71.96875 
L 15.234375 71.96875 
L 15.234375 45.21875 
Q 18.359375 49.171875 20.84375 50.78125 
Q 25.09375 53.5625 31.453125 53.5625 
Q 42.828125 53.5625 46.875 45.609375 
Q 49.078125 41.265625 49.078125 33.546875 
L 49.078125 0 
L 40.046875 0 
L 40.046875 32.953125 
Q 40.046875 38.71875 38.578125 41.40625 
Q 36.1875 45.703125 29.59375 45.703125 
Q 24.125 45.703125 19.671875 41.9375 
Q 15.234375 38.1875 15.234375 27.734375 
L 15.234375 0 
L 6.453125 0 
z
" id="Helvetica-104"/>
      <path d="M 11.671875 16.40625 
Q 12.0625 12.015625 13.875 9.671875 
Q 17.1875 5.421875 25.390625 5.421875 
Q 30.28125 5.421875 33.984375 7.546875 
Q 37.703125 9.671875 37.703125 14.109375 
Q 37.703125 17.484375 34.71875 19.234375 
Q 32.8125 20.3125 27.203125 21.734375 
L 20.21875 23.484375 
Q 13.53125 25.140625 10.359375 27.203125 
Q 4.6875 30.765625 4.6875 37.0625 
Q 4.6875 44.484375 10.03125 49.0625 
Q 15.375 53.65625 24.421875 53.65625 
Q 36.234375 53.65625 41.453125 46.734375 
Q 44.734375 42.328125 44.625 37.25 
L 36.328125 37.25 
Q 36.078125 40.234375 34.234375 42.671875 
Q 31.203125 46.140625 23.734375 46.140625 
Q 18.75 46.140625 16.1875 44.234375 
Q 13.625 42.328125 13.625 39.203125 
Q 13.625 35.796875 17 33.734375 
Q 18.953125 32.515625 22.75 31.59375 
L 28.5625 30.171875 
Q 38.03125 27.875 41.265625 25.734375 
Q 46.390625 22.359375 46.390625 15.140625 
Q 46.390625 8.15625 41.09375 3.078125 
Q 35.796875 -2 24.953125 -2 
Q 13.28125 -2 8.421875 3.296875 
Q 3.5625 8.59375 3.21875 16.40625 
z
M 24.65625 53.5625 
z
" id="Helvetica-115"/>
      <path id="Helvetica-32"/>
      <path d="M 29.59375 72.90625 
Q 21.921875 58.015625 19.625 50.984375 
Q 16.15625 40.28125 16.15625 26.265625 
Q 16.15625 12.109375 20.125 0.390625 
Q 22.5625 -6.84375 29.734375 -20.40625 
L 23.828125 -20.40625 
Q 16.703125 -9.28125 14.984375 -6.203125 
Q 13.28125 -3.125 11.28125 2.15625 
Q 8.546875 9.375 7.46875 17.578125 
Q 6.9375 21.828125 6.9375 25.6875 
Q 6.9375 40.140625 11.46875 51.421875 
Q 14.359375 58.59375 23.484375 72.90625 
z
" id="Helvetica-40"/>
      <path d="M 2.546875 6.9375 
L 33.546875 44.4375 
L 4.828125 44.4375 
L 4.828125 52.296875 
L 45.359375 52.296875 
L 45.359375 45.125 
L 14.546875 7.859375 
L 46.296875 7.859375 
L 46.296875 0 
L 2.546875 0 
z
M 25.140625 53.5625 
z
" id="Helvetica-122"/>
      <path d="M 26.609375 53.8125 
Q 35.453125 53.8125 40.984375 49.515625 
Q 46.53125 45.21875 47.65625 34.71875 
L 39.109375 34.71875 
Q 38.328125 39.546875 35.546875 42.75 
Q 32.765625 45.953125 26.609375 45.953125 
Q 18.21875 45.953125 14.59375 37.75 
Q 12.25 32.421875 12.25 24.609375 
Q 12.25 16.75 15.5625 11.375 
Q 18.890625 6 26.03125 6 
Q 31.5 6 34.6875 9.34375 
Q 37.890625 12.703125 39.109375 18.5 
L 47.65625 18.5 
Q 46.1875 8.109375 40.328125 3.296875 
Q 34.46875 -1.515625 25.34375 -1.515625 
Q 15.09375 -1.515625 8.984375 5.984375 
Q 2.875 13.484375 2.875 24.703125 
Q 2.875 38.484375 9.5625 46.140625 
Q 16.265625 53.8125 26.609375 53.8125 
z
M 25.25 53.5625 
z
" id="Helvetica-99"/>
      <path d="M 27.203125 5.671875 
Q 35.9375 5.671875 39.1875 12.28125 
Q 42.4375 18.890625 42.4375 27 
Q 42.4375 34.328125 40.09375 38.921875 
Q 36.375 46.140625 27.296875 46.140625 
Q 19.234375 46.140625 15.578125 39.984375 
Q 11.921875 33.84375 11.921875 25.140625 
Q 11.921875 16.796875 15.578125 11.234375 
Q 19.234375 5.671875 27.203125 5.671875 
z
M 27.546875 53.8125 
Q 37.640625 53.8125 44.625 47.0625 
Q 51.609375 40.328125 51.609375 27.25 
Q 51.609375 14.59375 45.453125 6.34375 
Q 39.3125 -1.90625 26.375 -1.90625 
Q 15.578125 -1.90625 9.21875 5.390625 
Q 2.875 12.703125 2.875 25 
Q 2.875 38.1875 9.5625 46 
Q 16.265625 53.8125 27.546875 53.8125 
z
M 27.25 53.5625 
z
" id="Helvetica-111"/>
      <path d="M 6.6875 52.296875 
L 15.046875 52.296875 
L 15.046875 43.265625 
Q 16.0625 45.90625 20.0625 49.6875 
Q 24.078125 53.46875 29.296875 53.46875 
Q 29.546875 53.46875 30.125 53.421875 
Q 30.71875 53.375 32.125 53.21875 
L 32.125 43.953125 
Q 31.34375 44.09375 30.6875 44.140625 
Q 30.03125 44.1875 29.25 44.1875 
Q 22.609375 44.1875 19.046875 39.90625 
Q 15.484375 35.640625 15.484375 30.078125 
L 15.484375 0 
L 6.6875 0 
z
" id="Helvetica-114"/>
      <path d="M 3.46875 -20.40625 
Q 11.234375 -5.28125 13.484375 1.65625 
Q 16.890625 12.15625 16.890625 26.265625 
Q 16.890625 40.375 12.9375 52.09375 
Q 10.5 59.328125 3.328125 72.90625 
L 9.234375 72.90625 
Q 16.75 60.890625 18.328125 58.078125 
Q 19.921875 55.28125 21.78125 50.34375 
Q 24.125 44.234375 25.125 38.28125 
Q 26.125 32.328125 26.125 26.8125 
Q 26.125 12.359375 21.53125 1.03125 
Q 18.65625 -6.25 9.578125 -20.40625 
z
" id="Helvetica-41"/>
     </defs>
     <g style="fill:#1d1c1c;" transform="translate(14.446875 144.625624)rotate(-90)scale(0.1 -0.1)">
      <use xlink:href="#Helvetica-68"/>
      <use x="72.216797" xlink:href="#Helvetica-101"/>
      <use x="127.832031" xlink:href="#Helvetica-97"/>
      <use x="183.447266" xlink:href="#Helvetica-116"/>
      <use x="211.230469" xlink:href="#Helvetica-104"/>
      <use x="266.845703" xlink:href="#Helvetica-115"/>
      <use x="316.845703" xlink:href="#Helvetica-32"/>
      <use x="344.628906" xlink:href="#Helvetica-40"/>
      <use x="377.929688" xlink:href="#Helvetica-122"/>
      <use x="427.929688" xlink:href="#Helvetica-45"/>
      <use x="461.230469" xlink:href="#Helvetica-115"/>
      <use x="511.230469" xlink:href="#Helvetica-99"/>
      <use x="561.230469" xlink:href="#Helvetica-111"/>
      <use x="616.845703" xlink:href="#Helvetica-114"/>
      <use x="650.146484" xlink:href="#Helvetica-101"/>
      <use x="705.761719" xlink:href="#Helvetica-41"/>
     </g>
    </g>
   </g>
   <g id="text_23">
    <!-- Representative Cluster -->
    <defs>
     <path d="M 40.96875 38.875 
Q 47.796875 38.875 51.78125 41.609375 
Q 55.765625 44.34375 55.765625 51.46875 
Q 55.765625 59.125 50.203125 61.921875 
Q 47.21875 63.375 42.234375 63.375 
L 18.5 63.375 
L 18.5 38.875 
z
M 8.796875 71.734375 
L 42 71.734375 
Q 50.203125 71.734375 55.515625 69.34375 
Q 65.625 64.75 65.625 52.390625 
Q 65.625 45.953125 62.953125 41.84375 
Q 60.296875 37.75 55.515625 35.25 
Q 59.71875 33.546875 61.84375 30.765625 
Q 63.96875 27.984375 64.203125 21.734375 
L 64.546875 12.109375 
Q 64.703125 8.015625 65.234375 6 
Q 66.109375 2.59375 68.359375 1.609375 
L 68.359375 0 
L 56.453125 0 
Q 55.953125 0.921875 55.65625 2.390625 
Q 55.375 3.859375 55.171875 8.0625 
L 54.59375 20.015625 
Q 54.25 27.046875 49.359375 29.4375 
Q 46.578125 30.765625 40.625 30.765625 
L 18.5 30.765625 
L 18.5 0 
L 8.796875 0 
z
" id="Helvetica-82"/>
     <path d="M 28.515625 5.90625 
Q 34.671875 5.90625 38.75 11.0625 
Q 42.828125 16.21875 42.828125 26.46875 
Q 42.828125 32.71875 41.015625 37.203125 
Q 37.59375 45.84375 28.515625 45.84375 
Q 19.390625 45.84375 16.015625 36.71875 
Q 14.203125 31.84375 14.203125 24.3125 
Q 14.203125 18.265625 16.015625 14.015625 
Q 19.4375 5.90625 28.515625 5.90625 
z
M 5.765625 52.046875 
L 14.3125 52.046875 
L 14.3125 45.125 
Q 16.9375 48.6875 20.0625 50.640625 
Q 24.515625 53.5625 30.515625 53.5625 
Q 39.40625 53.5625 45.609375 46.75 
Q 51.8125 39.9375 51.8125 27.296875 
Q 51.8125 10.203125 42.875 2.875 
Q 37.203125 -1.765625 29.6875 -1.765625 
Q 23.78125 -1.765625 19.78125 0.828125 
Q 17.4375 2.296875 14.546875 5.859375 
L 14.546875 -20.84375 
L 5.765625 -20.84375 
z
" id="Helvetica-112"/>
     <path d="M 6.453125 52.296875 
L 14.796875 52.296875 
L 14.796875 44.875 
Q 18.5 49.46875 22.65625 51.46875 
Q 26.8125 53.46875 31.890625 53.46875 
Q 43.015625 53.46875 46.921875 45.703125 
Q 49.078125 41.453125 49.078125 33.546875 
L 49.078125 0 
L 40.140625 0 
L 40.140625 32.953125 
Q 40.140625 37.75 38.71875 40.671875 
Q 36.375 45.5625 30.21875 45.5625 
Q 27.09375 45.5625 25.09375 44.921875 
Q 21.484375 43.84375 18.75 40.625 
Q 16.546875 38.03125 15.890625 35.265625 
Q 15.234375 32.515625 15.234375 27.390625 
L 15.234375 0 
L 6.453125 0 
z
M 27.09375 53.5625 
z
" id="Helvetica-110"/>
     <path d="M 6.453125 52.046875 
L 15.375 52.046875 
L 15.375 0 
L 6.453125 0 
z
M 6.453125 71.734375 
L 15.375 71.734375 
L 15.375 61.765625 
L 6.453125 61.765625 
z
" id="Helvetica-105"/>
     <path d="M 10.75 52.296875 
L 24.703125 9.71875 
L 39.3125 52.296875 
L 48.921875 52.296875 
L 29.203125 0 
L 19.828125 0 
L 0.53125 52.296875 
z
" id="Helvetica-118"/>
     <path d="M 37.84375 73.6875 
Q 51.46875 73.6875 58.984375 66.5 
Q 66.5 59.328125 67.328125 50.203125 
L 57.859375 50.203125 
Q 56.25 57.125 51.4375 61.171875 
Q 46.625 65.234375 37.9375 65.234375 
Q 27.34375 65.234375 20.828125 57.78125 
Q 14.3125 50.34375 14.3125 34.96875 
Q 14.3125 22.359375 20.1875 14.515625 
Q 26.078125 6.6875 37.75 6.6875 
Q 48.484375 6.6875 54.109375 14.9375 
Q 57.078125 19.28125 58.546875 26.375 
L 68.015625 26.375 
Q 66.75 15.046875 59.625 7.375 
Q 51.078125 -1.859375 36.578125 -1.859375 
Q 24.078125 -1.859375 15.578125 5.71875 
Q 4.390625 15.71875 4.390625 36.625 
Q 4.390625 52.484375 12.796875 62.640625 
Q 21.875 73.6875 37.84375 73.6875 
z
M 35.890625 73.6875 
z
" id="Helvetica-67"/>
     <path d="M 6.6875 71.734375 
L 15.484375 71.734375 
L 15.484375 0 
L 6.6875 0 
z
" id="Helvetica-108"/>
     <path d="M 15.234375 52.296875 
L 15.234375 17.578125 
Q 15.234375 13.578125 16.5 11.03125 
Q 18.84375 6.34375 25.25 6.34375 
Q 34.421875 6.34375 37.75 14.546875 
Q 39.546875 18.953125 39.546875 26.609375 
L 39.546875 52.296875 
L 48.34375 52.296875 
L 48.34375 0 
L 40.046875 0 
L 40.140625 7.71875 
Q 38.421875 4.734375 35.890625 2.6875 
Q 30.859375 -1.421875 23.6875 -1.421875 
Q 12.5 -1.421875 8.453125 6.0625 
Q 6.25 10.0625 6.25 16.75 
L 6.25 52.296875 
z
M 27.296875 53.5625 
z
" id="Helvetica-117"/>
    </defs>
    <g style="fill:#1d1c1c;" transform="translate(103.238631 16.0425)scale(0.12 -0.12)">
     <use xlink:href="#Helvetica-82"/>
     <use x="72.216797" xlink:href="#Helvetica-101"/>
     <use x="127.832031" xlink:href="#Helvetica-112"/>
     <use x="183.447266" xlink:href="#Helvetica-114"/>
     <use x="216.748047" xlink:href="#Helvetica-101"/>
     <use x="272.363281" xlink:href="#Helvetica-115"/>
     <use x="322.363281" xlink:href="#Helvetica-101"/>
     <use x="377.978516" xlink:href="#Helvetica-110"/>
     <use x="433.59375" xlink:href="#Helvetica-116"/>
     <use x="461.376953" xlink:href="#Helvetica-97"/>
     <use x="516.992188" xlink:href="#Helvetica-116"/>
     <use x="544.775391" xlink:href="#Helvetica-105"/>
     <use x="566.992188" xlink:href="#Helvetica-118"/>
     <use x="616.992188" xlink:href="#Helvetica-101"/>
     <use x="672.607422" xlink:href="#Helvetica-32"/>
     <use x="700.390625" xlink:href="#Helvetica-67"/>
     <use x="772.607422" xlink:href="#Helvetica-108"/>
     <use x="794.824219" xlink:href="#Helvetica-117"/>
     <use x="850.439453" xlink:href="#Helvetica-115"/>
     <use x="900.439453" xlink:href="#Helvetica-116"/>
     <use x="928.222656" xlink:href="#Helvetica-101"/>
     <use x="983.837891" xlink:href="#Helvetica-114"/>
    </g>
    <!-- COVID-19 Dynamics (deaths) -->
    <defs>
     <path d="M 38.578125 73.6875 
Q 57.5625 73.6875 66.703125 61.46875 
Q 73.828125 51.953125 73.828125 37.109375 
Q 73.828125 21.046875 65.671875 10.40625 
Q 56.109375 -2.09375 38.375 -2.09375 
Q 21.828125 -2.09375 12.359375 8.84375 
Q 3.90625 19.390625 3.90625 35.5 
Q 3.90625 50.046875 11.140625 60.40625 
Q 20.40625 73.6875 38.578125 73.6875 
z
M 39.546875 6.59375 
Q 52.390625 6.59375 58.125 15.796875 
Q 63.875 25 63.875 36.96875 
Q 63.875 49.609375 57.25 57.328125 
Q 50.640625 65.046875 39.15625 65.046875 
Q 28.03125 65.046875 21 57.390625 
Q 13.96875 49.75 13.96875 34.859375 
Q 13.96875 22.953125 20 14.765625 
Q 26.03125 6.59375 39.546875 6.59375 
z
M 38.875 73.6875 
z
" id="Helvetica-79"/>
     <path d="M 13.28125 71.734375 
L 33.890625 10.640625 
L 54.25 71.734375 
L 65.140625 71.734375 
L 38.96875 0 
L 28.65625 0 
L 2.546875 71.734375 
z
" id="Helvetica-86"/>
     <path d="M 9.8125 71.734375 
L 19.625 71.734375 
L 19.625 0 
L 9.8125 0 
z
" id="Helvetica-73"/>
     <path d="M 39.109375 52.296875 
L 48.828125 52.296875 
Q 46.96875 47.265625 40.578125 29.34375 
Q 35.796875 15.875 32.5625 7.375 
Q 24.953125 -12.640625 21.828125 -17.03125 
Q 18.703125 -21.4375 11.078125 -21.4375 
Q 9.234375 -21.4375 8.234375 -21.28125 
Q 7.234375 -21.140625 5.765625 -20.75 
L 5.765625 -12.75 
Q 8.0625 -13.375 9.078125 -13.515625 
Q 10.109375 -13.671875 10.890625 -13.671875 
Q 13.328125 -13.671875 14.46875 -12.859375 
Q 15.625 -12.0625 16.40625 -10.890625 
Q 16.65625 -10.5 18.15625 -6.875 
Q 19.671875 -3.265625 20.359375 -1.515625 
L 1.03125 52.296875 
L 10.984375 52.296875 
L 25 9.71875 
z
M 24.953125 53.5625 
z
" id="Helvetica-121"/>
     <path d="M 6.453125 52.296875 
L 15.140625 52.296875 
L 15.140625 44.875 
Q 18.265625 48.734375 20.796875 50.484375 
Q 25.140625 53.46875 30.671875 53.46875 
Q 36.921875 53.46875 40.71875 50.390625 
Q 42.875 48.640625 44.625 45.21875 
Q 47.5625 49.421875 51.515625 51.4375 
Q 55.46875 53.46875 60.40625 53.46875 
Q 70.953125 53.46875 74.75 45.84375 
Q 76.8125 41.75 76.8125 34.8125 
L 76.8125 0 
L 67.671875 0 
L 67.671875 36.328125 
Q 67.671875 41.546875 65.0625 43.5 
Q 62.453125 45.453125 58.6875 45.453125 
Q 53.515625 45.453125 49.78125 41.984375 
Q 46.046875 38.53125 46.046875 30.421875 
L 46.046875 0 
L 37.109375 0 
L 37.109375 34.125 
Q 37.109375 39.453125 35.84375 41.890625 
Q 33.84375 45.5625 28.375 45.5625 
Q 23.390625 45.5625 19.3125 41.703125 
Q 15.234375 37.84375 15.234375 27.734375 
L 15.234375 0 
L 6.453125 0 
z
" id="Helvetica-109"/>
     <path d="M 12.015625 25.53125 
Q 12.015625 17.140625 15.578125 11.46875 
Q 19.140625 5.8125 27 5.8125 
Q 33.109375 5.8125 37.03125 11.0625 
Q 40.96875 16.3125 40.96875 26.125 
Q 40.96875 36.03125 36.90625 40.796875 
Q 32.859375 45.5625 26.90625 45.5625 
Q 20.265625 45.5625 16.140625 40.484375 
Q 12.015625 35.40625 12.015625 25.53125 
z
M 25.25 53.21875 
Q 31.25 53.21875 35.296875 50.6875 
Q 37.640625 49.21875 40.625 45.5625 
L 40.625 71.96875 
L 49.078125 71.96875 
L 49.078125 0 
L 41.15625 0 
L 41.15625 7.28125 
Q 38.09375 2.4375 33.890625 0.28125 
Q 29.6875 -1.859375 24.265625 -1.859375 
Q 15.53125 -1.859375 9.125 5.484375 
Q 2.734375 12.84375 2.734375 25.046875 
Q 2.734375 36.46875 8.5625 44.84375 
Q 14.40625 53.21875 25.25 53.21875 
z
" id="Helvetica-100"/>
    </defs>
    <g style="fill:#1d1c1c;" transform="translate(84.910506 29.15475)scale(0.12 -0.12)">
     <use xlink:href="#Helvetica-67"/>
     <use x="72.216797" xlink:href="#Helvetica-79"/>
     <use x="150" xlink:href="#Helvetica-86"/>
     <use x="216.699219" xlink:href="#Helvetica-73"/>
     <use x="244.482422" xlink:href="#Helvetica-68"/>
     <use x="316.699219" xlink:href="#Helvetica-45"/>
     <use x="350" xlink:href="#Helvetica-49"/>
     <use x="405.615234" xlink:href="#Helvetica-57"/>
     <use x="461.230469" xlink:href="#Helvetica-32"/>
     <use x="489.013672" xlink:href="#Helvetica-68"/>
     <use x="561.230469" xlink:href="#Helvetica-121"/>
     <use x="611.230469" xlink:href="#Helvetica-110"/>
     <use x="666.845703" xlink:href="#Helvetica-97"/>
     <use x="722.460938" xlink:href="#Helvetica-109"/>
     <use x="805.761719" xlink:href="#Helvetica-105"/>
     <use x="827.978516" xlink:href="#Helvetica-99"/>
     <use x="877.978516" xlink:href="#Helvetica-115"/>
     <use x="927.978516" xlink:href="#Helvetica-32"/>
     <use x="955.761719" xlink:href="#Helvetica-40"/>
     <use x="989.0625" xlink:href="#Helvetica-100"/>
     <use x="1044.677734" xlink:href="#Helvetica-101"/>
     <use x="1100.292969" xlink:href="#Helvetica-97"/>
     <use x="1155.908203" xlink:href="#Helvetica-116"/>
     <use x="1183.691406" xlink:href="#Helvetica-104"/>
     <use x="1239.306641" xlink:href="#Helvetica-115"/>
     <use x="1289.306641" xlink:href="#Helvetica-41"/>
    </g>
   </g>
  </g>
 </g>
 <defs>
  <clipPath id="p34089529de">
   <rect height="145.040186" width="240.896638" x="43.815" y="35.15475"/>
  </clipPath>
 </defs>
</svg>
