<?xml version="1.0" encoding="utf-8" standalone="no"?>
<!DOCTYPE svg PUBLIC "-//W3C//DTD SVG 1.1//EN"
  "http://www.w3.org/Graphics/SVG/1.1/DTD/svg11.dtd">
<!-- Created with matplotlib (https://matplotlib.org/) -->
<svg height="217.558998pt" version="1.1" viewBox="0 0 291.911638 217.558998" width="291.911638pt" xmlns="http://www.w3.org/2000/svg" xmlns:xlink="http://www.w3.org/1999/xlink">
 <defs>
  <style type="text/css">
*{stroke-linecap:butt;stroke-linejoin:round;}
  </style>
 </defs>
 <g id="figure_1">
  <g id="patch_1">
   <path d="M 0 217.558998 
L 291.911638 217.558998 
L 291.911638 0 
L 0 0 
z
" style="fill:#ffffff;"/>
  </g>
  <g id="axes_1">
   <g id="patch_2">
    <path d="M 43.815 180.194936 
L 284.711638 180.194936 
L 284.711638 35.15475 
L 43.815 35.15475 
z
" style="fill:none;"/>
   </g>
   <g id="line2d_1">
    <path clip-path="url(#p7aee1d854a)" d="M 54.764847 162.744486 
L 80.055833 162.639284 
L 82.929808 162.383517 
L 83.504604 162.247699 
L 85.228989 160.975486 
L 86.378579 159.482258 
L 86.953374 158.582954 
L 87.528169 156.937608 
L 88.102965 155.846874 
L 88.67776 153.185156 
L 89.82735 147.157804 
L 90.402145 144.597781 
L 90.97694 141.246038 
L 91.551735 135.099028 
L 92.12653 130.469878 
L 92.701326 126.775814 
L 93.276121 123.821804 
L 93.850916 121.968106 
L 94.425711 119.534043 
L 95.000506 109.485371 
L 95.575301 106.973934 
L 96.150096 101.321726 
L 97.299687 92.830825 
L 97.874482 90.866238 
L 99.024072 90.621795 
L 99.598867 86.826725 
L 100.173662 86.669715 
L 100.748457 85.230025 
L 101.323252 86.228095 
L 101.898048 83.887644 
L 102.472843 77.13963 
L 103.047638 76.823805 
L 103.622433 67.820746 
L 104.197228 62.74162 
L 104.772023 62.430162 
L 105.346818 59.582764 
L 105.921613 61.742338 
L 106.496409 64.593925 
L 107.071204 65.631609 
L 107.645999 70.650551 
L 108.220794 70.346631 
L 108.795589 69.840885 
L 109.370384 70.573305 
L 109.945179 70.234413 
L 110.519974 70.267843 
L 111.09477 67.054457 
L 112.24436 72.104133 
L 112.819155 72.867869 
L 113.39395 74.218142 
L 114.54354 78.851729 
L 115.118335 81.885792 
L 115.693131 85.940922 
L 116.267926 87.698821 
L 116.842721 84.882526 
L 117.417516 86.908281 
L 117.992311 87.512948 
L 118.567106 86.340678 
L 119.141901 88.526338 
L 119.716696 85.889356 
L 120.866287 95.762124 
L 121.441082 96.143025 
L 122.015877 95.9892 
L 122.590672 99.661727 
L 123.165467 105.615195 
L 123.740262 109.542094 
L 124.315057 108.749808 
L 124.889853 110.427083 
L 125.464648 112.704659 
L 126.614238 110.769363 
L 127.189033 110.534307 
L 129.488214 120.315911 
L 130.063009 123.630641 
L 130.637804 125.853252 
L 131.212599 126.601302 
L 132.362189 131.719065 
L 132.936984 131.512934 
L 133.51178 130.908142 
L 134.66137 133.452916 
L 135.236165 134.006447 
L 135.81096 134.021479 
L 136.385755 134.846873 
L 137.535345 138.537215 
L 138.110141 138.668153 
L 138.684936 138.620748 
L 139.259731 138.69283 
L 139.834526 139.883432 
L 140.409321 132.984466 
L 140.984116 133.589152 
L 142.133706 134.014056 
L 142.708502 134.397206 
L 143.283297 135.384372 
L 143.858092 135.690826 
L 144.432887 141.960682 
L 145.007682 141.81158 
L 145.582477 143.357655 
L 146.157272 143.264569 
L 146.732067 144.576401 
L 147.881658 143.462611 
L 148.456453 143.613656 
L 149.031248 143.534096 
L 149.606043 141.996674 
L 150.180838 141.747951 
L 150.755633 141.067867 
L 151.905224 143.494216 
L 152.480019 145.612275 
L 153.054814 146.107272 
L 153.629609 145.680214 
L 154.204404 145.790952 
L 154.779199 145.4961 
L 155.353994 145.96973 
L 155.928789 144.918401 
L 156.503585 145.020148 
L 157.07838 145.56401 
L 157.653175 147.068146 
L 158.22797 147.016257 
L 158.802765 147.094689 
L 159.37756 146.869149 
L 159.952355 147.663277 
L 160.52715 145.861193 
L 161.101946 145.741381 
L 161.676741 144.870603 
L 162.251536 144.550273 
L 162.826331 144.53922 
L 163.401126 145.057478 
L 163.975921 145.164039 
L 164.550716 145.974843 
L 165.125511 146.198729 
L 165.700307 146.589701 
L 166.275102 146.516181 
L 166.849897 146.897273 
L 167.424692 145.325771 
L 167.999487 144.45911 
L 169.149077 145.724033 
L 169.723873 146.189524 
L 170.298668 145.627287 
L 170.873463 145.865998 
L 171.448258 147.218207 
L 172.023053 147.753098 
L 172.597848 146.882283 
L 173.172643 145.708475 
L 173.747438 145.535748 
L 174.322234 146.387611 
L 174.897029 145.97625 
L 175.471824 145.0591 
L 176.046619 144.525002 
L 176.621414 144.393782 
L 177.196209 144.915805 
L 177.771004 143.558576 
L 178.345799 143.714785 
L 178.920595 143.365799 
L 179.49539 143.776686 
L 180.64498 146.856887 
L 181.219775 147.54555 
L 181.79457 148.827593 
L 182.369365 148.788312 
L 182.94416 149.693105 
L 183.518956 151.377154 
L 184.093751 151.292624 
L 184.668546 150.559294 
L 185.243341 148.867636 
L 185.818136 148.999333 
L 186.967726 148.640647 
L 187.542521 145.90265 
L 188.117317 144.592942 
L 188.692112 144.912469 
L 189.266907 145.972312 
L 189.841702 146.160111 
L 190.416497 146.772318 
L 190.991292 146.458499 
L 191.566087 147.808665 
L 192.715678 149.220481 
L 193.290473 149.858664 
L 193.865268 149.302011 
L 194.440063 149.366546 
L 195.014858 149.693524 
L 195.589653 149.544344 
L 196.164448 150.564741 
L 196.739243 149.961014 
L 197.314039 148.619202 
L 197.888834 148.850349 
L 198.463629 148.339944 
L 199.038424 148.728205 
L 199.613219 149.913281 
L 200.188014 150.518212 
L 200.762809 150.139293 
L 201.337604 150.341969 
L 202.487195 151.470637 
L 203.636785 151.108956 
L 204.21158 150.177927 
L 204.786375 150.515683 
L 205.36117 151.344334 
L 205.935965 151.296706 
L 207.085556 149.988373 
L 207.660351 149.118275 
L 208.235146 148.805937 
L 208.809941 148.229371 
L 209.384736 148.238148 
L 209.959531 147.379053 
L 210.534327 146.990347 
L 211.109122 147.463736 
L 212.258712 147.33267 
L 213.408302 147.610604 
L 213.983097 147.578903 
L 214.557892 148.048765 
L 215.132688 147.600865 
L 215.707483 145.253602 
L 216.282278 144.217137 
L 217.431868 144.204186 
L 218.006663 143.591069 
L 218.581458 144.162524 
L 219.156253 143.832102 
L 219.731049 145.904128 
L 220.305844 146.441508 
L 220.880639 146.402438 
L 221.455434 145.360085 
L 222.030229 145.45955 
L 222.605024 144.015029 
L 223.179819 140.316713 
L 223.754614 139.119686 
L 224.32941 138.319145 
L 224.904205 134.781224 
L 225.479 133.167964 
L 226.053795 132.149765 
L 226.62859 132.734319 
L 227.203385 135.696037 
L 228.352975 132.170479 
L 228.927771 134.728054 
L 230.077361 137.330718 
L 230.652156 136.782864 
L 231.226951 136.631159 
L 231.801746 136.168607 
L 232.376541 133.912766 
L 232.951336 129.871967 
L 233.526132 127.070169 
L 234.100927 124.968498 
L 235.250517 123.652171 
L 235.825312 123.277133 
L 236.400107 122.443556 
L 236.974902 122.7076 
L 237.549697 120.690884 
L 238.124493 119.618457 
L 238.699288 118.96121 
L 239.274083 118.937189 
L 239.848878 116.991407 
L 240.423673 116.674147 
L 240.998468 117.765069 
L 241.573263 120.029998 
L 242.148058 117.540213 
L 243.297649 116.846046 
L 243.872444 115.468702 
L 244.447239 116.149917 
L 245.022034 115.814461 
L 245.596829 119.068703 
L 246.171624 123.459291 
L 246.746419 123.780473 
L 247.321215 123.069187 
L 247.89601 123.15487 
L 248.470805 121.906753 
L 249.620395 118.793245 
L 250.19519 116.675841 
L 250.769985 116.44222 
L 251.344781 115.355806 
L 251.919576 115.206388 
L 252.494371 114.881117 
L 253.069166 115.315113 
L 253.643961 110.644357 
L 254.218756 108.75498 
L 254.793551 108.78469 
L 255.368346 109.935343 
L 255.943142 108.742505 
L 256.517937 109.074901 
L 257.092732 108.57609 
L 257.667527 109.676917 
L 258.242322 109.358325 
L 258.817117 108.066585 
L 259.391912 108.574153 
L 259.966707 111.958575 
L 261.116298 108.570931 
L 261.691093 107.699924 
L 262.840683 108.905075 
L 263.415478 107.709915 
L 263.990273 105.877078 
L 264.565068 107.143829 
L 265.139864 107.971974 
L 265.714659 106.736866 
L 266.289454 107.992449 
L 266.864249 108.506518 
L 267.439044 109.446484 
L 268.013839 111.622779 
L 268.588634 112.481897 
L 269.163429 107.656401 
L 269.738225 109.537057 
L 270.31302 108.0333 
L 270.887815 107.900789 
L 271.46261 108.211939 
L 272.037405 107.437181 
L 272.6122 107.826627 
L 273.186995 110.602958 
L 273.76179 94.19517 
L 273.76179 94.19517 
" style="fill:none;stroke:#c90cc6;stroke-linecap:round;stroke-width:1.5;"/>
   </g>
   <g id="line2d_2">
    <path clip-path="url(#p7aee1d854a)" d="M 54.764847 159.493683 
L 81.780218 159.462027 
L 82.929808 159.32294 
L 84.079399 159.19185 
L 85.228989 158.956921 
L 85.803784 158.701684 
L 86.378579 158.742597 
L 88.67776 157.906549 
L 89.252555 157.320339 
L 89.82735 157.331017 
L 90.97694 156.054907 
L 91.551735 155.694777 
L 92.701326 154.116229 
L 93.276121 153.910609 
L 93.850916 153.341785 
L 94.425711 153.307975 
L 95.000506 152.418708 
L 96.150096 151.245705 
L 96.724891 151.038512 
L 97.299687 150.587382 
L 97.874482 150.715981 
L 98.449277 150.184337 
L 99.598867 149.667094 
L 100.173662 149.673022 
L 100.748457 148.784815 
L 101.323252 148.901456 
L 101.898048 148.693879 
L 102.472843 148.614071 
L 103.047638 149.186719 
L 103.622433 148.192876 
L 104.197228 148.132947 
L 105.346818 148.880605 
L 106.496409 148.875682 
L 107.071204 148.500083 
L 107.645999 149.337418 
L 108.220794 149.111105 
L 108.795589 149.158267 
L 109.370384 148.553811 
L 109.945179 148.785319 
L 110.519974 148.73999 
L 111.09477 148.298728 
L 111.669565 148.517126 
L 112.819155 149.237041 
L 115.118335 149.876073 
L 116.267926 149.754171 
L 116.842721 149.064964 
L 117.417516 149.384382 
L 117.992311 149.152591 
L 119.141901 149.473125 
L 120.291492 149.475552 
L 120.866287 150.025302 
L 122.015877 149.644822 
L 122.590672 149.692912 
L 123.165467 150.613149 
L 123.740262 150.229043 
L 124.315057 149.665877 
L 124.889853 149.548609 
L 125.464648 149.25447 
L 126.614238 149.169846 
L 127.189033 148.640985 
L 127.763828 148.865928 
L 128.338623 149.449179 
L 128.913419 149.288311 
L 129.488214 149.649665 
L 130.063009 150.291665 
L 130.637804 150.190928 
L 131.787394 148.911448 
L 132.362189 148.886809 
L 133.51178 148.539887 
L 134.086575 148.491214 
L 134.66137 148.624981 
L 135.236165 148.916511 
L 135.81096 149.46584 
L 136.385755 149.576985 
L 136.96055 149.883794 
L 137.535345 150.054163 
L 138.110141 149.92949 
L 138.684936 149.353463 
L 139.834526 148.817906 
L 140.984116 148.810781 
L 141.558911 148.437951 
L 142.133706 148.441188 
L 142.708502 149.136109 
L 143.283297 149.489478 
L 143.858092 149.532986 
L 144.432887 148.677198 
L 145.007682 148.282462 
L 145.582477 149.023386 
L 146.732067 148.548736 
L 147.306863 146.833721 
L 147.881658 146.12458 
L 148.456453 145.966721 
L 149.031248 145.294242 
L 149.606043 143.962415 
L 150.180838 143.428076 
L 150.755633 143.463896 
L 151.330428 143.957135 
L 152.480019 143.438331 
L 153.054814 142.819385 
L 153.629609 141.835037 
L 154.204404 141.724235 
L 154.779199 141.230482 
L 155.353994 139.981492 
L 155.928789 137.638882 
L 156.503585 136.980847 
L 158.22797 133.226907 
L 158.802765 126.66571 
L 161.101946 119.806453 
L 161.676741 119.227915 
L 162.251536 120.20335 
L 162.826331 126.033588 
L 163.401126 125.551211 
L 164.550716 126.082161 
L 165.125511 127.007602 
L 165.700307 127.188864 
L 166.275102 126.067241 
L 166.849897 125.876878 
L 167.424692 125.548282 
L 169.149077 126.181731 
L 169.723873 125.620716 
L 170.298668 126.096967 
L 170.873463 126.23184 
L 171.448258 127.444864 
L 172.023053 127.109705 
L 172.597848 126.500474 
L 173.172643 124.743055 
L 173.747438 125.537109 
L 174.322234 125.242967 
L 174.897029 125.398743 
L 175.471824 124.307949 
L 176.621414 124.884836 
L 177.196209 126.468787 
L 177.771004 125.708422 
L 178.345799 126.366416 
L 178.920595 126.200931 
L 179.49539 127.555263 
L 180.070185 127.690844 
L 180.64498 128.872012 
L 181.219775 129.5354 
L 181.79457 130.892205 
L 182.369365 130.113774 
L 182.94416 131.064528 
L 183.518956 134.850107 
L 184.093751 135.374645 
L 185.243341 133.028405 
L 186.392931 133.685522 
L 186.967726 132.971369 
L 187.542521 126.685227 
L 188.117317 126.27462 
L 188.692112 126.468983 
L 189.266907 127.350047 
L 189.841702 126.865203 
L 190.416497 128.146152 
L 190.991292 127.769039 
L 191.566087 129.988435 
L 192.715678 130.71648 
L 193.290473 130.462454 
L 193.865268 130.745668 
L 194.440063 130.0876 
L 195.014858 130.891279 
L 196.164448 133.436683 
L 196.739243 133.891936 
L 197.314039 134.657318 
L 197.888834 134.83523 
L 198.463629 134.693554 
L 199.038424 134.293175 
L 199.613219 135.0522 
L 200.188014 135.43002 
L 201.337604 135.004268 
L 201.9124 135.722549 
L 202.487195 135.557517 
L 203.636785 137.190133 
L 204.21158 136.82389 
L 204.786375 137.966771 
L 205.36117 138.337785 
L 205.935965 137.148986 
L 206.510761 137.380665 
L 207.085556 136.737989 
L 207.660351 135.604517 
L 208.235146 135.268608 
L 208.809941 135.111846 
L 209.384736 135.099222 
L 209.959531 135.24151 
L 211.109122 135.997943 
L 211.683917 136.131532 
L 212.258712 136.398026 
L 212.833507 136.130358 
L 213.408302 136.597895 
L 213.983097 136.80936 
L 214.557892 136.890965 
L 215.132688 136.453672 
L 215.707483 130.288278 
L 216.282278 130.489857 
L 217.431868 129.811507 
L 218.006663 130.476678 
L 218.581458 129.921215 
L 219.156253 129.702775 
L 219.731049 135.043614 
L 220.305844 134.106965 
L 220.880639 134.156645 
L 221.455434 134.863515 
L 222.030229 134.113318 
L 222.605024 134.070587 
L 223.179819 133.225847 
L 223.754614 132.870219 
L 224.904205 131.280531 
L 225.479 128.790524 
L 226.053795 128.640116 
L 226.62859 127.822098 
L 227.203385 128.583756 
L 227.77818 127.177548 
L 228.352975 126.307425 
L 228.927771 127.871212 
L 229.502566 129.847705 
L 230.077361 130.438921 
L 230.652156 130.422591 
L 231.226951 129.931284 
L 231.801746 128.95255 
L 232.376541 128.220133 
L 233.526132 120.672049 
L 234.100927 118.280264 
L 234.675722 117.347098 
L 235.250517 116.07472 
L 235.825312 116.426288 
L 236.400107 116.308502 
L 236.974902 115.763589 
L 237.549697 114.443628 
L 238.699288 113.058942 
L 239.274083 113.281041 
L 239.848878 111.498054 
L 240.998468 104.286211 
L 242.148058 102.383005 
L 242.722854 101.186351 
L 243.297649 100.47843 
L 243.872444 98.229226 
L 244.447239 97.989884 
L 245.022034 100.445203 
L 245.596829 107.011348 
L 246.171624 108.957838 
L 246.746419 110.463703 
L 247.321215 108.663911 
L 247.89601 106.029524 
L 248.470805 104.514322 
L 249.0456 101.867498 
L 249.620395 97.090838 
L 250.19519 93.723528 
L 250.769985 93.266028 
L 251.344781 92.200206 
L 251.919576 89.423448 
L 252.494371 87.736831 
L 253.069166 82.907649 
L 253.643961 74.275159 
L 254.218756 71.021371 
L 254.793551 68.558706 
L 255.368346 70.346283 
L 255.943142 67.396638 
L 256.517937 61.018625 
L 257.092732 59.418789 
L 257.667527 59.104117 
L 258.817117 57.077821 
L 259.391912 57.045061 
L 259.966707 63.76787 
L 260.541503 64.698956 
L 261.116298 63.744752 
L 261.691093 64.652125 
L 262.265888 62.803001 
L 262.840683 62.868327 
L 263.415478 61.117269 
L 263.990273 55.460277 
L 265.139864 56.689842 
L 265.714659 57.538806 
L 266.289454 61.196092 
L 266.864249 58.666491 
L 267.439044 57.227105 
L 268.013839 58.582833 
L 268.588634 58.645942 
L 269.163429 54.310738 
L 269.738225 51.555605 
L 270.31302 49.80146 
L 270.887815 55.14774 
L 271.46261 57.248145 
L 272.6122 63.245109 
L 273.186995 69.808215 
L 273.76179 67.887008 
L 273.76179 67.887008 
" style="fill:none;stroke:#091091;stroke-linecap:round;stroke-width:1.5;"/>
   </g>
   <g id="line2d_3">
    <path clip-path="url(#p7aee1d854a)" d="M 54.764847 154.583229 
L 83.504604 154.527855 
L 84.079399 154.383402 
L 86.378579 154.28973 
L 88.67776 153.898772 
L 89.82735 153.463537 
L 90.402145 153.341195 
L 91.551735 152.198232 
L 92.12653 152.058616 
L 92.701326 151.396048 
L 94.425711 150.21393 
L 95.575301 149.964882 
L 97.299687 149.407917 
L 97.874482 149.544196 
L 99.024072 148.986722 
L 100.173662 149.076189 
L 100.748457 149.095248 
L 101.323252 148.976354 
L 102.472843 149.126972 
L 103.622433 149.045045 
L 104.197228 148.20437 
L 107.645999 148.71422 
L 108.220794 149.398104 
L 108.795589 149.384535 
L 111.09477 148.788357 
L 111.669565 148.318732 
L 112.819155 148.097361 
L 113.968745 148.473079 
L 114.54354 148.530415 
L 115.118335 147.846029 
L 115.693131 148.257499 
L 116.267926 148.10683 
L 117.417516 148.174701 
L 117.992311 148.09722 
L 118.567106 147.844877 
L 119.141901 148.393027 
L 119.716696 147.240383 
L 120.291492 147.358252 
L 120.866287 147.173732 
L 121.441082 147.196327 
L 122.015877 146.863017 
L 123.740262 148.38082 
L 124.315057 148.158279 
L 124.889853 148.239234 
L 125.464648 147.973503 
L 126.039443 148.404728 
L 126.614238 148.287834 
L 127.189033 147.776614 
L 127.763828 148.247865 
L 128.913419 147.721383 
L 129.488214 148.058056 
L 130.637804 148.088653 
L 132.362189 149.252141 
L 135.236165 149.906785 
L 135.81096 149.676495 
L 136.385755 149.827064 
L 136.96055 150.353644 
L 137.535345 150.166962 
L 138.110141 150.161253 
L 138.684936 149.995983 
L 139.259731 149.263885 
L 139.834526 149.651406 
L 140.409321 149.736342 
L 140.984116 149.512384 
L 142.708502 149.754178 
L 143.283297 150.335617 
L 144.432887 150.104371 
L 145.007682 150.169725 
L 145.582477 150.474539 
L 146.157272 150.567784 
L 147.306863 150.430096 
L 147.881658 150.13828 
L 149.031248 149.967849 
L 149.606043 149.581378 
L 150.755633 149.270748 
L 151.330428 149.499207 
L 152.480019 148.731582 
L 153.054814 148.798396 
L 153.629609 148.732972 
L 154.204404 148.464855 
L 154.779199 148.325991 
L 155.353994 147.884128 
L 155.928789 147.952172 
L 156.503585 148.247391 
L 157.07838 147.974164 
L 158.22797 148.098612 
L 158.802765 147.021083 
L 159.37756 146.77513 
L 160.52715 145.681239 
L 161.676741 145.068168 
L 162.251536 144.989346 
L 162.826331 146.169436 
L 163.401126 145.832482 
L 163.975921 146.157017 
L 164.550716 145.779022 
L 165.125511 145.785097 
L 165.700307 145.353124 
L 166.275102 145.400996 
L 166.849897 145.197158 
L 167.999487 145.137339 
L 168.574282 145.718095 
L 169.149077 145.724366 
L 170.873463 145.324955 
L 171.448258 145.583676 
L 172.023053 145.499673 
L 172.597848 144.958234 
L 173.172643 144.98629 
L 173.747438 145.299215 
L 174.897029 145.571668 
L 175.471824 145.34722 
L 176.046619 144.836895 
L 176.621414 145.228971 
L 177.196209 144.895605 
L 180.070185 142.512983 
L 180.64498 142.538355 
L 181.219775 142.443193 
L 181.79457 142.53974 
L 182.369365 142.924693 
L 182.94416 143.577222 
L 183.518956 145.104132 
L 184.093751 144.665554 
L 184.668546 143.803963 
L 185.243341 143.210914 
L 186.392931 143.501031 
L 186.967726 143.403512 
L 187.542521 141.78627 
L 188.117317 142.106821 
L 189.266907 143.400994 
L 189.841702 143.021275 
L 190.416497 142.957198 
L 190.991292 142.206585 
L 191.566087 142.115814 
L 192.140882 142.398168 
L 192.715678 141.873076 
L 193.290473 140.643205 
L 193.865268 139.883628 
L 194.440063 139.691259 
L 195.014858 139.673272 
L 195.589653 139.534661 
L 196.164448 138.924605 
L 196.739243 137.64919 
L 197.314039 136.956693 
L 198.463629 136.540694 
L 199.038424 136.177222 
L 199.613219 136.534303 
L 200.188014 135.584494 
L 200.762809 135.159946 
L 201.337604 134.242669 
L 201.9124 133.858897 
L 202.487195 133.800912 
L 203.06199 133.155404 
L 203.636785 131.687453 
L 204.21158 129.900662 
L 204.786375 128.872182 
L 205.36117 129.230015 
L 206.510761 126.515595 
L 207.085556 126.302873 
L 209.384736 121.791421 
L 209.959531 119.055993 
L 210.534327 119.02878 
L 211.109122 117.811281 
L 211.683917 115.856628 
L 212.258712 117.149929 
L 213.408302 115.185789 
L 213.983097 116.129419 
L 214.557892 115.010494 
L 215.132688 115.170976 
L 215.707483 114.59541 
L 216.282278 112.366436 
L 216.857073 110.857215 
L 217.431868 108.987569 
L 218.006663 109.089151 
L 218.581458 109.717082 
L 219.156253 108.535033 
L 219.731049 105.105448 
L 220.305844 104.141293 
L 220.880639 103.765496 
L 221.455434 104.709204 
L 222.030229 101.117422 
L 223.179819 99.342631 
L 223.754614 97.629095 
L 224.32941 94.281739 
L 225.479 84.897018 
L 226.053795 83.9963 
L 226.62859 82.083109 
L 227.203385 81.609915 
L 227.77818 78.205027 
L 228.352975 75.843681 
L 228.927771 80.701622 
L 230.077361 85.761368 
L 230.652156 87.153747 
L 231.226951 86.121326 
L 232.376541 78.423698 
L 232.951336 68.378354 
L 234.100927 58.911922 
L 235.250517 56.143379 
L 235.825312 59.905008 
L 236.400107 61.104143 
L 236.974902 63.529531 
L 237.549697 54.211719 
L 238.124493 52.365783 
L 238.699288 51.73564 
L 239.274083 53.335022 
L 239.848878 51.712556 
L 240.423673 49.07813 
L 240.998468 49.50054 
L 241.573263 60.300311 
L 242.148058 61.493645 
L 242.722854 61.602 
L 243.297649 62.308587 
L 243.872444 62.824747 
L 245.022034 72.824184 
L 245.596829 82.094469 
L 246.171624 89.097727 
L 246.746419 91.480162 
L 247.321215 89.455193 
L 247.89601 93.029448 
L 248.470805 95.877672 
L 249.620395 93.35785 
L 250.19519 91.286938 
L 250.769985 92.27577 
L 251.344781 94.696138 
L 251.919576 93.897247 
L 252.494371 95.689479 
L 253.069166 96.742211 
L 253.643961 91.456136 
L 254.218756 92.5439 
L 254.793551 92.315242 
L 255.943142 97.133705 
L 256.517937 98.471223 
L 257.092732 100.106726 
L 257.667527 102.667791 
L 258.242322 102.618428 
L 259.391912 103.822596 
L 259.966707 110.67555 
L 260.541503 110.017212 
L 261.116298 110.505018 
L 261.691093 111.598181 
L 263.415478 110.381773 
L 263.990273 107.310457 
L 264.565068 109.546478 
L 265.139864 112.78733 
L 265.714659 113.437283 
L 266.289454 115.769668 
L 266.864249 115.15816 
L 267.439044 116.623251 
L 268.013839 116.265524 
L 268.588634 117.800899 
L 269.163429 113.68713 
L 269.738225 113.172256 
L 270.31302 113.915043 
L 270.887815 115.942529 
L 271.46261 115.183856 
L 272.037405 118.175492 
L 272.6122 117.194899 
L 273.186995 117.17343 
L 273.76179 113.429043 
L 273.76179 113.429043 
" style="fill:none;stroke:#fdc086;stroke-linecap:round;stroke-width:1.5;"/>
   </g>
   <g id="matplotlib.axis_1">
    <g id="xtick_1">
     <g id="text_1">
      <!-- 2/1 -->
      <defs>
       <path d="M 3.125 0 
Q 3.609375 9.03125 6.859375 15.71875 
Q 10.109375 22.40625 19.53125 27.875 
L 28.90625 33.296875 
Q 35.203125 36.96875 37.75 39.546875 
Q 41.75 43.609375 41.75 48.828125 
Q 41.75 54.9375 38.078125 58.515625 
Q 34.421875 62.109375 28.328125 62.109375 
Q 19.28125 62.109375 15.828125 55.28125 
Q 13.96875 51.609375 13.765625 45.125 
L 4.828125 45.125 
Q 4.984375 54.25 8.203125 60.015625 
Q 13.921875 70.171875 28.375 70.171875 
Q 40.375 70.171875 45.921875 63.671875 
Q 51.46875 57.171875 51.46875 49.21875 
Q 51.46875 40.828125 45.5625 34.859375 
Q 42.140625 31.390625 33.296875 26.46875 
L 26.609375 22.75 
Q 21.828125 20.125 19.09375 17.71875 
Q 14.203125 13.484375 12.9375 8.296875 
L 51.125 8.296875 
L 51.125 0 
L 3.125 0 
z
" id="Helvetica-50"/>
       <path d="M 22.75 71.734375 
L 30.171875 71.734375 
L 7.421875 0 
L 0 0 
z
" id="Helvetica-47"/>
       <path d="M 9.578125 49.515625 
L 9.578125 56.25 
Q 19.09375 57.171875 22.84375 59.34375 
Q 26.609375 61.53125 28.46875 69.625 
L 35.40625 69.625 
L 35.40625 0 
L 26.03125 0 
L 26.03125 49.515625 
z
" id="Helvetica-49"/>
      </defs>
      <g style="fill:#1d1c1c;" transform="translate(51.504028 195.433686)scale(0.08 -0.08)">
       <use xlink:href="#Helvetica-50"/>
       <use x="55.615234" xlink:href="#Helvetica-47"/>
       <use x="83.398438" xlink:href="#Helvetica-49"/>
      </g>
     </g>
    </g>
    <g id="xtick_2">
     <g id="text_2">
      <!-- 3/1 -->
      <defs>
       <path d="M 25.984375 -1.90625 
Q 13.578125 -1.90625 7.984375 4.90625 
Q 2.390625 11.71875 2.390625 21.484375 
L 11.578125 21.484375 
Q 12.15625 14.703125 14.109375 11.625 
Q 17.53125 6.109375 26.46875 6.109375 
Q 33.40625 6.109375 37.59375 9.8125 
Q 41.796875 13.53125 41.796875 19.390625 
Q 41.796875 26.609375 37.375 29.484375 
Q 32.953125 32.375 25.09375 32.375 
Q 24.21875 32.375 23.3125 32.34375 
Q 22.40625 32.328125 21.484375 32.28125 
L 21.484375 40.046875 
Q 22.859375 39.890625 23.78125 39.84375 
Q 24.703125 39.796875 25.78125 39.796875 
Q 30.71875 39.796875 33.890625 41.359375 
Q 39.453125 44.09375 39.453125 51.125 
Q 39.453125 56.34375 35.734375 59.171875 
Q 32.03125 62.015625 27.09375 62.015625 
Q 18.3125 62.015625 14.9375 56.15625 
Q 13.09375 52.9375 12.84375 46.96875 
L 4.15625 46.96875 
Q 4.15625 54.78125 7.28125 60.25 
Q 12.640625 70.015625 26.171875 70.015625 
Q 36.859375 70.015625 42.71875 65.25 
Q 48.578125 60.5 48.578125 51.46875 
Q 48.578125 45.015625 45.125 41.015625 
Q 42.96875 38.53125 39.546875 37.109375 
Q 45.0625 35.59375 48.15625 31.265625 
Q 51.265625 26.953125 51.265625 20.703125 
Q 51.265625 10.6875 44.671875 4.390625 
Q 38.09375 -1.90625 25.984375 -1.90625 
z
" id="Helvetica-51"/>
      </defs>
      <g style="fill:#1d1c1c;" transform="translate(68.173086 195.433686)scale(0.08 -0.08)">
       <use xlink:href="#Helvetica-51"/>
       <use x="55.615234" xlink:href="#Helvetica-47"/>
       <use x="83.398438" xlink:href="#Helvetica-49"/>
      </g>
     </g>
    </g>
    <g id="xtick_3">
     <g id="text_3">
      <!-- 4/1 -->
      <defs>
       <path d="M 33.0625 24.75 
L 33.0625 56.453125 
L 10.640625 24.75 
z
M 33.203125 0 
L 33.203125 17.09375 
L 2.546875 17.09375 
L 2.546875 25.6875 
L 34.578125 70.125 
L 42 70.125 
L 42 24.75 
L 52.296875 24.75 
L 52.296875 17.09375 
L 42 17.09375 
L 42 0 
z
" id="Helvetica-52"/>
      </defs>
      <g style="fill:#1d1c1c;" transform="translate(85.991735 195.433686)scale(0.08 -0.08)">
       <use xlink:href="#Helvetica-52"/>
       <use x="55.615234" xlink:href="#Helvetica-47"/>
       <use x="83.398438" xlink:href="#Helvetica-49"/>
      </g>
     </g>
    </g>
    <g id="xtick_4">
     <g id="text_4">
      <!-- 5/1 -->
      <defs>
       <path d="M 12.359375 17.828125 
Q 13.234375 10.296875 19.34375 7.421875 
Q 22.46875 5.953125 26.5625 5.953125 
Q 34.375 5.953125 38.125 10.9375 
Q 41.890625 15.921875 41.890625 21.96875 
Q 41.890625 29.296875 37.421875 33.296875 
Q 32.953125 37.3125 26.703125 37.3125 
Q 22.171875 37.3125 18.921875 35.546875 
Q 15.671875 33.796875 13.375 30.671875 
L 5.765625 31.109375 
L 11.078125 68.75 
L 47.40625 68.75 
L 47.40625 60.25 
L 17.671875 60.25 
L 14.703125 40.828125 
Q 17.140625 42.671875 19.34375 43.609375 
Q 23.25 45.21875 28.375 45.21875 
Q 37.984375 45.21875 44.671875 39.015625 
Q 51.375 32.8125 51.375 23.296875 
Q 51.375 13.375 45.234375 5.796875 
Q 39.109375 -1.765625 25.6875 -1.765625 
Q 17.140625 -1.765625 10.5625 3.046875 
Q 4 7.859375 3.21875 17.828125 
z
" id="Helvetica-53"/>
      </defs>
      <g style="fill:#1d1c1c;" transform="translate(103.235589 195.433686)scale(0.08 -0.08)">
       <use xlink:href="#Helvetica-53"/>
       <use x="55.615234" xlink:href="#Helvetica-47"/>
       <use x="83.398438" xlink:href="#Helvetica-49"/>
      </g>
     </g>
    </g>
    <g id="xtick_5">
     <g id="text_5">
      <!-- 6/1 -->
      <defs>
       <path d="M 29.25 70.21875 
Q 40.96875 70.21875 45.578125 64.140625 
Q 50.203125 58.0625 50.203125 51.609375 
L 41.5 51.609375 
Q 40.71875 55.765625 39.015625 58.109375 
Q 35.84375 62.5 29.390625 62.5 
Q 22.015625 62.5 17.671875 55.6875 
Q 13.328125 48.875 12.84375 36.1875 
Q 15.875 40.625 20.453125 42.828125 
Q 24.65625 44.78125 29.828125 44.78125 
Q 38.625 44.78125 45.15625 39.15625 
Q 51.703125 33.546875 51.703125 22.40625 
Q 51.703125 12.890625 45.5 5.53125 
Q 39.3125 -1.8125 27.828125 -1.8125 
Q 18.015625 -1.8125 10.890625 5.640625 
Q 3.765625 13.09375 3.765625 30.71875 
Q 3.765625 43.75 6.9375 52.828125 
Q 13.03125 70.21875 29.25 70.21875 
z
M 28.609375 6 
Q 35.546875 6 38.984375 10.65625 
Q 42.4375 15.328125 42.4375 21.6875 
Q 42.4375 27.046875 39.359375 31.90625 
Q 36.28125 36.765625 28.171875 36.765625 
Q 22.515625 36.765625 18.234375 33 
Q 13.96875 29.25 13.96875 21.6875 
Q 13.96875 15.046875 17.84375 10.515625 
Q 21.734375 6 28.609375 6 
z
" id="Helvetica-54"/>
      </defs>
      <g style="fill:#1d1c1c;" transform="translate(121.054238 195.433686)scale(0.08 -0.08)">
       <use xlink:href="#Helvetica-54"/>
       <use x="55.615234" xlink:href="#Helvetica-47"/>
       <use x="83.398438" xlink:href="#Helvetica-49"/>
      </g>
     </g>
    </g>
    <g id="xtick_6">
     <g id="text_6">
      <!-- 7/1 -->
      <defs>
       <path d="M 52.296875 68.75 
L 52.296875 61.078125 
Q 48.921875 57.8125 43.328125 49.703125 
Q 37.75 41.609375 33.453125 32.234375 
Q 29.203125 23.09375 27 15.578125 
Q 25.59375 10.75 23.34375 0 
L 13.625 0 
Q 16.9375 20.015625 28.265625 39.84375 
Q 34.96875 51.46875 42.328125 59.90625 
L 3.65625 59.90625 
L 3.65625 68.75 
z
" id="Helvetica-55"/>
      </defs>
      <g style="fill:#1d1c1c;" transform="translate(138.298092 195.433686)scale(0.08 -0.08)">
       <use xlink:href="#Helvetica-55"/>
       <use x="55.615234" xlink:href="#Helvetica-47"/>
       <use x="83.398438" xlink:href="#Helvetica-49"/>
      </g>
     </g>
    </g>
    <g id="xtick_7">
     <g id="text_7">
      <!-- 8/1 -->
      <defs>
       <path d="M 27.203125 40.625 
Q 33.015625 40.625 36.28125 43.875 
Q 39.546875 47.125 39.546875 51.609375 
Q 39.546875 55.515625 36.421875 58.78125 
Q 33.296875 62.0625 26.90625 62.0625 
Q 20.5625 62.0625 17.71875 58.78125 
Q 14.890625 55.515625 14.890625 51.125 
Q 14.890625 46.1875 18.546875 43.40625 
Q 22.21875 40.625 27.203125 40.625 
z
M 27.734375 6 
Q 33.84375 6 37.859375 9.296875 
Q 41.890625 12.59375 41.890625 19.140625 
Q 41.890625 25.921875 37.734375 29.4375 
Q 33.59375 32.953125 27.09375 32.953125 
Q 20.796875 32.953125 16.8125 29.359375 
Q 12.84375 25.78125 12.84375 19.4375 
Q 12.84375 13.96875 16.484375 9.984375 
Q 20.125 6 27.734375 6 
z
M 15.234375 37.25 
Q 11.578125 38.8125 9.515625 40.921875 
Q 5.671875 44.828125 5.671875 51.078125 
Q 5.671875 58.890625 11.328125 64.5 
Q 17 70.125 27.390625 70.125 
Q 37.453125 70.125 43.15625 64.8125 
Q 48.875 59.515625 48.875 52.4375 
Q 48.875 45.90625 45.5625 41.84375 
Q 43.703125 39.546875 39.796875 37.359375 
Q 44.140625 35.359375 46.625 32.765625 
Q 51.265625 27.875 51.265625 20.0625 
Q 51.265625 10.84375 45.0625 4.421875 
Q 38.875 -2 27.546875 -2 
Q 17.328125 -2 10.265625 3.53125 
Q 3.21875 9.078125 3.21875 19.625 
Q 3.21875 25.828125 6.25 30.34375 
Q 9.28125 34.859375 15.234375 37.25 
z
" id="Helvetica-56"/>
      </defs>
      <g style="fill:#1d1c1c;" transform="translate(156.116741 195.433686)scale(0.08 -0.08)">
       <use xlink:href="#Helvetica-56"/>
       <use x="55.615234" xlink:href="#Helvetica-47"/>
       <use x="83.398438" xlink:href="#Helvetica-49"/>
      </g>
     </g>
    </g>
    <g id="xtick_8">
     <g id="text_8">
      <!-- 9/1 -->
      <defs>
       <path d="M 13.28125 16.890625 
Q 13.671875 9.625 18.890625 6.84375 
Q 21.578125 5.375 24.953125 5.375 
Q 31.25 5.375 35.6875 10.625 
Q 40.140625 15.875 42 31.9375 
Q 39.0625 27.296875 34.734375 25.40625 
Q 30.421875 23.53125 25.4375 23.53125 
Q 15.328125 23.53125 9.4375 29.828125 
Q 3.5625 36.140625 3.5625 46.046875 
Q 3.5625 55.5625 9.375 62.78125 
Q 15.1875 70.015625 26.515625 70.015625 
Q 41.796875 70.015625 47.609375 56.25 
Q 50.828125 48.6875 50.828125 37.3125 
Q 50.828125 24.46875 46.96875 14.546875 
Q 40.578125 -1.953125 25.296875 -1.953125 
Q 15.046875 -1.953125 9.71875 3.421875 
Q 4.390625 8.796875 4.390625 16.890625 
z
M 26.609375 31.25 
Q 31.84375 31.25 36.15625 34.6875 
Q 40.484375 38.140625 40.484375 46.734375 
Q 40.484375 54.4375 36.59375 58.21875 
Q 32.71875 62.015625 26.703125 62.015625 
Q 20.265625 62.015625 16.484375 57.6875 
Q 12.703125 53.375 12.703125 46.140625 
Q 12.703125 39.3125 16.015625 35.28125 
Q 19.34375 31.25 26.609375 31.25 
z
" id="Helvetica-57"/>
      </defs>
      <g style="fill:#1d1c1c;" transform="translate(173.93539 195.433686)scale(0.08 -0.08)">
       <use xlink:href="#Helvetica-57"/>
       <use x="55.615234" xlink:href="#Helvetica-47"/>
       <use x="83.398438" xlink:href="#Helvetica-49"/>
      </g>
     </g>
    </g>
    <g id="xtick_9">
     <g id="text_9">
      <!-- 10/1 -->
      <defs>
       <path d="M 27.046875 69.921875 
Q 40.625 69.921875 46.6875 58.734375 
Q 51.375 50.09375 51.375 35.0625 
Q 51.375 20.796875 47.125 11.46875 
Q 40.96875 -1.90625 27 -1.90625 
Q 14.40625 -1.90625 8.25 9.03125 
Q 3.125 18.171875 3.125 33.546875 
Q 3.125 45.453125 6.203125 54 
Q 11.96875 69.921875 27.046875 69.921875 
z
M 26.953125 6.109375 
Q 33.796875 6.109375 37.84375 12.15625 
Q 41.890625 18.21875 41.890625 34.71875 
Q 41.890625 46.625 38.953125 54.3125 
Q 36.03125 62.015625 27.59375 62.015625 
Q 19.828125 62.015625 16.234375 54.703125 
Q 12.640625 47.40625 12.640625 33.203125 
Q 12.640625 22.515625 14.9375 16.015625 
Q 18.453125 6.109375 26.953125 6.109375 
z
" id="Helvetica-48"/>
      </defs>
      <g style="fill:#1d1c1c;" transform="translate(188.954868 195.433686)scale(0.08 -0.08)">
       <use xlink:href="#Helvetica-49"/>
       <use x="55.615234" xlink:href="#Helvetica-48"/>
       <use x="111.230469" xlink:href="#Helvetica-47"/>
       <use x="139.013672" xlink:href="#Helvetica-49"/>
      </g>
     </g>
    </g>
    <g id="xtick_10">
     <g id="text_10">
      <!-- 11/1 -->
      <g style="fill:#1d1c1c;" transform="translate(206.773517 195.433686)scale(0.08 -0.08)">
       <use xlink:href="#Helvetica-49"/>
       <use x="55.615234" xlink:href="#Helvetica-49"/>
       <use x="111.230469" xlink:href="#Helvetica-47"/>
       <use x="139.013672" xlink:href="#Helvetica-49"/>
      </g>
     </g>
    </g>
    <g id="xtick_11">
     <g id="text_11">
      <!-- 12/1 -->
      <g style="fill:#1d1c1c;" transform="translate(224.017371 195.433686)scale(0.08 -0.08)">
       <use xlink:href="#Helvetica-49"/>
       <use x="55.615234" xlink:href="#Helvetica-50"/>
       <use x="111.230469" xlink:href="#Helvetica-47"/>
       <use x="139.013672" xlink:href="#Helvetica-49"/>
      </g>
     </g>
    </g>
    <g id="xtick_12">
     <g id="text_12">
      <!-- 1/1 -->
      <g style="fill:#1d1c1c;" transform="translate(244.060395 195.433686)scale(0.08 -0.08)">
       <use xlink:href="#Helvetica-49"/>
       <use x="55.615234" xlink:href="#Helvetica-47"/>
       <use x="83.398438" xlink:href="#Helvetica-49"/>
      </g>
     </g>
    </g>
    <g id="xtick_13">
     <g id="text_13">
      <!-- 2/1 -->
      <g style="fill:#1d1c1c;" transform="translate(261.879044 195.433686)scale(0.08 -0.08)">
       <use xlink:href="#Helvetica-50"/>
       <use x="55.615234" xlink:href="#Helvetica-47"/>
       <use x="83.398438" xlink:href="#Helvetica-49"/>
      </g>
     </g>
    </g>
    <g id="text_14">
     <!-- Date -->
     <defs>
      <path d="M 35.15625 8.296875 
Q 40.09375 8.296875 43.265625 9.328125 
Q 48.921875 11.234375 52.546875 16.65625 
Q 55.421875 21 56.6875 27.78125 
Q 57.421875 31.84375 57.421875 35.296875 
Q 57.421875 48.640625 52.125 56 
Q 46.828125 63.375 35.0625 63.375 
L 17.828125 63.375 
L 17.828125 8.296875 
z
M 8.0625 71.734375 
L 37.109375 71.734375 
Q 51.90625 71.734375 60.0625 61.234375 
Q 67.328125 51.765625 67.328125 36.96875 
Q 67.328125 25.53125 63.03125 16.3125 
Q 55.46875 0 37.015625 0 
L 8.0625 0 
z
" id="Helvetica-68"/>
      <path d="M 13.1875 13.921875 
Q 13.1875 10.109375 15.96875 7.90625 
Q 18.75 5.71875 22.5625 5.71875 
Q 27.203125 5.71875 31.546875 7.859375 
Q 38.875 11.421875 38.875 19.53125 
L 38.875 26.609375 
Q 37.25 25.59375 34.703125 24.90625 
Q 32.171875 24.21875 29.734375 23.921875 
L 24.421875 23.25 
Q 19.625 22.609375 17.234375 21.234375 
Q 13.1875 18.953125 13.1875 13.921875 
z
M 34.46875 31.6875 
Q 37.5 32.078125 38.53125 34.234375 
Q 39.109375 35.40625 39.109375 37.59375 
Q 39.109375 42.09375 35.90625 44.109375 
Q 32.71875 46.140625 26.765625 46.140625 
Q 19.875 46.140625 17 42.4375 
Q 15.375 40.375 14.890625 36.328125 
L 6.6875 36.328125 
Q 6.9375 46 12.96875 49.78125 
Q 19 53.5625 26.953125 53.5625 
Q 36.1875 53.5625 41.9375 50.046875 
Q 47.65625 46.53125 47.65625 39.109375 
L 47.65625 8.984375 
Q 47.65625 7.625 48.21875 6.78125 
Q 48.78125 5.953125 50.59375 5.953125 
Q 51.171875 5.953125 51.90625 6.03125 
Q 52.640625 6.109375 53.46875 6.25 
L 53.46875 -0.25 
Q 51.421875 -0.828125 50.34375 -0.96875 
Q 49.265625 -1.125 47.40625 -1.125 
Q 42.875 -1.125 40.828125 2.09375 
Q 39.75 3.8125 39.3125 6.9375 
Q 36.625 3.421875 31.59375 0.828125 
Q 26.5625 -1.765625 20.515625 -1.765625 
Q 13.234375 -1.765625 8.609375 2.65625 
Q 4 7.078125 4 13.71875 
Q 4 21 8.546875 25 
Q 13.09375 29 20.453125 29.9375 
z
M 27.203125 53.5625 
z
" id="Helvetica-97"/>
      <path d="M 8.203125 66.890625 
L 17.09375 66.890625 
L 17.09375 52.296875 
L 25.4375 52.296875 
L 25.4375 45.125 
L 17.09375 45.125 
L 17.09375 10.984375 
Q 17.09375 8.25 18.953125 7.328125 
Q 19.96875 6.78125 22.359375 6.78125 
Q 23 6.78125 23.734375 6.8125 
Q 24.46875 6.84375 25.4375 6.9375 
L 25.4375 0 
Q 23.921875 -0.4375 22.28125 -0.625 
Q 20.65625 -0.828125 18.75 -0.828125 
Q 12.59375 -0.828125 10.390625 2.3125 
Q 8.203125 5.46875 8.203125 10.5 
L 8.203125 45.125 
L 1.125 45.125 
L 1.125 52.296875 
L 8.203125 52.296875 
z
" id="Helvetica-116"/>
      <path d="M 28.21875 53.46875 
Q 33.796875 53.46875 39.015625 50.859375 
Q 44.234375 48.25 46.96875 44.09375 
Q 49.609375 40.140625 50.484375 34.859375 
Q 51.265625 31.25 51.265625 23.34375 
L 12.9375 23.34375 
Q 13.1875 15.375 16.703125 10.5625 
Q 20.21875 5.765625 27.59375 5.765625 
Q 34.46875 5.765625 38.578125 10.296875 
Q 40.921875 12.9375 41.890625 16.40625 
L 50.53125 16.40625 
Q 50.203125 13.53125 48.265625 9.984375 
Q 46.34375 6.453125 43.953125 4.203125 
Q 39.9375 0.296875 34.03125 -1.078125 
Q 30.859375 -1.859375 26.859375 -1.859375 
Q 17.09375 -1.859375 10.296875 5.25 
Q 3.515625 12.359375 3.515625 25.140625 
Q 3.515625 37.75 10.34375 45.609375 
Q 17.1875 53.46875 28.21875 53.46875 
z
M 42.234375 30.328125 
Q 41.703125 36.03125 39.75 39.453125 
Q 36.140625 45.796875 27.6875 45.796875 
Q 21.625 45.796875 17.515625 41.421875 
Q 13.421875 37.0625 13.1875 30.328125 
z
M 27.390625 53.5625 
z
" id="Helvetica-101"/>
     </defs>
     <g style="fill:#1d1c1c;" transform="translate(153.702381 208.274623)scale(0.1 -0.1)">
      <use xlink:href="#Helvetica-68"/>
      <use x="72.216797" xlink:href="#Helvetica-97"/>
      <use x="127.832031" xlink:href="#Helvetica-116"/>
      <use x="155.615234" xlink:href="#Helvetica-101"/>
     </g>
    </g>
   </g>
   <g id="matplotlib.axis_2">
    <g id="ytick_1">
     <g id="text_15">
      <!-- -1.0 -->
      <defs>
       <path d="M 4.15625 32.375 
L 28.65625 32.375 
L 28.65625 23.34375 
L 4.15625 23.34375 
z
" id="Helvetica-45"/>
       <path d="M 8.546875 10.640625 
L 18.75 10.640625 
L 18.75 0 
L 8.546875 0 
z
" id="Helvetica-46"/>
      </defs>
      <g style="fill:#1d1c1c;" transform="translate(20.53125 183.064311)scale(0.08 -0.08)">
       <use xlink:href="#Helvetica-45"/>
       <use x="33.300781" xlink:href="#Helvetica-49"/>
       <use x="88.916016" xlink:href="#Helvetica-46"/>
       <use x="116.699219" xlink:href="#Helvetica-48"/>
      </g>
     </g>
    </g>
    <g id="ytick_2">
     <g id="text_16">
      <!-- -0.5 -->
      <g style="fill:#1d1c1c;" transform="translate(20.53125 158.890946)scale(0.08 -0.08)">
       <use xlink:href="#Helvetica-45"/>
       <use x="33.300781" xlink:href="#Helvetica-48"/>
       <use x="88.916016" xlink:href="#Helvetica-46"/>
       <use x="116.699219" xlink:href="#Helvetica-53"/>
      </g>
     </g>
    </g>
    <g id="ytick_3">
     <g id="text_17">
      <!-- 0.0 -->
      <g style="fill:#1d1c1c;" transform="translate(23.195 134.717582)scale(0.08 -0.08)">
       <use xlink:href="#Helvetica-48"/>
       <use x="55.615234" xlink:href="#Helvetica-46"/>
       <use x="83.398438" xlink:href="#Helvetica-48"/>
      </g>
     </g>
    </g>
    <g id="ytick_4">
     <g id="text_18">
      <!-- 0.5 -->
      <g style="fill:#1d1c1c;" transform="translate(23.195 110.544218)scale(0.08 -0.08)">
       <use xlink:href="#Helvetica-48"/>
       <use x="55.615234" xlink:href="#Helvetica-46"/>
       <use x="83.398438" xlink:href="#Helvetica-53"/>
      </g>
     </g>
    </g>
    <g id="ytick_5">
     <g id="text_19">
      <!-- 1.0 -->
      <g style="fill:#1d1c1c;" transform="translate(23.195 86.370854)scale(0.08 -0.08)">
       <use xlink:href="#Helvetica-49"/>
       <use x="55.615234" xlink:href="#Helvetica-46"/>
       <use x="83.398438" xlink:href="#Helvetica-48"/>
      </g>
     </g>
    </g>
    <g id="ytick_6">
     <g id="text_20">
      <!-- 1.5 -->
      <g style="fill:#1d1c1c;" transform="translate(23.195 62.197489)scale(0.08 -0.08)">
       <use xlink:href="#Helvetica-49"/>
       <use x="55.615234" xlink:href="#Helvetica-46"/>
       <use x="83.398438" xlink:href="#Helvetica-53"/>
      </g>
     </g>
    </g>
    <g id="ytick_7">
     <g id="text_21">
      <!-- 2.0 -->
      <g style="fill:#1d1c1c;" transform="translate(23.195 38.024125)scale(0.08 -0.08)">
       <use xlink:href="#Helvetica-50"/>
       <use x="55.615234" xlink:href="#Helvetica-46"/>
       <use x="83.398438" xlink:href="#Helvetica-48"/>
      </g>
     </g>
    </g>
    <g id="text_22">
     <!-- Deaths (z-score) -->
     <defs>
      <path d="M 6.453125 71.96875 
L 15.234375 71.96875 
L 15.234375 45.21875 
Q 18.359375 49.171875 20.84375 50.78125 
Q 25.09375 53.5625 31.453125 53.5625 
Q 42.828125 53.5625 46.875 45.609375 
Q 49.078125 41.265625 49.078125 33.546875 
L 49.078125 0 
L 40.046875 0 
L 40.046875 32.953125 
Q 40.046875 38.71875 38.578125 41.40625 
Q 36.1875 45.703125 29.59375 45.703125 
Q 24.125 45.703125 19.671875 41.9375 
Q 15.234375 38.1875 15.234375 27.734375 
L 15.234375 0 
L 6.453125 0 
z
" id="Helvetica-104"/>
      <path d="M 11.671875 16.40625 
Q 12.0625 12.015625 13.875 9.671875 
Q 17.1875 5.421875 25.390625 5.421875 
Q 30.28125 5.421875 33.984375 7.546875 
Q 37.703125 9.671875 37.703125 14.109375 
Q 37.703125 17.484375 34.71875 19.234375 
Q 32.8125 20.3125 27.203125 21.734375 
L 20.21875 23.484375 
Q 13.53125 25.140625 10.359375 27.203125 
Q 4.6875 30.765625 4.6875 37.0625 
Q 4.6875 44.484375 10.03125 49.0625 
Q 15.375 53.65625 24.421875 53.65625 
Q 36.234375 53.65625 41.453125 46.734375 
Q 44.734375 42.328125 44.625 37.25 
L 36.328125 37.25 
Q 36.078125 40.234375 34.234375 42.671875 
Q 31.203125 46.140625 23.734375 46.140625 
Q 18.75 46.140625 16.1875 44.234375 
Q 13.625 42.328125 13.625 39.203125 
Q 13.625 35.796875 17 33.734375 
Q 18.953125 32.515625 22.75 31.59375 
L 28.5625 30.171875 
Q 38.03125 27.875 41.265625 25.734375 
Q 46.390625 22.359375 46.390625 15.140625 
Q 46.390625 8.15625 41.09375 3.078125 
Q 35.796875 -2 24.953125 -2 
Q 13.28125 -2 8.421875 3.296875 
Q 3.5625 8.59375 3.21875 16.40625 
z
M 24.65625 53.5625 
z
" id="Helvetica-115"/>
      <path id="Helvetica-32"/>
      <path d="M 29.59375 72.90625 
Q 21.921875 58.015625 19.625 50.984375 
Q 16.15625 40.28125 16.15625 26.265625 
Q 16.15625 12.109375 20.125 0.390625 
Q 22.5625 -6.84375 29.734375 -20.40625 
L 23.828125 -20.40625 
Q 16.703125 -9.28125 14.984375 -6.203125 
Q 13.28125 -3.125 11.28125 2.15625 
Q 8.546875 9.375 7.46875 17.578125 
Q 6.9375 21.828125 6.9375 25.6875 
Q 6.9375 40.140625 11.46875 51.421875 
Q 14.359375 58.59375 23.484375 72.90625 
z
" id="Helvetica-40"/>
      <path d="M 2.546875 6.9375 
L 33.546875 44.4375 
L 4.828125 44.4375 
L 4.828125 52.296875 
L 45.359375 52.296875 
L 45.359375 45.125 
L 14.546875 7.859375 
L 46.296875 7.859375 
L 46.296875 0 
L 2.546875 0 
z
M 25.140625 53.5625 
z
" id="Helvetica-122"/>
      <path d="M 26.609375 53.8125 
Q 35.453125 53.8125 40.984375 49.515625 
Q 46.53125 45.21875 47.65625 34.71875 
L 39.109375 34.71875 
Q 38.328125 39.546875 35.546875 42.75 
Q 32.765625 45.953125 26.609375 45.953125 
Q 18.21875 45.953125 14.59375 37.75 
Q 12.25 32.421875 12.25 24.609375 
Q 12.25 16.75 15.5625 11.375 
Q 18.890625 6 26.03125 6 
Q 31.5 6 34.6875 9.34375 
Q 37.890625 12.703125 39.109375 18.5 
L 47.65625 18.5 
Q 46.1875 8.109375 40.328125 3.296875 
Q 34.46875 -1.515625 25.34375 -1.515625 
Q 15.09375 -1.515625 8.984375 5.984375 
Q 2.875 13.484375 2.875 24.703125 
Q 2.875 38.484375 9.5625 46.140625 
Q 16.265625 53.8125 26.609375 53.8125 
z
M 25.25 53.5625 
z
" id="Helvetica-99"/>
      <path d="M 27.203125 5.671875 
Q 35.9375 5.671875 39.1875 12.28125 
Q 42.4375 18.890625 42.4375 27 
Q 42.4375 34.328125 40.09375 38.921875 
Q 36.375 46.140625 27.296875 46.140625 
Q 19.234375 46.140625 15.578125 39.984375 
Q 11.921875 33.84375 11.921875 25.140625 
Q 11.921875 16.796875 15.578125 11.234375 
Q 19.234375 5.671875 27.203125 5.671875 
z
M 27.546875 53.8125 
Q 37.640625 53.8125 44.625 47.0625 
Q 51.609375 40.328125 51.609375 27.25 
Q 51.609375 14.59375 45.453125 6.34375 
Q 39.3125 -1.90625 26.375 -1.90625 
Q 15.578125 -1.90625 9.21875 5.390625 
Q 2.875 12.703125 2.875 25 
Q 2.875 38.1875 9.5625 46 
Q 16.265625 53.8125 27.546875 53.8125 
z
M 27.25 53.5625 
z
" id="Helvetica-111"/>
      <path d="M 6.6875 52.296875 
L 15.046875 52.296875 
L 15.046875 43.265625 
Q 16.0625 45.90625 20.0625 49.6875 
Q 24.078125 53.46875 29.296875 53.46875 
Q 29.546875 53.46875 30.125 53.421875 
Q 30.71875 53.375 32.125 53.21875 
L 32.125 43.953125 
Q 31.34375 44.09375 30.6875 44.140625 
Q 30.03125 44.1875 29.25 44.1875 
Q 22.609375 44.1875 19.046875 39.90625 
Q 15.484375 35.640625 15.484375 30.078125 
L 15.484375 0 
L 6.6875 0 
z
" id="Helvetica-114"/>
      <path d="M 3.46875 -20.40625 
Q 11.234375 -5.28125 13.484375 1.65625 
Q 16.890625 12.15625 16.890625 26.265625 
Q 16.890625 40.375 12.9375 52.09375 
Q 10.5 59.328125 3.328125 72.90625 
L 9.234375 72.90625 
Q 16.75 60.890625 18.328125 58.078125 
Q 19.921875 55.28125 21.78125 50.34375 
Q 24.125 44.234375 25.125 38.28125 
Q 26.125 32.328125 26.125 26.8125 
Q 26.125 12.359375 21.53125 1.03125 
Q 18.65625 -6.25 9.578125 -20.40625 
z
" id="Helvetica-41"/>
     </defs>
     <g style="fill:#1d1c1c;" transform="translate(14.446875 144.625624)rotate(-90)scale(0.1 -0.1)">
      <use xlink:href="#Helvetica-68"/>
      <use x="72.216797" xlink:href="#Helvetica-101"/>
      <use x="127.832031" xlink:href="#Helvetica-97"/>
      <use x="183.447266" xlink:href="#Helvetica-116"/>
      <use x="211.230469" xlink:href="#Helvetica-104"/>
      <use x="266.845703" xlink:href="#Helvetica-115"/>
      <use x="316.845703" xlink:href="#Helvetica-32"/>
      <use x="344.628906" xlink:href="#Helvetica-40"/>
      <use x="377.929688" xlink:href="#Helvetica-122"/>
      <use x="427.929688" xlink:href="#Helvetica-45"/>
      <use x="461.230469" xlink:href="#Helvetica-115"/>
      <use x="511.230469" xlink:href="#Helvetica-99"/>
      <use x="561.230469" xlink:href="#Helvetica-111"/>
      <use x="616.845703" xlink:href="#Helvetica-114"/>
      <use x="650.146484" xlink:href="#Helvetica-101"/>
      <use x="705.761719" xlink:href="#Helvetica-41"/>
     </g>
    </g>
   </g>
   <g id="text_23">
    <!-- Representative Cluster -->
    <defs>
     <path d="M 40.96875 38.875 
Q 47.796875 38.875 51.78125 41.609375 
Q 55.765625 44.34375 55.765625 51.46875 
Q 55.765625 59.125 50.203125 61.921875 
Q 47.21875 63.375 42.234375 63.375 
L 18.5 63.375 
L 18.5 38.875 
z
M 8.796875 71.734375 
L 42 71.734375 
Q 50.203125 71.734375 55.515625 69.34375 
Q 65.625 64.75 65.625 52.390625 
Q 65.625 45.953125 62.953125 41.84375 
Q 60.296875 37.75 55.515625 35.25 
Q 59.71875 33.546875 61.84375 30.765625 
Q 63.96875 27.984375 64.203125 21.734375 
L 64.546875 12.109375 
Q 64.703125 8.015625 65.234375 6 
Q 66.109375 2.59375 68.359375 1.609375 
L 68.359375 0 
L 56.453125 0 
Q 55.953125 0.921875 55.65625 2.390625 
Q 55.375 3.859375 55.171875 8.0625 
L 54.59375 20.015625 
Q 54.25 27.046875 49.359375 29.4375 
Q 46.578125 30.765625 40.625 30.765625 
L 18.5 30.765625 
L 18.5 0 
L 8.796875 0 
z
" id="Helvetica-82"/>
     <path d="M 28.515625 5.90625 
Q 34.671875 5.90625 38.75 11.0625 
Q 42.828125 16.21875 42.828125 26.46875 
Q 42.828125 32.71875 41.015625 37.203125 
Q 37.59375 45.84375 28.515625 45.84375 
Q 19.390625 45.84375 16.015625 36.71875 
Q 14.203125 31.84375 14.203125 24.3125 
Q 14.203125 18.265625 16.015625 14.015625 
Q 19.4375 5.90625 28.515625 5.90625 
z
M 5.765625 52.046875 
L 14.3125 52.046875 
L 14.3125 45.125 
Q 16.9375 48.6875 20.0625 50.640625 
Q 24.515625 53.5625 30.515625 53.5625 
Q 39.40625 53.5625 45.609375 46.75 
Q 51.8125 39.9375 51.8125 27.296875 
Q 51.8125 10.203125 42.875 2.875 
Q 37.203125 -1.765625 29.6875 -1.765625 
Q 23.78125 -1.765625 19.78125 0.828125 
Q 17.4375 2.296875 14.546875 5.859375 
L 14.546875 -20.84375 
L 5.765625 -20.84375 
z
" id="Helvetica-112"/>
     <path d="M 6.453125 52.296875 
L 14.796875 52.296875 
L 14.796875 44.875 
Q 18.5 49.46875 22.65625 51.46875 
Q 26.8125 53.46875 31.890625 53.46875 
Q 43.015625 53.46875 46.921875 45.703125 
Q 49.078125 41.453125 49.078125 33.546875 
L 49.078125 0 
L 40.140625 0 
L 40.140625 32.953125 
Q 40.140625 37.75 38.71875 40.671875 
Q 36.375 45.5625 30.21875 45.5625 
Q 27.09375 45.5625 25.09375 44.921875 
Q 21.484375 43.84375 18.75 40.625 
Q 16.546875 38.03125 15.890625 35.265625 
Q 15.234375 32.515625 15.234375 27.390625 
L 15.234375 0 
L 6.453125 0 
z
M 27.09375 53.5625 
z
" id="Helvetica-110"/>
     <path d="M 6.453125 52.046875 
L 15.375 52.046875 
L 15.375 0 
L 6.453125 0 
z
M 6.453125 71.734375 
L 15.375 71.734375 
L 15.375 61.765625 
L 6.453125 61.765625 
z
" id="Helvetica-105"/>
     <path d="M 10.75 52.296875 
L 24.703125 9.71875 
L 39.3125 52.296875 
L 48.921875 52.296875 
L 29.203125 0 
L 19.828125 0 
L 0.53125 52.296875 
z
" id="Helvetica-118"/>
     <path d="M 37.84375 73.6875 
Q 51.46875 73.6875 58.984375 66.5 
Q 66.5 59.328125 67.328125 50.203125 
L 57.859375 50.203125 
Q 56.25 57.125 51.4375 61.171875 
Q 46.625 65.234375 37.9375 65.234375 
Q 27.34375 65.234375 20.828125 57.78125 
Q 14.3125 50.34375 14.3125 34.96875 
Q 14.3125 22.359375 20.1875 14.515625 
Q 26.078125 6.6875 37.75 6.6875 
Q 48.484375 6.6875 54.109375 14.9375 
Q 57.078125 19.28125 58.546875 26.375 
L 68.015625 26.375 
Q 66.75 15.046875 59.625 7.375 
Q 51.078125 -1.859375 36.578125 -1.859375 
Q 24.078125 -1.859375 15.578125 5.71875 
Q 4.390625 15.71875 4.390625 36.625 
Q 4.390625 52.484375 12.796875 62.640625 
Q 21.875 73.6875 37.84375 73.6875 
z
M 35.890625 73.6875 
z
" id="Helvetica-67"/>
     <path d="M 6.6875 71.734375 
L 15.484375 71.734375 
L 15.484375 0 
L 6.6875 0 
z
" id="Helvetica-108"/>
     <path d="M 15.234375 52.296875 
L 15.234375 17.578125 
Q 15.234375 13.578125 16.5 11.03125 
Q 18.84375 6.34375 25.25 6.34375 
Q 34.421875 6.34375 37.75 14.546875 
Q 39.546875 18.953125 39.546875 26.609375 
L 39.546875 52.296875 
L 48.34375 52.296875 
L 48.34375 0 
L 40.046875 0 
L 40.140625 7.71875 
Q 38.421875 4.734375 35.890625 2.6875 
Q 30.859375 -1.421875 23.6875 -1.421875 
Q 12.5 -1.421875 8.453125 6.0625 
Q 6.25 10.0625 6.25 16.75 
L 6.25 52.296875 
z
M 27.296875 53.5625 
z
" id="Helvetica-117"/>
    </defs>
    <g style="fill:#1d1c1c;" transform="translate(103.238631 16.0425)scale(0.12 -0.12)">
     <use xlink:href="#Helvetica-82"/>
     <use x="72.216797" xlink:href="#Helvetica-101"/>
     <use x="127.832031" xlink:href="#Helvetica-112"/>
     <use x="183.447266" xlink:href="#Helvetica-114"/>
     <use x="216.748047" xlink:href="#Helvetica-101"/>
     <use x="272.363281" xlink:href="#Helvetica-115"/>
     <use x="322.363281" xlink:href="#Helvetica-101"/>
     <use x="377.978516" xlink:href="#Helvetica-110"/>
     <use x="433.59375" xlink:href="#Helvetica-116"/>
     <use x="461.376953" xlink:href="#Helvetica-97"/>
     <use x="516.992188" xlink:href="#Helvetica-116"/>
     <use x="544.775391" xlink:href="#Helvetica-105"/>
     <use x="566.992188" xlink:href="#Helvetica-118"/>
     <use x="616.992188" xlink:href="#Helvetica-101"/>
     <use x="672.607422" xlink:href="#Helvetica-32"/>
     <use x="700.390625" xlink:href="#Helvetica-67"/>
     <use x="772.607422" xlink:href="#Helvetica-108"/>
     <use x="794.824219" xlink:href="#Helvetica-117"/>
     <use x="850.439453" xlink:href="#Helvetica-115"/>
     <use x="900.439453" xlink:href="#Helvetica-116"/>
     <use x="928.222656" xlink:href="#Helvetica-101"/>
     <use x="983.837891" xlink:href="#Helvetica-114"/>
    </g>
    <!-- COVID-19 Dynamics (deaths) -->
    <defs>
     <path d="M 38.578125 73.6875 
Q 57.5625 73.6875 66.703125 61.46875 
Q 73.828125 51.953125 73.828125 37.109375 
Q 73.828125 21.046875 65.671875 10.40625 
Q 56.109375 -2.09375 38.375 -2.09375 
Q 21.828125 -2.09375 12.359375 8.84375 
Q 3.90625 19.390625 3.90625 35.5 
Q 3.90625 50.046875 11.140625 60.40625 
Q 20.40625 73.6875 38.578125 73.6875 
z
M 39.546875 6.59375 
Q 52.390625 6.59375 58.125 15.796875 
Q 63.875 25 63.875 36.96875 
Q 63.875 49.609375 57.25 57.328125 
Q 50.640625 65.046875 39.15625 65.046875 
Q 28.03125 65.046875 21 57.390625 
Q 13.96875 49.75 13.96875 34.859375 
Q 13.96875 22.953125 20 14.765625 
Q 26.03125 6.59375 39.546875 6.59375 
z
M 38.875 73.6875 
z
" id="Helvetica-79"/>
     <path d="M 13.28125 71.734375 
L 33.890625 10.640625 
L 54.25 71.734375 
L 65.140625 71.734375 
L 38.96875 0 
L 28.65625 0 
L 2.546875 71.734375 
z
" id="Helvetica-86"/>
     <path d="M 9.8125 71.734375 
L 19.625 71.734375 
L 19.625 0 
L 9.8125 0 
z
" id="Helvetica-73"/>
     <path d="M 39.109375 52.296875 
L 48.828125 52.296875 
Q 46.96875 47.265625 40.578125 29.34375 
Q 35.796875 15.875 32.5625 7.375 
Q 24.953125 -12.640625 21.828125 -17.03125 
Q 18.703125 -21.4375 11.078125 -21.4375 
Q 9.234375 -21.4375 8.234375 -21.28125 
Q 7.234375 -21.140625 5.765625 -20.75 
L 5.765625 -12.75 
Q 8.0625 -13.375 9.078125 -13.515625 
Q 10.109375 -13.671875 10.890625 -13.671875 
Q 13.328125 -13.671875 14.46875 -12.859375 
Q 15.625 -12.0625 16.40625 -10.890625 
Q 16.65625 -10.5 18.15625 -6.875 
Q 19.671875 -3.265625 20.359375 -1.515625 
L 1.03125 52.296875 
L 10.984375 52.296875 
L 25 9.71875 
z
M 24.953125 53.5625 
z
" id="Helvetica-121"/>
     <path d="M 6.453125 52.296875 
L 15.140625 52.296875 
L 15.140625 44.875 
Q 18.265625 48.734375 20.796875 50.484375 
Q 25.140625 53.46875 30.671875 53.46875 
Q 36.921875 53.46875 40.71875 50.390625 
Q 42.875 48.640625 44.625 45.21875 
Q 47.5625 49.421875 51.515625 51.4375 
Q 55.46875 53.46875 60.40625 53.46875 
Q 70.953125 53.46875 74.75 45.84375 
Q 76.8125 41.75 76.8125 34.8125 
L 76.8125 0 
L 67.671875 0 
L 67.671875 36.328125 
Q 67.671875 41.546875 65.0625 43.5 
Q 62.453125 45.453125 58.6875 45.453125 
Q 53.515625 45.453125 49.78125 41.984375 
Q 46.046875 38.53125 46.046875 30.421875 
L 46.046875 0 
L 37.109375 0 
L 37.109375 34.125 
Q 37.109375 39.453125 35.84375 41.890625 
Q 33.84375 45.5625 28.375 45.5625 
Q 23.390625 45.5625 19.3125 41.703125 
Q 15.234375 37.84375 15.234375 27.734375 
L 15.234375 0 
L 6.453125 0 
z
" id="Helvetica-109"/>
     <path d="M 12.015625 25.53125 
Q 12.015625 17.140625 15.578125 11.46875 
Q 19.140625 5.8125 27 5.8125 
Q 33.109375 5.8125 37.03125 11.0625 
Q 40.96875 16.3125 40.96875 26.125 
Q 40.96875 36.03125 36.90625 40.796875 
Q 32.859375 45.5625 26.90625 45.5625 
Q 20.265625 45.5625 16.140625 40.484375 
Q 12.015625 35.40625 12.015625 25.53125 
z
M 25.25 53.21875 
Q 31.25 53.21875 35.296875 50.6875 
Q 37.640625 49.21875 40.625 45.5625 
L 40.625 71.96875 
L 49.078125 71.96875 
L 49.078125 0 
L 41.15625 0 
L 41.15625 7.28125 
Q 38.09375 2.4375 33.890625 0.28125 
Q 29.6875 -1.859375 24.265625 -1.859375 
Q 15.53125 -1.859375 9.125 5.484375 
Q 2.734375 12.84375 2.734375 25.046875 
Q 2.734375 36.46875 8.5625 44.84375 
Q 14.40625 53.21875 25.25 53.21875 
z
" id="Helvetica-100"/>
    </defs>
    <g style="fill:#1d1c1c;" transform="translate(84.910506 29.15475)scale(0.12 -0.12)">
     <use xlink:href="#Helvetica-67"/>
     <use x="72.216797" xlink:href="#Helvetica-79"/>
     <use x="150" xlink:href="#Helvetica-86"/>
     <use x="216.699219" xlink:href="#Helvetica-73"/>
     <use x="244.482422" xlink:href="#Helvetica-68"/>
     <use x="316.699219" xlink:href="#Helvetica-45"/>
     <use x="350" xlink:href="#Helvetica-49"/>
     <use x="405.615234" xlink:href="#Helvetica-57"/>
     <use x="461.230469" xlink:href="#Helvetica-32"/>
     <use x="489.013672" xlink:href="#Helvetica-68"/>
     <use x="561.230469" xlink:href="#Helvetica-121"/>
     <use x="611.230469" xlink:href="#Helvetica-110"/>
     <use x="666.845703" xlink:href="#Helvetica-97"/>
     <use x="722.460938" xlink:href="#Helvetica-109"/>
     <use x="805.761719" xlink:href="#Helvetica-105"/>
     <use x="827.978516" xlink:href="#Helvetica-99"/>
     <use x="877.978516" xlink:href="#Helvetica-115"/>
     <use x="927.978516" xlink:href="#Helvetica-32"/>
     <use x="955.761719" xlink:href="#Helvetica-40"/>
     <use x="989.0625" xlink:href="#Helvetica-100"/>
     <use x="1044.677734" xlink:href="#Helvetica-101"/>
     <use x="1100.292969" xlink:href="#Helvetica-97"/>
     <use x="1155.908203" xlink:href="#Helvetica-116"/>
     <use x="1183.691406" xlink:href="#Helvetica-104"/>
     <use x="1239.306641" xlink:href="#Helvetica-115"/>
     <use x="1289.306641" xlink:href="#Helvetica-41"/>
    </g>
   </g>
  </g>
 </g>
 <defs>
  <clipPath id="p7aee1d854a">
   <rect height="145.040186" width="240.896638" x="43.815" y="35.15475"/>
  </clipPath>
 </defs>
</svg>
