<?xml version="1.0" encoding="utf-8" standalone="no"?>
<!DOCTYPE svg PUBLIC "-//W3C//DTD SVG 1.1//EN"
  "http://www.w3.org/Graphics/SVG/1.1/DTD/svg11.dtd">
<!-- Created with matplotlib (https://matplotlib.org/) -->
<svg height="288pt" version="1.1" viewBox="0 0 432 288" width="432pt" xmlns="http://www.w3.org/2000/svg" xmlns:xlink="http://www.w3.org/1999/xlink">
 <defs>
  <style type="text/css">
*{stroke-linecap:butt;stroke-linejoin:round;}
  </style>
 </defs>
 <g id="figure_1">
  <g id="patch_1">
   <path d="M 0 288 
L 432 288 
L 432 0 
L 0 0 
z
" style="fill:#ffffff;"/>
  </g>
  <g id="axes_1">
   <g id="patch_2">
    <path d="M 54 252 
L 388.8 252 
L 388.8 34.56 
L 54 34.56 
z
" style="fill:none;"/>
   </g>
   <g id="matplotlib.axis_1">
    <g id="xtick_1">
     <g id="text_1">
      <!-- 1/28/20 -->
      <defs>
       <path d="M 12.40625 8.296875 
L 28.515625 8.296875 
L 28.515625 63.921875 
L 10.984375 60.40625 
L 10.984375 69.390625 
L 28.421875 72.90625 
L 38.28125 72.90625 
L 38.28125 8.296875 
L 54.390625 8.296875 
L 54.390625 0 
L 12.40625 0 
z
" id="DejaVuSans-49"/>
       <path d="M 25.390625 72.90625 
L 33.6875 72.90625 
L 8.296875 -9.28125 
L 0 -9.28125 
z
" id="DejaVuSans-47"/>
       <path d="M 19.1875 8.296875 
L 53.609375 8.296875 
L 53.609375 0 
L 7.328125 0 
L 7.328125 8.296875 
Q 12.9375 14.109375 22.625 23.890625 
Q 32.328125 33.6875 34.8125 36.53125 
Q 39.546875 41.84375 41.421875 45.53125 
Q 43.3125 49.21875 43.3125 52.78125 
Q 43.3125 58.59375 39.234375 62.25 
Q 35.15625 65.921875 28.609375 65.921875 
Q 23.96875 65.921875 18.8125 64.3125 
Q 13.671875 62.703125 7.8125 59.421875 
L 7.8125 69.390625 
Q 13.765625 71.78125 18.9375 73 
Q 24.125 74.21875 28.421875 74.21875 
Q 39.75 74.21875 46.484375 68.546875 
Q 53.21875 62.890625 53.21875 53.421875 
Q 53.21875 48.921875 51.53125 44.890625 
Q 49.859375 40.875 45.40625 35.40625 
Q 44.1875 33.984375 37.640625 27.21875 
Q 31.109375 20.453125 19.1875 8.296875 
z
" id="DejaVuSans-50"/>
       <path d="M 31.78125 34.625 
Q 24.75 34.625 20.71875 30.859375 
Q 16.703125 27.09375 16.703125 20.515625 
Q 16.703125 13.921875 20.71875 10.15625 
Q 24.75 6.390625 31.78125 6.390625 
Q 38.8125 6.390625 42.859375 10.171875 
Q 46.921875 13.96875 46.921875 20.515625 
Q 46.921875 27.09375 42.890625 30.859375 
Q 38.875 34.625 31.78125 34.625 
z
M 21.921875 38.8125 
Q 15.578125 40.375 12.03125 44.71875 
Q 8.5 49.078125 8.5 55.328125 
Q 8.5 64.0625 14.71875 69.140625 
Q 20.953125 74.21875 31.78125 74.21875 
Q 42.671875 74.21875 48.875 69.140625 
Q 55.078125 64.0625 55.078125 55.328125 
Q 55.078125 49.078125 51.53125 44.71875 
Q 48 40.375 41.703125 38.8125 
Q 48.828125 37.15625 52.796875 32.3125 
Q 56.78125 27.484375 56.78125 20.515625 
Q 56.78125 9.90625 50.3125 4.234375 
Q 43.84375 -1.421875 31.78125 -1.421875 
Q 19.734375 -1.421875 13.25 4.234375 
Q 6.78125 9.90625 6.78125 20.515625 
Q 6.78125 27.484375 10.78125 32.3125 
Q 14.796875 37.15625 21.921875 38.8125 
z
M 18.3125 54.390625 
Q 18.3125 48.734375 21.84375 45.5625 
Q 25.390625 42.390625 31.78125 42.390625 
Q 38.140625 42.390625 41.71875 45.5625 
Q 45.3125 48.734375 45.3125 54.390625 
Q 45.3125 60.0625 41.71875 63.234375 
Q 38.140625 66.40625 31.78125 66.40625 
Q 25.390625 66.40625 21.84375 63.234375 
Q 18.3125 60.0625 18.3125 54.390625 
z
" id="DejaVuSans-56"/>
       <path d="M 31.78125 66.40625 
Q 24.171875 66.40625 20.328125 58.90625 
Q 16.5 51.421875 16.5 36.375 
Q 16.5 21.390625 20.328125 13.890625 
Q 24.171875 6.390625 31.78125 6.390625 
Q 39.453125 6.390625 43.28125 13.890625 
Q 47.125 21.390625 47.125 36.375 
Q 47.125 51.421875 43.28125 58.90625 
Q 39.453125 66.40625 31.78125 66.40625 
z
M 31.78125 74.21875 
Q 44.046875 74.21875 50.515625 64.515625 
Q 56.984375 54.828125 56.984375 36.375 
Q 56.984375 17.96875 50.515625 8.265625 
Q 44.046875 -1.421875 31.78125 -1.421875 
Q 19.53125 -1.421875 13.0625 8.265625 
Q 6.59375 17.96875 6.59375 36.375 
Q 6.59375 54.828125 13.0625 64.515625 
Q 19.53125 74.21875 31.78125 74.21875 
z
" id="DejaVuSans-48"/>
      </defs>
      <g style="fill:#1d1c1c;" transform="translate(52.373934 289.940984)rotate(-30)scale(0.11 -0.11)">
       <use xlink:href="#DejaVuSans-49"/>
       <use x="63.623047" xlink:href="#DejaVuSans-47"/>
       <use x="97.314453" xlink:href="#DejaVuSans-50"/>
       <use x="160.9375" xlink:href="#DejaVuSans-56"/>
       <use x="224.560547" xlink:href="#DejaVuSans-47"/>
       <use x="258.251953" xlink:href="#DejaVuSans-50"/>
       <use x="321.875" xlink:href="#DejaVuSans-48"/>
      </g>
     </g>
    </g>
    <g id="xtick_2">
     <g id="text_2">
      <!-- 2/22/20 -->
      <g style="fill:#1d1c1c;" transform="translate(72.345302 289.940984)rotate(-30)scale(0.11 -0.11)">
       <use xlink:href="#DejaVuSans-50"/>
       <use x="63.623047" xlink:href="#DejaVuSans-47"/>
       <use x="97.314453" xlink:href="#DejaVuSans-50"/>
       <use x="160.9375" xlink:href="#DejaVuSans-50"/>
       <use x="224.560547" xlink:href="#DejaVuSans-47"/>
       <use x="258.251953" xlink:href="#DejaVuSans-50"/>
       <use x="321.875" xlink:href="#DejaVuSans-48"/>
      </g>
     </g>
    </g>
    <g id="xtick_3">
     <g id="text_3">
      <!-- 3/18/20 -->
      <defs>
       <path d="M 40.578125 39.3125 
Q 47.65625 37.796875 51.625 33 
Q 55.609375 28.21875 55.609375 21.1875 
Q 55.609375 10.40625 48.1875 4.484375 
Q 40.765625 -1.421875 27.09375 -1.421875 
Q 22.515625 -1.421875 17.65625 -0.515625 
Q 12.796875 0.390625 7.625 2.203125 
L 7.625 11.71875 
Q 11.71875 9.328125 16.59375 8.109375 
Q 21.484375 6.890625 26.8125 6.890625 
Q 36.078125 6.890625 40.9375 10.546875 
Q 45.796875 14.203125 45.796875 21.1875 
Q 45.796875 27.640625 41.28125 31.265625 
Q 36.765625 34.90625 28.71875 34.90625 
L 20.21875 34.90625 
L 20.21875 43.015625 
L 29.109375 43.015625 
Q 36.375 43.015625 40.234375 45.921875 
Q 44.09375 48.828125 44.09375 54.296875 
Q 44.09375 59.90625 40.109375 62.90625 
Q 36.140625 65.921875 28.71875 65.921875 
Q 24.65625 65.921875 20.015625 65.03125 
Q 15.375 64.15625 9.8125 62.3125 
L 9.8125 71.09375 
Q 15.4375 72.65625 20.34375 73.4375 
Q 25.25 74.21875 29.59375 74.21875 
Q 40.828125 74.21875 47.359375 69.109375 
Q 53.90625 64.015625 53.90625 55.328125 
Q 53.90625 49.265625 50.4375 45.09375 
Q 46.96875 40.921875 40.578125 39.3125 
z
" id="DejaVuSans-51"/>
      </defs>
      <g style="fill:#1d1c1c;" transform="translate(92.316669 289.940984)rotate(-30)scale(0.11 -0.11)">
       <use xlink:href="#DejaVuSans-51"/>
       <use x="63.623047" xlink:href="#DejaVuSans-47"/>
       <use x="97.314453" xlink:href="#DejaVuSans-49"/>
       <use x="160.9375" xlink:href="#DejaVuSans-56"/>
       <use x="224.560547" xlink:href="#DejaVuSans-47"/>
       <use x="258.251953" xlink:href="#DejaVuSans-50"/>
       <use x="321.875" xlink:href="#DejaVuSans-48"/>
      </g>
     </g>
    </g>
    <g id="xtick_4">
     <g id="text_4">
      <!-- 4/12/20 -->
      <defs>
       <path d="M 37.796875 64.3125 
L 12.890625 25.390625 
L 37.796875 25.390625 
z
M 35.203125 72.90625 
L 47.609375 72.90625 
L 47.609375 25.390625 
L 58.015625 25.390625 
L 58.015625 17.1875 
L 47.609375 17.1875 
L 47.609375 0 
L 37.796875 0 
L 37.796875 17.1875 
L 4.890625 17.1875 
L 4.890625 26.703125 
z
" id="DejaVuSans-52"/>
      </defs>
      <g style="fill:#1d1c1c;" transform="translate(112.288036 289.940984)rotate(-30)scale(0.11 -0.11)">
       <use xlink:href="#DejaVuSans-52"/>
       <use x="63.623047" xlink:href="#DejaVuSans-47"/>
       <use x="97.314453" xlink:href="#DejaVuSans-49"/>
       <use x="160.9375" xlink:href="#DejaVuSans-50"/>
       <use x="224.560547" xlink:href="#DejaVuSans-47"/>
       <use x="258.251953" xlink:href="#DejaVuSans-50"/>
       <use x="321.875" xlink:href="#DejaVuSans-48"/>
      </g>
     </g>
    </g>
    <g id="xtick_5">
     <g id="text_5">
      <!-- 5/7/20 -->
      <defs>
       <path d="M 10.796875 72.90625 
L 49.515625 72.90625 
L 49.515625 64.59375 
L 19.828125 64.59375 
L 19.828125 46.734375 
Q 21.96875 47.46875 24.109375 47.828125 
Q 26.265625 48.1875 28.421875 48.1875 
Q 40.625 48.1875 47.75 41.5 
Q 54.890625 34.8125 54.890625 23.390625 
Q 54.890625 11.625 47.5625 5.09375 
Q 40.234375 -1.421875 26.90625 -1.421875 
Q 22.3125 -1.421875 17.546875 -0.640625 
Q 12.796875 0.140625 7.71875 1.703125 
L 7.71875 11.625 
Q 12.109375 9.234375 16.796875 8.0625 
Q 21.484375 6.890625 26.703125 6.890625 
Q 35.15625 6.890625 40.078125 11.328125 
Q 45.015625 15.765625 45.015625 23.390625 
Q 45.015625 31 40.078125 35.4375 
Q 35.15625 39.890625 26.703125 39.890625 
Q 22.75 39.890625 18.8125 39.015625 
Q 14.890625 38.140625 10.796875 36.28125 
z
" id="DejaVuSans-53"/>
       <path d="M 8.203125 72.90625 
L 55.078125 72.90625 
L 55.078125 68.703125 
L 28.609375 0 
L 18.3125 0 
L 43.21875 64.59375 
L 8.203125 64.59375 
z
" id="DejaVuSans-55"/>
      </defs>
      <g style="fill:#1d1c1c;" transform="translate(135.289951 286.441609)rotate(-30)scale(0.11 -0.11)">
       <use xlink:href="#DejaVuSans-53"/>
       <use x="63.623047" xlink:href="#DejaVuSans-47"/>
       <use x="97.314453" xlink:href="#DejaVuSans-55"/>
       <use x="160.9375" xlink:href="#DejaVuSans-47"/>
       <use x="194.628906" xlink:href="#DejaVuSans-50"/>
       <use x="258.251953" xlink:href="#DejaVuSans-48"/>
      </g>
     </g>
    </g>
    <g id="xtick_6">
     <g id="text_6">
      <!-- 6/1/20 -->
      <defs>
       <path d="M 33.015625 40.375 
Q 26.375 40.375 22.484375 35.828125 
Q 18.609375 31.296875 18.609375 23.390625 
Q 18.609375 15.53125 22.484375 10.953125 
Q 26.375 6.390625 33.015625 6.390625 
Q 39.65625 6.390625 43.53125 10.953125 
Q 47.40625 15.53125 47.40625 23.390625 
Q 47.40625 31.296875 43.53125 35.828125 
Q 39.65625 40.375 33.015625 40.375 
z
M 52.59375 71.296875 
L 52.59375 62.3125 
Q 48.875 64.0625 45.09375 64.984375 
Q 41.3125 65.921875 37.59375 65.921875 
Q 27.828125 65.921875 22.671875 59.328125 
Q 17.53125 52.734375 16.796875 39.40625 
Q 19.671875 43.65625 24.015625 45.921875 
Q 28.375 48.1875 33.59375 48.1875 
Q 44.578125 48.1875 50.953125 41.515625 
Q 57.328125 34.859375 57.328125 23.390625 
Q 57.328125 12.15625 50.6875 5.359375 
Q 44.046875 -1.421875 33.015625 -1.421875 
Q 20.359375 -1.421875 13.671875 8.265625 
Q 6.984375 17.96875 6.984375 36.375 
Q 6.984375 53.65625 15.1875 63.9375 
Q 23.390625 74.21875 37.203125 74.21875 
Q 40.921875 74.21875 44.703125 73.484375 
Q 48.484375 72.75 52.59375 71.296875 
z
" id="DejaVuSans-54"/>
      </defs>
      <g style="fill:#1d1c1c;" transform="translate(155.261318 286.441609)rotate(-30)scale(0.11 -0.11)">
       <use xlink:href="#DejaVuSans-54"/>
       <use x="63.623047" xlink:href="#DejaVuSans-47"/>
       <use x="97.314453" xlink:href="#DejaVuSans-49"/>
       <use x="160.9375" xlink:href="#DejaVuSans-47"/>
       <use x="194.628906" xlink:href="#DejaVuSans-50"/>
       <use x="258.251953" xlink:href="#DejaVuSans-48"/>
      </g>
     </g>
    </g>
    <g id="xtick_7">
     <g id="text_7">
      <!-- 6/26/20 -->
      <g style="fill:#1d1c1c;" transform="translate(172.202138 289.940984)rotate(-30)scale(0.11 -0.11)">
       <use xlink:href="#DejaVuSans-54"/>
       <use x="63.623047" xlink:href="#DejaVuSans-47"/>
       <use x="97.314453" xlink:href="#DejaVuSans-50"/>
       <use x="160.9375" xlink:href="#DejaVuSans-54"/>
       <use x="224.560547" xlink:href="#DejaVuSans-47"/>
       <use x="258.251953" xlink:href="#DejaVuSans-50"/>
       <use x="321.875" xlink:href="#DejaVuSans-48"/>
      </g>
     </g>
    </g>
    <g id="xtick_8">
     <g id="text_8">
      <!-- 7/21/20 -->
      <g style="fill:#1d1c1c;" transform="translate(192.173505 289.940984)rotate(-30)scale(0.11 -0.11)">
       <use xlink:href="#DejaVuSans-55"/>
       <use x="63.623047" xlink:href="#DejaVuSans-47"/>
       <use x="97.314453" xlink:href="#DejaVuSans-50"/>
       <use x="160.9375" xlink:href="#DejaVuSans-49"/>
       <use x="224.560547" xlink:href="#DejaVuSans-47"/>
       <use x="258.251953" xlink:href="#DejaVuSans-50"/>
       <use x="321.875" xlink:href="#DejaVuSans-48"/>
      </g>
     </g>
    </g>
    <g id="xtick_9">
     <g id="text_9">
      <!-- 8/15/20 -->
      <g style="fill:#1d1c1c;" transform="translate(212.144872 289.940984)rotate(-30)scale(0.11 -0.11)">
       <use xlink:href="#DejaVuSans-56"/>
       <use x="63.623047" xlink:href="#DejaVuSans-47"/>
       <use x="97.314453" xlink:href="#DejaVuSans-49"/>
       <use x="160.9375" xlink:href="#DejaVuSans-53"/>
       <use x="224.560547" xlink:href="#DejaVuSans-47"/>
       <use x="258.251953" xlink:href="#DejaVuSans-50"/>
       <use x="321.875" xlink:href="#DejaVuSans-48"/>
      </g>
     </g>
    </g>
    <g id="xtick_10">
     <g id="text_10">
      <!-- 9/9/20 -->
      <defs>
       <path d="M 10.984375 1.515625 
L 10.984375 10.5 
Q 14.703125 8.734375 18.5 7.8125 
Q 22.3125 6.890625 25.984375 6.890625 
Q 35.75 6.890625 40.890625 13.453125 
Q 46.046875 20.015625 46.78125 33.40625 
Q 43.953125 29.203125 39.59375 26.953125 
Q 35.25 24.703125 29.984375 24.703125 
Q 19.046875 24.703125 12.671875 31.3125 
Q 6.296875 37.9375 6.296875 49.421875 
Q 6.296875 60.640625 12.9375 67.421875 
Q 19.578125 74.21875 30.609375 74.21875 
Q 43.265625 74.21875 49.921875 64.515625 
Q 56.59375 54.828125 56.59375 36.375 
Q 56.59375 19.140625 48.40625 8.859375 
Q 40.234375 -1.421875 26.421875 -1.421875 
Q 22.703125 -1.421875 18.890625 -0.6875 
Q 15.09375 0.046875 10.984375 1.515625 
z
M 30.609375 32.421875 
Q 37.25 32.421875 41.125 36.953125 
Q 45.015625 41.5 45.015625 49.421875 
Q 45.015625 57.28125 41.125 61.84375 
Q 37.25 66.40625 30.609375 66.40625 
Q 23.96875 66.40625 20.09375 61.84375 
Q 16.21875 57.28125 16.21875 49.421875 
Q 16.21875 41.5 20.09375 36.953125 
Q 23.96875 32.421875 30.609375 32.421875 
z
" id="DejaVuSans-57"/>
      </defs>
      <g style="fill:#1d1c1c;" transform="translate(235.146787 286.441609)rotate(-30)scale(0.11 -0.11)">
       <use xlink:href="#DejaVuSans-57"/>
       <use x="63.623047" xlink:href="#DejaVuSans-47"/>
       <use x="97.314453" xlink:href="#DejaVuSans-57"/>
       <use x="160.9375" xlink:href="#DejaVuSans-47"/>
       <use x="194.628906" xlink:href="#DejaVuSans-50"/>
       <use x="258.251953" xlink:href="#DejaVuSans-48"/>
      </g>
     </g>
    </g>
    <g id="xtick_11">
     <g id="text_11">
      <!-- 10/4/20 -->
      <g style="fill:#1d1c1c;" transform="translate(252.087607 289.940984)rotate(-30)scale(0.11 -0.11)">
       <use xlink:href="#DejaVuSans-49"/>
       <use x="63.623047" xlink:href="#DejaVuSans-48"/>
       <use x="127.246094" xlink:href="#DejaVuSans-47"/>
       <use x="160.9375" xlink:href="#DejaVuSans-52"/>
       <use x="224.560547" xlink:href="#DejaVuSans-47"/>
       <use x="258.251953" xlink:href="#DejaVuSans-50"/>
       <use x="321.875" xlink:href="#DejaVuSans-48"/>
      </g>
     </g>
    </g>
    <g id="xtick_12">
     <g id="text_12">
      <!-- 10/29/20 -->
      <g style="fill:#1d1c1c;" transform="translate(269.028426 293.440359)rotate(-30)scale(0.11 -0.11)">
       <use xlink:href="#DejaVuSans-49"/>
       <use x="63.623047" xlink:href="#DejaVuSans-48"/>
       <use x="127.246094" xlink:href="#DejaVuSans-47"/>
       <use x="160.9375" xlink:href="#DejaVuSans-50"/>
       <use x="224.560547" xlink:href="#DejaVuSans-57"/>
       <use x="288.183594" xlink:href="#DejaVuSans-47"/>
       <use x="321.875" xlink:href="#DejaVuSans-50"/>
       <use x="385.498047" xlink:href="#DejaVuSans-48"/>
      </g>
     </g>
    </g>
    <g id="xtick_13">
     <g id="text_13">
      <!-- 11/23/20 -->
      <g style="fill:#1d1c1c;" transform="translate(288.999793 293.440359)rotate(-30)scale(0.11 -0.11)">
       <use xlink:href="#DejaVuSans-49"/>
       <use x="63.623047" xlink:href="#DejaVuSans-49"/>
       <use x="127.246094" xlink:href="#DejaVuSans-47"/>
       <use x="160.9375" xlink:href="#DejaVuSans-50"/>
       <use x="224.560547" xlink:href="#DejaVuSans-51"/>
       <use x="288.183594" xlink:href="#DejaVuSans-47"/>
       <use x="321.875" xlink:href="#DejaVuSans-50"/>
       <use x="385.498047" xlink:href="#DejaVuSans-48"/>
      </g>
     </g>
    </g>
    <g id="xtick_14">
     <g id="text_14">
      <!-- 12/18/20 -->
      <g style="fill:#1d1c1c;" transform="translate(308.971161 293.440359)rotate(-30)scale(0.11 -0.11)">
       <use xlink:href="#DejaVuSans-49"/>
       <use x="63.623047" xlink:href="#DejaVuSans-50"/>
       <use x="127.246094" xlink:href="#DejaVuSans-47"/>
       <use x="160.9375" xlink:href="#DejaVuSans-49"/>
       <use x="224.560547" xlink:href="#DejaVuSans-56"/>
       <use x="288.183594" xlink:href="#DejaVuSans-47"/>
       <use x="321.875" xlink:href="#DejaVuSans-50"/>
       <use x="385.498047" xlink:href="#DejaVuSans-48"/>
      </g>
     </g>
    </g>
    <g id="xtick_15">
     <g id="text_15">
      <!-- 1/12/21 -->
      <g style="fill:#1d1c1c;" transform="translate(331.973075 289.940984)rotate(-30)scale(0.11 -0.11)">
       <use xlink:href="#DejaVuSans-49"/>
       <use x="63.623047" xlink:href="#DejaVuSans-47"/>
       <use x="97.314453" xlink:href="#DejaVuSans-49"/>
       <use x="160.9375" xlink:href="#DejaVuSans-50"/>
       <use x="224.560547" xlink:href="#DejaVuSans-47"/>
       <use x="258.251953" xlink:href="#DejaVuSans-50"/>
       <use x="321.875" xlink:href="#DejaVuSans-49"/>
      </g>
     </g>
    </g>
    <g id="xtick_16">
     <g id="text_16">
      <!-- 2/6/21 -->
      <g style="fill:#1d1c1c;" transform="translate(354.97499 286.441609)rotate(-30)scale(0.11 -0.11)">
       <use xlink:href="#DejaVuSans-50"/>
       <use x="63.623047" xlink:href="#DejaVuSans-47"/>
       <use x="97.314453" xlink:href="#DejaVuSans-54"/>
       <use x="160.9375" xlink:href="#DejaVuSans-47"/>
       <use x="194.628906" xlink:href="#DejaVuSans-50"/>
       <use x="258.251953" xlink:href="#DejaVuSans-49"/>
      </g>
     </g>
    </g>
    <g id="text_17">
     <!-- Date -->
     <defs>
      <path d="M 19.671875 64.796875 
L 19.671875 8.109375 
L 31.59375 8.109375 
Q 46.6875 8.109375 53.6875 14.9375 
Q 60.6875 21.78125 60.6875 36.53125 
Q 60.6875 51.171875 53.6875 57.984375 
Q 46.6875 64.796875 31.59375 64.796875 
z
M 9.8125 72.90625 
L 30.078125 72.90625 
Q 51.265625 72.90625 61.171875 64.09375 
Q 71.09375 55.28125 71.09375 36.53125 
Q 71.09375 17.671875 61.125 8.828125 
Q 51.171875 0 30.078125 0 
L 9.8125 0 
z
" id="DejaVuSans-68"/>
      <path d="M 34.28125 27.484375 
Q 23.390625 27.484375 19.1875 25 
Q 14.984375 22.515625 14.984375 16.5 
Q 14.984375 11.71875 18.140625 8.90625 
Q 21.296875 6.109375 26.703125 6.109375 
Q 34.1875 6.109375 38.703125 11.40625 
Q 43.21875 16.703125 43.21875 25.484375 
L 43.21875 27.484375 
z
M 52.203125 31.203125 
L 52.203125 0 
L 43.21875 0 
L 43.21875 8.296875 
Q 40.140625 3.328125 35.546875 0.953125 
Q 30.953125 -1.421875 24.3125 -1.421875 
Q 15.921875 -1.421875 10.953125 3.296875 
Q 6 8.015625 6 15.921875 
Q 6 25.140625 12.171875 29.828125 
Q 18.359375 34.515625 30.609375 34.515625 
L 43.21875 34.515625 
L 43.21875 35.40625 
Q 43.21875 41.609375 39.140625 45 
Q 35.0625 48.390625 27.6875 48.390625 
Q 23 48.390625 18.546875 47.265625 
Q 14.109375 46.140625 10.015625 43.890625 
L 10.015625 52.203125 
Q 14.9375 54.109375 19.578125 55.046875 
Q 24.21875 56 28.609375 56 
Q 40.484375 56 46.34375 49.84375 
Q 52.203125 43.703125 52.203125 31.203125 
z
" id="DejaVuSans-97"/>
      <path d="M 18.3125 70.21875 
L 18.3125 54.6875 
L 36.8125 54.6875 
L 36.8125 47.703125 
L 18.3125 47.703125 
L 18.3125 18.015625 
Q 18.3125 11.328125 20.140625 9.421875 
Q 21.96875 7.515625 27.59375 7.515625 
L 36.8125 7.515625 
L 36.8125 0 
L 27.59375 0 
Q 17.1875 0 13.234375 3.875 
Q 9.28125 7.765625 9.28125 18.015625 
L 9.28125 47.703125 
L 2.6875 47.703125 
L 2.6875 54.6875 
L 9.28125 54.6875 
L 9.28125 70.21875 
z
" id="DejaVuSans-116"/>
      <path d="M 56.203125 29.59375 
L 56.203125 25.203125 
L 14.890625 25.203125 
Q 15.484375 15.921875 20.484375 11.0625 
Q 25.484375 6.203125 34.421875 6.203125 
Q 39.59375 6.203125 44.453125 7.46875 
Q 49.3125 8.734375 54.109375 11.28125 
L 54.109375 2.78125 
Q 49.265625 0.734375 44.1875 -0.34375 
Q 39.109375 -1.421875 33.890625 -1.421875 
Q 20.796875 -1.421875 13.15625 6.1875 
Q 5.515625 13.8125 5.515625 26.8125 
Q 5.515625 40.234375 12.765625 48.109375 
Q 20.015625 56 32.328125 56 
Q 43.359375 56 49.78125 48.890625 
Q 56.203125 41.796875 56.203125 29.59375 
z
M 47.21875 32.234375 
Q 47.125 39.59375 43.09375 43.984375 
Q 39.0625 48.390625 32.421875 48.390625 
Q 24.90625 48.390625 20.390625 44.140625 
Q 15.875 39.890625 15.1875 32.171875 
z
" id="DejaVuSans-101"/>
     </defs>
     <g style="fill:#1d1c1c;" transform="translate(199.888594 313.098715)scale(0.18 -0.18)">
      <use xlink:href="#DejaVuSans-68"/>
      <use x="77.001953" xlink:href="#DejaVuSans-97"/>
      <use x="138.28125" xlink:href="#DejaVuSans-116"/>
      <use x="177.490234" xlink:href="#DejaVuSans-101"/>
     </g>
    </g>
   </g>
   <g id="matplotlib.axis_2">
    <g id="ytick_1">
     <g id="text_18">
      <!-- −0.5 -->
      <defs>
       <path d="M 10.59375 35.5 
L 73.1875 35.5 
L 73.1875 27.203125 
L 10.59375 27.203125 
z
" id="DejaVuSans-8722"/>
       <path d="M 10.6875 12.40625 
L 21 12.40625 
L 21 0 
L 10.6875 0 
z
" id="DejaVuSans-46"/>
      </defs>
      <g style="fill:#1d1c1c;" transform="translate(17.788906 231.121736)scale(0.11 -0.11)">
       <use xlink:href="#DejaVuSans-8722"/>
       <use x="83.789062" xlink:href="#DejaVuSans-48"/>
       <use x="147.412109" xlink:href="#DejaVuSans-46"/>
       <use x="179.199219" xlink:href="#DejaVuSans-53"/>
      </g>
     </g>
    </g>
    <g id="ytick_2">
     <g id="text_19">
      <!-- 0.0 -->
      <g style="fill:#1d1c1c;" transform="translate(27.006563 189.964732)scale(0.11 -0.11)">
       <use xlink:href="#DejaVuSans-48"/>
       <use x="63.623047" xlink:href="#DejaVuSans-46"/>
       <use x="95.410156" xlink:href="#DejaVuSans-48"/>
      </g>
     </g>
    </g>
    <g id="ytick_3">
     <g id="text_20">
      <!-- 0.5 -->
      <g style="fill:#1d1c1c;" transform="translate(27.006563 148.807728)scale(0.11 -0.11)">
       <use xlink:href="#DejaVuSans-48"/>
       <use x="63.623047" xlink:href="#DejaVuSans-46"/>
       <use x="95.410156" xlink:href="#DejaVuSans-53"/>
      </g>
     </g>
    </g>
    <g id="ytick_4">
     <g id="text_21">
      <!-- 1.0 -->
      <g style="fill:#1d1c1c;" transform="translate(27.006563 107.650724)scale(0.11 -0.11)">
       <use xlink:href="#DejaVuSans-49"/>
       <use x="63.623047" xlink:href="#DejaVuSans-46"/>
       <use x="95.410156" xlink:href="#DejaVuSans-48"/>
      </g>
     </g>
    </g>
    <g id="ytick_5">
     <g id="text_22">
      <!-- 1.5 -->
      <g style="fill:#1d1c1c;" transform="translate(27.006563 66.493721)scale(0.11 -0.11)">
       <use xlink:href="#DejaVuSans-49"/>
       <use x="63.623047" xlink:href="#DejaVuSans-46"/>
       <use x="95.410156" xlink:href="#DejaVuSans-53"/>
      </g>
     </g>
    </g>
    <g id="text_23">
     <!-- Disease activity (z-score) -->
     <defs>
      <path d="M 9.421875 54.6875 
L 18.40625 54.6875 
L 18.40625 0 
L 9.421875 0 
z
M 9.421875 75.984375 
L 18.40625 75.984375 
L 18.40625 64.59375 
L 9.421875 64.59375 
z
" id="DejaVuSans-105"/>
      <path d="M 44.28125 53.078125 
L 44.28125 44.578125 
Q 40.484375 46.53125 36.375 47.5 
Q 32.28125 48.484375 27.875 48.484375 
Q 21.1875 48.484375 17.84375 46.4375 
Q 14.5 44.390625 14.5 40.28125 
Q 14.5 37.15625 16.890625 35.375 
Q 19.28125 33.59375 26.515625 31.984375 
L 29.59375 31.296875 
Q 39.15625 29.25 43.1875 25.515625 
Q 47.21875 21.78125 47.21875 15.09375 
Q 47.21875 7.46875 41.1875 3.015625 
Q 35.15625 -1.421875 24.609375 -1.421875 
Q 20.21875 -1.421875 15.453125 -0.5625 
Q 10.6875 0.296875 5.421875 2 
L 5.421875 11.28125 
Q 10.40625 8.6875 15.234375 7.390625 
Q 20.0625 6.109375 24.8125 6.109375 
Q 31.15625 6.109375 34.5625 8.28125 
Q 37.984375 10.453125 37.984375 14.40625 
Q 37.984375 18.0625 35.515625 20.015625 
Q 33.0625 21.96875 24.703125 23.78125 
L 21.578125 24.515625 
Q 13.234375 26.265625 9.515625 29.90625 
Q 5.8125 33.546875 5.8125 39.890625 
Q 5.8125 47.609375 11.28125 51.796875 
Q 16.75 56 26.8125 56 
Q 31.78125 56 36.171875 55.265625 
Q 40.578125 54.546875 44.28125 53.078125 
z
" id="DejaVuSans-115"/>
      <path id="DejaVuSans-32"/>
      <path d="M 48.78125 52.59375 
L 48.78125 44.1875 
Q 44.96875 46.296875 41.140625 47.34375 
Q 37.3125 48.390625 33.40625 48.390625 
Q 24.65625 48.390625 19.8125 42.84375 
Q 14.984375 37.3125 14.984375 27.296875 
Q 14.984375 17.28125 19.8125 11.734375 
Q 24.65625 6.203125 33.40625 6.203125 
Q 37.3125 6.203125 41.140625 7.25 
Q 44.96875 8.296875 48.78125 10.40625 
L 48.78125 2.09375 
Q 45.015625 0.34375 40.984375 -0.53125 
Q 36.96875 -1.421875 32.421875 -1.421875 
Q 20.0625 -1.421875 12.78125 6.34375 
Q 5.515625 14.109375 5.515625 27.296875 
Q 5.515625 40.671875 12.859375 48.328125 
Q 20.21875 56 33.015625 56 
Q 37.15625 56 41.109375 55.140625 
Q 45.0625 54.296875 48.78125 52.59375 
z
" id="DejaVuSans-99"/>
      <path d="M 2.984375 54.6875 
L 12.5 54.6875 
L 29.59375 8.796875 
L 46.6875 54.6875 
L 56.203125 54.6875 
L 35.6875 0 
L 23.484375 0 
z
" id="DejaVuSans-118"/>
      <path d="M 32.171875 -5.078125 
Q 28.375 -14.84375 24.75 -17.8125 
Q 21.140625 -20.796875 15.09375 -20.796875 
L 7.90625 -20.796875 
L 7.90625 -13.28125 
L 13.1875 -13.28125 
Q 16.890625 -13.28125 18.9375 -11.515625 
Q 21 -9.765625 23.484375 -3.21875 
L 25.09375 0.875 
L 2.984375 54.6875 
L 12.5 54.6875 
L 29.59375 11.921875 
L 46.6875 54.6875 
L 56.203125 54.6875 
z
" id="DejaVuSans-121"/>
      <path d="M 31 75.875 
Q 24.46875 64.65625 21.28125 53.65625 
Q 18.109375 42.671875 18.109375 31.390625 
Q 18.109375 20.125 21.3125 9.0625 
Q 24.515625 -2 31 -13.1875 
L 23.1875 -13.1875 
Q 15.875 -1.703125 12.234375 9.375 
Q 8.59375 20.453125 8.59375 31.390625 
Q 8.59375 42.28125 12.203125 53.3125 
Q 15.828125 64.359375 23.1875 75.875 
z
" id="DejaVuSans-40"/>
      <path d="M 5.515625 54.6875 
L 48.1875 54.6875 
L 48.1875 46.484375 
L 14.40625 7.171875 
L 48.1875 7.171875 
L 48.1875 0 
L 4.296875 0 
L 4.296875 8.203125 
L 38.09375 47.515625 
L 5.515625 47.515625 
z
" id="DejaVuSans-122"/>
      <path d="M 4.890625 31.390625 
L 31.203125 31.390625 
L 31.203125 23.390625 
L 4.890625 23.390625 
z
" id="DejaVuSans-45"/>
      <path d="M 30.609375 48.390625 
Q 23.390625 48.390625 19.1875 42.75 
Q 14.984375 37.109375 14.984375 27.296875 
Q 14.984375 17.484375 19.15625 11.84375 
Q 23.34375 6.203125 30.609375 6.203125 
Q 37.796875 6.203125 41.984375 11.859375 
Q 46.1875 17.53125 46.1875 27.296875 
Q 46.1875 37.015625 41.984375 42.703125 
Q 37.796875 48.390625 30.609375 48.390625 
z
M 30.609375 56 
Q 42.328125 56 49.015625 48.375 
Q 55.71875 40.765625 55.71875 27.296875 
Q 55.71875 13.875 49.015625 6.21875 
Q 42.328125 -1.421875 30.609375 -1.421875 
Q 18.84375 -1.421875 12.171875 6.21875 
Q 5.515625 13.875 5.515625 27.296875 
Q 5.515625 40.765625 12.171875 48.375 
Q 18.84375 56 30.609375 56 
z
" id="DejaVuSans-111"/>
      <path d="M 41.109375 46.296875 
Q 39.59375 47.171875 37.8125 47.578125 
Q 36.03125 48 33.890625 48 
Q 26.265625 48 22.1875 43.046875 
Q 18.109375 38.09375 18.109375 28.8125 
L 18.109375 0 
L 9.078125 0 
L 9.078125 54.6875 
L 18.109375 54.6875 
L 18.109375 46.1875 
Q 20.953125 51.171875 25.484375 53.578125 
Q 30.03125 56 36.53125 56 
Q 37.453125 56 38.578125 55.875 
Q 39.703125 55.765625 41.0625 55.515625 
z
" id="DejaVuSans-114"/>
      <path d="M 8.015625 75.875 
L 15.828125 75.875 
Q 23.140625 64.359375 26.78125 53.3125 
Q 30.421875 42.28125 30.421875 31.390625 
Q 30.421875 20.453125 26.78125 9.375 
Q 23.140625 -1.703125 15.828125 -13.1875 
L 8.015625 -13.1875 
Q 14.5 -2 17.703125 9.0625 
Q 20.90625 20.125 20.90625 31.390625 
Q 20.90625 42.671875 17.703125 53.65625 
Q 14.5 64.65625 8.015625 75.875 
z
" id="DejaVuSans-41"/>
     </defs>
     <g style="fill:#1d1c1c;" transform="translate(10.045469 256.945781)rotate(-90)scale(0.18 -0.18)">
      <use xlink:href="#DejaVuSans-68"/>
      <use x="77.001953" xlink:href="#DejaVuSans-105"/>
      <use x="104.785156" xlink:href="#DejaVuSans-115"/>
      <use x="156.884766" xlink:href="#DejaVuSans-101"/>
      <use x="218.408203" xlink:href="#DejaVuSans-97"/>
      <use x="279.6875" xlink:href="#DejaVuSans-115"/>
      <use x="331.787109" xlink:href="#DejaVuSans-101"/>
      <use x="393.310547" xlink:href="#DejaVuSans-32"/>
      <use x="425.097656" xlink:href="#DejaVuSans-97"/>
      <use x="486.376953" xlink:href="#DejaVuSans-99"/>
      <use x="541.357422" xlink:href="#DejaVuSans-116"/>
      <use x="580.566406" xlink:href="#DejaVuSans-105"/>
      <use x="608.349609" xlink:href="#DejaVuSans-118"/>
      <use x="667.529297" xlink:href="#DejaVuSans-105"/>
      <use x="695.3125" xlink:href="#DejaVuSans-116"/>
      <use x="734.521484" xlink:href="#DejaVuSans-121"/>
      <use x="793.701172" xlink:href="#DejaVuSans-32"/>
      <use x="825.488281" xlink:href="#DejaVuSans-40"/>
      <use x="864.501953" xlink:href="#DejaVuSans-122"/>
      <use x="916.992188" xlink:href="#DejaVuSans-45"/>
      <use x="953.076172" xlink:href="#DejaVuSans-115"/>
      <use x="1005.175781" xlink:href="#DejaVuSans-99"/>
      <use x="1060.15625" xlink:href="#DejaVuSans-111"/>
      <use x="1121.337891" xlink:href="#DejaVuSans-114"/>
      <use x="1162.419922" xlink:href="#DejaVuSans-101"/>
      <use x="1223.943359" xlink:href="#DejaVuSans-41"/>
     </g>
    </g>
   </g>
   <g id="line2d_1">
    <path clip-path="url(#p6ffa550291)" d="M 69.218182 242.116364 
L 97.976951 242.015338 
L 105.166643 241.834732 
L 105.965497 241.666277 
L 107.563207 241.524882 
L 108.362062 241.446965 
L 109.959771 240.88526 
L 111.55748 239.380178 
L 112.356335 238.216909 
L 113.954044 236.281229 
L 114.752899 234.056651 
L 115.551754 232.433412 
L 116.350608 230.132256 
L 117.149463 224.990645 
L 117.948318 220.677842 
L 118.747173 218.070739 
L 119.546027 212.938827 
L 120.344882 204.288039 
L 121.942591 191.209932 
L 123.540301 185.304104 
L 124.339155 179.270754 
L 125.13801 162.918423 
L 125.936865 158.703821 
L 127.534574 146.300367 
L 128.333429 137.362056 
L 129.132283 133.89364 
L 129.931138 133.053013 
L 130.729993 132.938194 
L 131.528848 123.582397 
L 132.327702 118.594906 
L 133.126557 115.330675 
L 133.925412 115.167138 
L 134.724266 110.608257 
L 135.523121 99.450029 
L 136.321976 95.616677 
L 137.12083 77.176875 
L 137.919685 68.537896 
L 138.71854 65.008212 
L 139.517394 58.51818 
L 140.316249 62.26787 
L 141.115104 65.322221 
L 141.913958 66.034659 
L 142.712813 74.689953 
L 143.511668 71.872784 
L 144.310523 69.879804 
L 145.109377 71.531717 
L 145.908232 71.090206 
L 146.707087 73.346151 
L 147.505941 67.184121 
L 148.304796 74.880726 
L 149.103651 78.02066 
L 149.902505 79.080712 
L 152.299069 88.390892 
L 153.097924 95.024167 
L 153.896779 100.070022 
L 154.695634 103.767559 
L 155.494488 99.76232 
L 156.293343 103.707046 
L 157.092198 104.636115 
L 157.891052 103.093441 
L 158.689907 105.849402 
L 159.488762 101.300121 
L 160.287616 109.579979 
L 161.086471 119.417056 
L 162.68418 118.399164 
L 163.483035 123.813255 
L 164.28189 135.813399 
L 165.080744 143.264139 
L 165.879599 142.585351 
L 166.678454 144.281946 
L 167.477309 148.774744 
L 169.075018 145.202119 
L 169.873873 144.394354 
L 170.672727 148.96432 
L 171.471582 152.698124 
L 172.270437 158.224072 
L 173.069291 162.443153 
L 173.868146 168.834182 
L 174.667001 173.018622 
L 175.465855 174.261475 
L 176.26471 179.686762 
L 177.063565 184.292901 
L 178.661274 182.254446 
L 180.258984 187.184463 
L 181.057838 188.477265 
L 181.856693 188.155655 
L 182.655548 191.021028 
L 184.253257 198.207162 
L 185.052112 198.564808 
L 185.850966 198.218981 
L 186.649821 198.348315 
L 187.448676 200.598416 
L 188.24753 186.34117 
L 189.046385 187.504925 
L 189.84524 188.118704 
L 190.644094 188.534746 
L 191.442949 189.185989 
L 192.241804 191.236354 
L 193.040659 191.653449 
L 193.839513 204.708218 
L 194.638368 204.529305 
L 195.437223 207.350426 
L 196.236077 207.176941 
L 197.034932 209.602713 
L 197.833787 208.625928 
L 198.632641 207.863925 
L 199.431496 208.116147 
L 200.230351 207.88291 
L 201.029205 205.212756 
L 201.82806 204.583181 
L 202.626915 203.399882 
L 203.42577 206.496939 
L 205.023479 211.739975 
L 205.822334 214.601644 
L 206.621188 213.935333 
L 207.420043 214.319008 
L 208.218898 214.058082 
L 209.017752 214.081888 
L 209.816607 211.568355 
L 210.615462 211.708088 
L 211.414316 210.943478 
L 212.213171 213.694669 
L 213.012026 213.774856 
L 213.81088 214.388304 
L 214.609735 213.997886 
L 215.40859 215.632501 
L 216.207445 212.305854 
L 217.006299 212.025218 
L 217.805154 210.184325 
L 218.604009 209.213707 
L 219.402863 208.451974 
L 220.201718 209.137468 
L 221.000573 210.027617 
L 221.799427 211.560719 
L 222.598282 211.910834 
L 223.397137 212.559969 
L 224.195991 212.567926 
L 224.994846 213.53367 
L 225.793701 211.597621 
L 226.592555 209.216323 
L 227.39141 210.615865 
L 228.98912 212.758283 
L 229.787974 213.280743 
L 230.586829 213.50759 
L 232.184538 216.712139 
L 232.983393 215.088732 
L 233.782248 212.857864 
L 234.581102 213.145698 
L 236.178812 212.9392 
L 236.977666 211.138532 
L 237.776521 210.037694 
L 238.575376 209.781173 
L 239.37423 210.799583 
L 240.173085 207.39166 
L 240.97194 207.80323 
L 241.770795 206.417401 
L 242.569649 207.107835 
L 244.167359 211.984052 
L 244.966213 213.140161 
L 245.765068 215.76241 
L 246.563923 215.737965 
L 247.362777 217.459386 
L 248.161632 220.809313 
L 248.960487 221.033792 
L 249.759341 219.801402 
L 250.558196 217.697177 
L 251.357051 217.748144 
L 252.155906 217.662605 
L 252.95476 217.368427 
L 253.753615 212.050879 
L 254.55247 209.427912 
L 255.351324 209.859671 
L 256.150179 210.915425 
L 256.949034 211.408635 
L 257.747888 212.225051 
L 258.546743 211.761617 
L 259.345598 214.383838 
L 260.144452 215.740684 
L 260.943307 217.439151 
L 261.742162 218.403606 
L 262.541016 217.228056 
L 263.339871 217.429343 
L 264.138726 217.917441 
L 264.937581 217.479903 
L 265.736435 219.423291 
L 266.53529 219.282934 
L 267.334145 216.766023 
L 268.132999 217.272851 
L 268.931854 216.246381 
L 269.730709 216.992595 
L 270.529563 219.284509 
L 271.328418 220.236058 
L 272.127273 218.587798 
L 272.926127 219.277224 
L 274.523837 221.217949 
L 275.322691 220.914354 
L 276.121546 220.959915 
L 276.920401 219.556303 
L 277.719256 220.030687 
L 278.51811 221.363353 
L 279.316965 221.452314 
L 280.11582 220.376028 
L 280.914674 218.936153 
L 281.713529 216.908704 
L 282.512384 215.790652 
L 283.311238 215.190238 
L 284.110093 215.58097 
L 284.908948 213.77947 
L 286.506657 216.012637 
L 287.305512 215.716902 
L 288.903221 215.573652 
L 290.500931 215.343 
L 292.09864 213.477016 
L 292.897495 209.088233 
L 293.696349 207.98323 
L 294.495204 207.659762 
L 295.294059 207.822747 
L 296.092913 207.336103 
L 296.891768 208.347792 
L 297.690623 207.759482 
L 298.489477 212.733617 
L 299.288332 212.903106 
L 300.087187 212.854096 
L 300.886042 210.697527 
L 301.684896 209.97849 
L 302.483751 207.296481 
L 303.282606 200.365295 
L 304.08146 197.162189 
L 304.880315 195.529377 
L 305.67917 188.434664 
L 306.478024 185.338913 
L 307.276879 183.865203 
L 308.075734 184.972833 
L 308.874588 190.764867 
L 310.472298 184.482748 
L 311.271152 189.5216 
L 312.070007 192.131765 
L 312.868862 194.200495 
L 313.667717 192.807456 
L 314.466571 192.316517 
L 315.265426 191.056182 
L 316.064281 186.40161 
L 316.863135 178.650619 
L 317.66199 172.606572 
L 318.460845 168.176203 
L 320.058554 165.83521 
L 320.857409 165.016682 
L 321.656263 163.160914 
L 322.455118 163.413307 
L 323.253973 160.480114 
L 324.851682 156.704779 
L 325.650537 156.318946 
L 326.449392 152.390109 
L 327.248246 151.762626 
L 328.047101 154.041988 
L 328.845956 157.830603 
L 329.64481 153.345639 
L 330.443665 152.710114 
L 331.24252 152.771806 
L 332.041374 150.390171 
L 332.840229 152.006247 
L 333.639084 151.613641 
L 334.437938 158.285876 
L 335.236793 166.147104 
L 336.035648 167.080067 
L 336.834503 165.550879 
L 337.633357 165.228597 
L 338.432212 161.869671 
L 339.231067 157.823814 
L 340.828776 151.204267 
L 341.627631 149.977657 
L 342.426485 148.187701 
L 343.22534 148.318004 
L 344.024195 148.964264 
L 344.823049 150.729309 
L 345.621904 141.813085 
L 346.420759 137.29569 
L 347.219613 138.516989 
L 348.018468 140.875399 
L 348.817323 138.707404 
L 349.616178 138.028123 
L 350.415032 136.969518 
L 351.213887 139.462777 
L 352.012742 139.508569 
L 352.811596 136.681396 
L 353.610451 137.061955 
L 354.409306 144.092904 
L 356.007015 137.91327 
L 356.80587 135.970224 
L 358.403579 137.841718 
L 359.202434 135.6711 
L 360.001288 131.9364 
L 360.800143 135.161986 
L 361.598998 136.934831 
L 362.397853 134.67223 
L 363.196707 137.451753 
L 363.995562 138.836356 
L 364.794417 140.589659 
L 365.593271 144.940487 
L 366.392126 146.77426 
L 367.190981 136.588428 
L 367.989835 140.293449 
L 368.78869 137.027526 
L 369.587545 136.613014 
L 370.386399 136.945509 
L 371.185254 135.334986 
L 371.984109 136.314882 
L 372.782963 142.194507 
L 373.581818 110.783636 
L 373.581818 110.783636 
" style="fill:none;stroke:#4c72b0;stroke-linecap:round;stroke-width:1.5;"/>
   </g>
   <g id="line2d_2">
    <path clip-path="url(#p6ffa550291)" d="M 69.218182 224.379994 
L 109.160916 224.28698 
L 109.959771 224.038743 
L 113.15519 223.878207 
L 116.350608 223.248409 
L 117.948318 222.501788 
L 118.747173 222.302336 
L 120.344882 220.441414 
L 121.143737 220.21234 
L 121.942591 219.116363 
L 124.339155 216.994448 
L 125.13801 216.849022 
L 127.534574 215.742304 
L 128.333429 215.677975 
L 129.132283 215.927887 
L 129.931138 215.489172 
L 130.729993 215.193898 
L 131.528848 215.419756 
L 133.126557 215.474087 
L 133.925412 215.132235 
L 135.523121 215.422264 
L 136.321976 215.22336 
L 137.12083 215.263852 
L 137.919685 213.858387 
L 140.316249 214.427011 
L 141.115104 214.559993 
L 141.913958 214.849976 
L 142.712813 214.792106 
L 143.511668 216.016546 
L 144.310523 215.991868 
L 145.908232 215.646586 
L 146.707087 215.309565 
L 147.505941 215.122815 
L 148.304796 214.460427 
L 149.103651 214.25017 
L 149.902505 214.19963 
L 151.500215 214.70825 
L 152.299069 214.764139 
L 153.097924 213.717999 
L 153.896779 214.310927 
L 154.695634 213.981369 
L 155.494488 213.873729 
L 156.293343 213.989666 
L 157.092198 213.872345 
L 157.891052 213.511149 
L 158.689907 214.407177 
L 159.488762 212.376454 
L 160.287616 212.615694 
L 161.086471 212.45031 
L 161.885326 212.448339 
L 162.68418 211.901954 
L 163.483035 212.758065 
L 164.28189 213.414375 
L 165.080744 214.421079 
L 165.879599 214.010415 
L 166.678454 214.057507 
L 167.477309 213.672862 
L 168.276163 214.397598 
L 169.075018 214.262811 
L 169.873873 213.377881 
L 170.672727 214.038387 
L 172.270437 212.995683 
L 173.069291 213.46301 
L 174.667001 213.450021 
L 176.26471 214.759497 
L 177.063565 215.504577 
L 177.862419 215.838665 
L 181.057838 216.651601 
L 181.856693 216.179948 
L 182.655548 216.454674 
L 183.454402 217.336326 
L 184.253257 217.019293 
L 185.052112 216.991891 
L 185.850966 216.70823 
L 186.649821 215.42001 
L 187.448676 216.071166 
L 188.24753 216.219968 
L 189.046385 215.77009 
L 189.84524 215.840742 
L 190.644094 215.766043 
L 191.442949 216.224329 
L 192.241804 217.219739 
L 193.839513 216.797312 
L 194.638368 216.906926 
L 195.437223 217.431811 
L 196.236077 217.592049 
L 197.034932 217.509154 
L 197.833787 217.553632 
L 198.632641 217.060931 
L 200.230351 216.825253 
L 201.029205 216.163262 
L 201.82806 216.023865 
L 202.626915 216.015667 
L 203.42577 216.202367 
L 205.023479 214.898481 
L 205.822334 214.970715 
L 206.621188 214.855071 
L 208.218898 213.819257 
L 209.017752 213.035127 
L 209.816607 213.152136 
L 210.615462 213.615937 
L 211.414316 213.163691 
L 212.213171 213.374012 
L 213.012026 213.361897 
L 213.81088 211.483116 
L 214.609735 211.060453 
L 216.207445 209.188176 
L 217.006299 208.586825 
L 217.805154 208.143379 
L 218.604009 208.048207 
L 219.402863 210.097177 
L 220.201718 209.490845 
L 221.000573 210.102761 
L 221.799427 209.445326 
L 222.598282 209.527317 
L 223.397137 208.743581 
L 224.195991 208.789857 
L 224.994846 208.355751 
L 226.592555 208.214955 
L 227.39141 209.245907 
L 228.190265 209.217552 
L 229.787974 208.656671 
L 230.586829 208.58856 
L 231.385684 209.001142 
L 232.184538 208.997982 
L 232.983393 208.051106 
L 233.782248 208.151149 
L 234.581102 208.665586 
L 235.379957 208.771588 
L 236.178812 209.051926 
L 236.977666 208.654916 
L 237.776521 207.608866 
L 238.575376 208.291346 
L 239.37423 207.657512 
L 242.569649 204.388579 
L 243.368504 203.742454 
L 244.167359 203.795961 
L 244.966213 203.631364 
L 245.765068 203.82529 
L 246.563923 204.478951 
L 247.362777 205.619589 
L 248.161632 208.233682 
L 248.960487 207.41493 
L 249.759341 206.13535 
L 250.558196 205.136243 
L 252.155906 205.620921 
L 252.95476 205.465772 
L 253.753615 202.690016 
L 254.55247 203.359198 
L 256.150179 205.36863 
L 256.949034 204.722695 
L 257.747888 204.598642 
L 258.546743 203.311218 
L 259.345598 203.143009 
L 260.144452 203.570324 
L 260.943307 202.624261 
L 261.742162 200.492756 
L 262.541016 199.231548 
L 263.339871 198.90633 
L 264.138726 198.866442 
L 264.937581 198.640466 
L 265.736435 197.546694 
L 266.53529 195.290489 
L 267.334145 194.118714 
L 268.132999 193.839282 
L 268.931854 193.394919 
L 269.730709 192.760455 
L 270.529563 193.376296 
L 271.328418 191.725234 
L 272.127273 191.019537 
L 272.926127 189.457732 
L 273.724982 188.756693 
L 274.523837 188.679687 
L 275.322691 187.5822 
L 276.121546 185.07278 
L 276.920401 182.042387 
L 277.719256 180.291183 
L 278.51811 180.91204 
L 280.11582 176.226675 
L 280.914674 175.861213 
L 282.512384 172.230059 
L 283.311238 170.806497 
L 284.110093 168.394369 
L 284.908948 163.754857 
L 285.707802 163.702537 
L 286.506657 161.638559 
L 287.305512 158.245172 
L 288.104366 160.428555 
L 289.702076 157.20859 
L 290.500931 158.843238 
L 291.299785 156.913973 
L 292.09864 157.196096 
L 292.897495 156.371821 
L 293.696349 152.60928 
L 295.294059 146.630336 
L 296.092913 147.073463 
L 296.891768 148.199616 
L 297.690623 146.138212 
L 298.489477 139.960696 
L 299.288332 138.277039 
L 300.087187 137.669628 
L 300.886042 139.196304 
L 301.684896 132.812344 
L 303.282606 129.926534 
L 304.08146 127.121964 
L 304.880315 121.572289 
L 305.67917 113.063717 
L 306.478024 105.987652 
L 307.276879 104.4542 
L 308.075734 101.167739 
L 308.874588 100.334599 
L 309.673443 94.527301 
L 310.472298 90.311145 
L 311.271152 98.541913 
L 312.070007 102.333305 
L 312.868862 106.808981 
L 313.667717 109.288611 
L 314.466571 107.569611 
L 316.064281 94.835663 
L 316.863135 77.672838 
L 318.460845 61.75288 
L 319.259699 59.154774 
L 320.058554 57.202886 
L 320.857409 63.511542 
L 321.656263 65.501433 
L 322.455118 69.737388 
L 323.253973 53.661931 
L 324.052827 50.309124 
L 324.851682 49.238063 
L 325.650537 51.816948 
L 326.449392 49.030485 
L 327.248246 44.443636 
L 328.047101 45.044276 
L 328.845956 63.579861 
L 329.64481 65.716836 
L 330.443665 65.855279 
L 331.24252 67.146356 
L 332.041374 68.071305 
L 333.639084 85.259666 
L 334.437938 101.082794 
L 335.236793 113.071777 
L 336.035648 117.200232 
L 336.834503 113.629654 
L 337.633357 119.77686 
L 338.432212 124.907615 
L 339.231067 123.021794 
L 340.029921 120.751089 
L 340.828776 117.163226 
L 341.627631 118.985997 
L 342.426485 123.144391 
L 343.22534 122.097576 
L 344.024195 124.981807 
L 344.823049 126.538181 
L 345.621904 117.719992 
L 346.420759 119.7751 
L 347.219613 119.142235 
L 348.018468 123.72245 
L 348.817323 127.155418 
L 349.616178 129.532848 
L 350.415032 132.436339 
L 351.213887 136.521563 
L 352.012742 136.322693 
L 352.811596 137.455707 
L 353.610451 138.255893 
L 354.409306 149.920489 
L 355.20816 148.646787 
L 356.007015 149.547741 
L 356.80587 151.429704 
L 359.202434 149.239263 
L 360.001288 144.038495 
L 360.800143 147.925153 
L 361.598998 153.346424 
L 362.397853 154.419929 
L 363.196707 158.371425 
L 363.995562 157.258286 
L 364.794417 159.7221 
L 365.593271 159.17128 
L 366.392126 161.830542 
L 367.190981 154.724607 
L 367.989835 153.851266 
L 368.78869 155.248423 
L 369.587545 158.764755 
L 370.386399 157.457026 
L 371.185254 162.413022 
L 371.984109 160.636226 
L 372.782963 160.711834 
L 373.581818 154.424438 
L 373.581818 154.424438 
" style="fill:none;stroke:#dd8452;stroke-linecap:round;stroke-width:1.5;"/>
   </g>
   <g id="line2d_3">
    <path clip-path="url(#p6ffa550291)" d="M 69.218182 232.821478 
L 106.764352 232.767249 
L 107.563207 232.590218 
L 109.959771 232.3044 
L 111.55748 231.91745 
L 112.356335 231.480196 
L 113.15519 231.550285 
L 115.551754 230.43799 
L 116.350608 230.147536 
L 117.149463 229.1542 
L 117.948318 229.188008 
L 119.546027 227.173261 
L 120.344882 226.556397 
L 121.942591 223.902814 
L 122.741446 223.558493 
L 123.540301 222.606567 
L 124.339155 222.522884 
L 125.13801 220.870338 
L 126.735719 218.791483 
L 127.534574 218.46206 
L 128.333429 217.615713 
L 129.132283 217.797964 
L 129.931138 216.90604 
L 132.327702 215.897562 
L 133.126557 214.306281 
L 133.925412 214.595119 
L 134.724266 214.265216 
L 135.523121 214.150859 
L 136.321976 215.157583 
L 137.12083 213.573481 
L 137.919685 213.70711 
L 139.517394 215.083492 
L 141.115104 215.138749 
L 141.913958 214.448323 
L 142.712813 215.817051 
L 143.511668 215.392117 
L 144.310523 215.589475 
L 145.109377 214.603172 
L 145.908232 214.99504 
L 146.707087 214.947888 
L 147.505941 214.183556 
L 148.304796 214.529944 
L 149.902505 215.733839 
L 153.097924 216.593572 
L 154.695634 216.387025 
L 155.494488 215.034617 
L 156.293343 215.602463 
L 157.092198 215.198699 
L 158.689907 215.673802 
L 160.287616 215.6478 
L 161.086471 216.603594 
L 161.885326 216.206324 
L 162.68418 215.94177 
L 163.483035 216.063841 
L 164.28189 217.601104 
L 165.080744 217.075834 
L 165.879599 216.138996 
L 166.678454 216.022355 
L 167.477309 215.497798 
L 169.075018 215.365712 
L 169.873873 214.479265 
L 170.672727 214.701198 
L 171.471582 215.625923 
L 172.270437 215.350113 
L 173.069291 215.996493 
L 173.868146 217.073365 
L 174.667001 216.934021 
L 176.26471 214.862668 
L 177.063565 214.836942 
L 177.862419 214.468382 
L 178.661274 214.263752 
L 179.460129 214.177234 
L 180.258984 214.361264 
L 181.057838 214.823934 
L 181.856693 215.687997 
L 182.655548 215.853373 
L 183.454402 216.409447 
L 184.253257 216.662718 
L 185.052112 216.442461 
L 185.850966 215.497242 
L 186.649821 214.988882 
L 187.448676 214.623082 
L 189.046385 214.701478 
L 189.84524 214.033005 
L 190.644094 214.038549 
L 191.442949 215.261882 
L 192.241804 215.825458 
L 193.040659 215.931563 
L 193.839513 214.422743 
L 194.638368 213.745458 
L 195.437223 215.022159 
L 197.034932 214.191871 
L 197.833787 211.398303 
L 198.632641 210.067286 
L 199.431496 209.793267 
L 200.230351 208.563274 
L 201.029205 206.251896 
L 201.82806 205.339843 
L 202.626915 205.442734 
L 203.42577 205.939242 
L 205.023479 205.053083 
L 205.822334 203.633808 
L 206.621188 201.952173 
L 207.420043 201.759018 
L 208.218898 200.856029 
L 209.017752 198.981947 
L 209.816607 195.10369 
L 210.615462 194.025017 
L 211.414316 192.361605 
L 213.012026 188.115152 
L 213.81088 176.926483 
L 214.609735 173.943747 
L 215.40859 171.528726 
L 216.207445 167.766925 
L 217.006299 165.335081 
L 217.805154 164.442875 
L 218.604009 166.089923 
L 219.402863 176.114643 
L 220.201718 175.294556 
L 221.000573 175.563182 
L 221.799427 176.141472 
L 222.598282 177.747562 
L 223.397137 177.965251 
L 224.195991 176.027391 
L 224.994846 175.632802 
L 225.793701 174.823661 
L 227.39141 175.767154 
L 228.190265 175.852857 
L 228.98912 174.834687 
L 229.787974 175.736786 
L 230.586829 175.975331 
L 231.385684 178.188084 
L 232.184538 177.450749 
L 232.983393 176.362492 
L 233.782248 173.378301 
L 234.581102 174.628346 
L 235.379957 174.153022 
L 236.178812 174.431142 
L 236.977666 172.636809 
L 238.575376 173.866885 
L 239.37423 176.571327 
L 240.173085 175.517213 
L 240.97194 176.559257 
L 241.770795 176.337624 
L 242.569649 178.593039 
L 243.368504 178.834444 
L 244.167359 180.921708 
L 244.966213 182.419391 
L 245.765068 184.670729 
L 246.563923 183.364459 
L 247.362777 184.88291 
L 248.161632 191.436759 
L 248.960487 192.267158 
L 249.759341 190.400765 
L 250.558196 187.635835 
L 251.357051 188.217387 
L 252.155906 188.660834 
L 252.95476 187.475449 
L 253.753615 176.643893 
L 254.55247 175.929755 
L 255.351324 176.33547 
L 256.150179 178.0235 
L 256.949034 177.144929 
L 257.747888 179.42207 
L 258.546743 178.761881 
L 259.345598 182.978565 
L 260.144452 183.68415 
L 260.943307 184.079056 
L 261.742162 183.773143 
L 262.541016 184.260472 
L 263.339871 183.136252 
L 264.138726 184.503205 
L 264.937581 186.25511 
L 265.736435 188.404107 
L 266.53529 189.043349 
L 267.334145 190.449392 
L 268.132999 190.74119 
L 268.931854 190.544374 
L 269.730709 189.857566 
L 270.529563 191.160153 
L 271.328418 191.832732 
L 272.127273 191.717226 
L 272.926127 191.0798 
L 273.724982 192.324011 
L 274.523837 192.015534 
L 276.121546 194.778542 
L 276.920401 194.153988 
L 277.719256 196.125512 
L 278.51811 196.827737 
L 279.316965 194.849284 
L 280.11582 195.226246 
L 280.914674 194.173885 
L 281.713529 192.224637 
L 282.512384 191.666288 
L 283.311238 191.352612 
L 284.110093 191.243464 
L 284.908948 191.404113 
L 285.707802 192.163323 
L 286.506657 192.680409 
L 287.305512 192.9718 
L 288.104366 193.440069 
L 288.903221 192.980241 
L 289.702076 193.807947 
L 290.500931 194.189303 
L 291.299785 194.332439 
L 292.09864 193.574813 
L 292.897495 183.14924 
L 293.696349 183.472584 
L 295.294059 182.325068 
L 296.092913 183.479506 
L 296.891768 182.527927 
L 297.690623 182.186454 
L 298.489477 191.085195 
L 299.288332 189.514405 
L 300.087187 189.56005 
L 300.886042 190.821499 
L 301.684896 189.544629 
L 302.483751 189.471425 
L 303.282606 187.992168 
L 304.08146 187.658164 
L 305.67917 184.966811 
L 306.478024 180.682956 
L 307.276879 180.422022 
L 308.075734 179.078124 
L 308.874588 180.34072 
L 309.673443 177.788707 
L 310.472298 176.435128 
L 311.271152 179.103596 
L 312.070007 182.558372 
L 312.868862 183.576624 
L 313.667717 183.565747 
L 314.466571 182.722272 
L 315.265426 181.038423 
L 316.064281 179.718957 
L 317.66199 166.926407 
L 318.460845 162.863957 
L 319.259699 161.19439 
L 320.058554 159.079811 
L 320.857409 159.698441 
L 321.656263 159.499708 
L 322.455118 158.562941 
L 323.253973 156.158305 
L 324.052827 154.897756 
L 324.851682 153.87737 
L 325.650537 154.350861 
L 326.449392 151.364039 
L 328.047101 139.188769 
L 329.64481 135.978787 
L 330.443665 133.989669 
L 331.24252 132.616124 
L 332.041374 128.677188 
L 332.840229 128.246745 
L 333.639084 132.28248 
L 334.437938 143.372296 
L 335.236793 146.789744 
L 336.035648 149.279279 
L 336.834503 146.445145 
L 337.633357 142.050669 
L 338.432212 139.551196 
L 339.231067 135.31862 
L 340.029921 127.221908 
L 340.828776 121.368635 
L 341.627631 120.604541 
L 342.426485 118.68667 
L 343.22534 113.461319 
L 344.024195 110.506509 
L 344.823049 101.97992 
L 345.621904 87.189981 
L 346.420759 81.683359 
L 347.219613 77.443658 
L 348.018468 80.40826 
L 348.817323 75.735602 
L 349.616178 65.01278 
L 350.415032 62.296184 
L 351.213887 62.138543 
L 352.811596 58.593656 
L 353.610451 58.563022 
L 354.409306 69.977929 
L 355.20816 71.588819 
L 356.007015 69.763737 
L 356.80587 71.141514 
L 357.604724 68.029929 
L 358.403579 68.210592 
L 359.202434 65.238937 
L 360.001288 55.64279 
L 360.800143 56.497792 
L 362.397853 59.030731 
L 363.196707 65.74453 
L 363.995562 61.430227 
L 364.794417 58.925735 
L 365.593271 61.089228 
L 366.392126 61.201123 
L 367.190981 54.071472 
L 367.989835 49.345503 
L 368.78869 45.820191 
L 369.587545 54.928567 
L 370.386399 58.792147 
L 371.984109 69.286365 
L 372.782963 80.25213 
L 373.581818 76.922355 
L 373.581818 76.922355 
" style="fill:none;stroke:#55a868;stroke-linecap:round;stroke-width:1.5;"/>
   </g>
   <g id="patch_3">
    <path d="M 54 252 
L 54 34.56 
" style="fill:none;stroke:#d3d3d3;stroke-linecap:square;stroke-linejoin:miter;stroke-width:1.25;"/>
   </g>
   <g id="patch_4">
    <path d="M 54 252 
L 388.8 252 
" style="fill:none;stroke:#d3d3d3;stroke-linecap:square;stroke-linejoin:miter;stroke-width:1.25;"/>
   </g>
   <g id="text_24">
    <!-- Cluster centers for k=3 -->
    <defs>
     <path d="M 64.40625 67.28125 
L 64.40625 56.890625 
Q 59.421875 61.53125 53.78125 63.8125 
Q 48.140625 66.109375 41.796875 66.109375 
Q 29.296875 66.109375 22.65625 58.46875 
Q 16.015625 50.828125 16.015625 36.375 
Q 16.015625 21.96875 22.65625 14.328125 
Q 29.296875 6.6875 41.796875 6.6875 
Q 48.140625 6.6875 53.78125 8.984375 
Q 59.421875 11.28125 64.40625 15.921875 
L 64.40625 5.609375 
Q 59.234375 2.09375 53.4375 0.328125 
Q 47.65625 -1.421875 41.21875 -1.421875 
Q 24.65625 -1.421875 15.125 8.703125 
Q 5.609375 18.84375 5.609375 36.375 
Q 5.609375 53.953125 15.125 64.078125 
Q 24.65625 74.21875 41.21875 74.21875 
Q 47.75 74.21875 53.53125 72.484375 
Q 59.328125 70.75 64.40625 67.28125 
z
" id="DejaVuSans-67"/>
     <path d="M 9.421875 75.984375 
L 18.40625 75.984375 
L 18.40625 0 
L 9.421875 0 
z
" id="DejaVuSans-108"/>
     <path d="M 8.5 21.578125 
L 8.5 54.6875 
L 17.484375 54.6875 
L 17.484375 21.921875 
Q 17.484375 14.15625 20.5 10.265625 
Q 23.53125 6.390625 29.59375 6.390625 
Q 36.859375 6.390625 41.078125 11.03125 
Q 45.3125 15.671875 45.3125 23.6875 
L 45.3125 54.6875 
L 54.296875 54.6875 
L 54.296875 0 
L 45.3125 0 
L 45.3125 8.40625 
Q 42.046875 3.421875 37.71875 1 
Q 33.40625 -1.421875 27.6875 -1.421875 
Q 18.265625 -1.421875 13.375 4.4375 
Q 8.5 10.296875 8.5 21.578125 
z
M 31.109375 56 
z
" id="DejaVuSans-117"/>
     <path d="M 54.890625 33.015625 
L 54.890625 0 
L 45.90625 0 
L 45.90625 32.71875 
Q 45.90625 40.484375 42.875 44.328125 
Q 39.84375 48.1875 33.796875 48.1875 
Q 26.515625 48.1875 22.3125 43.546875 
Q 18.109375 38.921875 18.109375 30.90625 
L 18.109375 0 
L 9.078125 0 
L 9.078125 54.6875 
L 18.109375 54.6875 
L 18.109375 46.1875 
Q 21.34375 51.125 25.703125 53.5625 
Q 30.078125 56 35.796875 56 
Q 45.21875 56 50.046875 50.171875 
Q 54.890625 44.34375 54.890625 33.015625 
z
" id="DejaVuSans-110"/>
     <path d="M 37.109375 75.984375 
L 37.109375 68.5 
L 28.515625 68.5 
Q 23.6875 68.5 21.796875 66.546875 
Q 19.921875 64.59375 19.921875 59.515625 
L 19.921875 54.6875 
L 34.71875 54.6875 
L 34.71875 47.703125 
L 19.921875 47.703125 
L 19.921875 0 
L 10.890625 0 
L 10.890625 47.703125 
L 2.296875 47.703125 
L 2.296875 54.6875 
L 10.890625 54.6875 
L 10.890625 58.5 
Q 10.890625 67.625 15.140625 71.796875 
Q 19.390625 75.984375 28.609375 75.984375 
z
" id="DejaVuSans-102"/>
     <path d="M 9.078125 75.984375 
L 18.109375 75.984375 
L 18.109375 31.109375 
L 44.921875 54.6875 
L 56.390625 54.6875 
L 27.390625 29.109375 
L 57.625 0 
L 45.90625 0 
L 18.109375 26.703125 
L 18.109375 0 
L 9.078125 0 
z
" id="DejaVuSans-107"/>
     <path d="M 10.59375 45.40625 
L 73.1875 45.40625 
L 73.1875 37.203125 
L 10.59375 37.203125 
z
M 10.59375 25.484375 
L 73.1875 25.484375 
L 73.1875 17.1875 
L 10.59375 17.1875 
z
" id="DejaVuSans-61"/>
    </defs>
    <g style="fill:#1d1c1c;" transform="translate(104.707813 28.56)scale(0.2 -0.2)">
     <use xlink:href="#DejaVuSans-67"/>
     <use x="69.824219" xlink:href="#DejaVuSans-108"/>
     <use x="97.607422" xlink:href="#DejaVuSans-117"/>
     <use x="160.986328" xlink:href="#DejaVuSans-115"/>
     <use x="213.085938" xlink:href="#DejaVuSans-116"/>
     <use x="252.294922" xlink:href="#DejaVuSans-101"/>
     <use x="313.818359" xlink:href="#DejaVuSans-114"/>
     <use x="354.931641" xlink:href="#DejaVuSans-32"/>
     <use x="386.71875" xlink:href="#DejaVuSans-99"/>
     <use x="441.699219" xlink:href="#DejaVuSans-101"/>
     <use x="503.222656" xlink:href="#DejaVuSans-110"/>
     <use x="566.601562" xlink:href="#DejaVuSans-116"/>
     <use x="605.810547" xlink:href="#DejaVuSans-101"/>
     <use x="667.333984" xlink:href="#DejaVuSans-114"/>
     <use x="708.447266" xlink:href="#DejaVuSans-115"/>
     <use x="760.546875" xlink:href="#DejaVuSans-32"/>
     <use x="792.333984" xlink:href="#DejaVuSans-102"/>
     <use x="827.539062" xlink:href="#DejaVuSans-111"/>
     <use x="888.720703" xlink:href="#DejaVuSans-114"/>
     <use x="929.833984" xlink:href="#DejaVuSans-32"/>
     <use x="961.621094" xlink:href="#DejaVuSans-107"/>
     <use x="1019.53125" xlink:href="#DejaVuSans-61"/>
     <use x="1103.320312" xlink:href="#DejaVuSans-51"/>
    </g>
   </g>
   <g id="legend_1">
    <g id="patch_5">
     <path d="M 61.7 91.797813 
L 103.89875 91.797813 
Q 106.09875 91.797813 106.09875 89.597813 
L 106.09875 42.26 
Q 106.09875 40.06 103.89875 40.06 
L 61.7 40.06 
Q 59.5 40.06 59.5 42.26 
L 59.5 89.597813 
Q 59.5 91.797813 61.7 91.797813 
z
" style="fill:none;opacity:0.8;stroke:#cccccc;stroke-linejoin:miter;"/>
    </g>
    <g id="line2d_4">
     <path d="M 63.9 48.968281 
L 85.9 48.968281 
" style="fill:none;stroke:#4c72b0;stroke-linecap:round;stroke-width:1.5;"/>
    </g>
    <g id="line2d_5"/>
    <g id="text_25">
     <!-- 0 -->
     <g style="fill:#1d1c1c;" transform="translate(94.7 52.818281)scale(0.11 -0.11)">
      <use xlink:href="#DejaVuSans-48"/>
     </g>
    </g>
    <g id="line2d_6">
     <path d="M 63.9 65.114219 
L 85.9 65.114219 
" style="fill:none;stroke:#dd8452;stroke-linecap:round;stroke-width:1.5;"/>
    </g>
    <g id="line2d_7"/>
    <g id="text_26">
     <!-- 1 -->
     <g style="fill:#1d1c1c;" transform="translate(94.7 68.964219)scale(0.11 -0.11)">
      <use xlink:href="#DejaVuSans-49"/>
     </g>
    </g>
    <g id="line2d_8">
     <path d="M 63.9 81.260156 
L 85.9 81.260156 
" style="fill:none;stroke:#55a868;stroke-linecap:round;stroke-width:1.5;"/>
    </g>
    <g id="line2d_9"/>
    <g id="text_27">
     <!-- 2 -->
     <g style="fill:#1d1c1c;" transform="translate(94.7 85.110156)scale(0.11 -0.11)">
      <use xlink:href="#DejaVuSans-50"/>
     </g>
    </g>
   </g>
  </g>
 </g>
 <defs>
  <clipPath id="p6ffa550291">
   <rect height="217.44" width="334.8" x="54" y="34.56"/>
  </clipPath>
 </defs>
</svg>
